<svg width="18" height="18" viewBox="0 0 18 18" fill="none" xmlns="http://www.w3.org/2000/svg">
<g opacity="0.3">
<path d="M16.2 7.2C17.1941 7.2 18 8.00589 18 9C18 9.99411 17.1941 10.8 16.2 10.8L1.8 10.8C0.805888 10.8 -4.3454e-08 9.99411 0 9C4.3454e-08 8.00589 0.805888 7.2 1.8 7.2L16.2 7.2Z" fill="#434343"/>
<path d="M10.8 16.2C10.8 17.1941 9.99411 18 9 18C8.00589 18 7.2 17.1941 7.2 16.2L7.2 1.8C7.2 0.805888 8.00589 -8.69081e-08 9 0C9.99411 8.69081e-08 10.8 0.805888 10.8 1.8L10.8 16.2Z" fill="#434343"/>
</g>
</svg>
