<svg width="17" height="17" viewBox="0 0 17 17" fill="none" xmlns="http://www.w3.org/2000/svg">
<path fill-rule="evenodd" clip-rule="evenodd" d="M8.35 1.02666C4.05361 1.02666 0.7 3.84452 0.7 7.17666C0.7 10.5088 4.05361 13.3267 8.35 13.3267C8.95118 13.3267 9.53574 13.2708 10.0963 13.1654L10.2709 13.1326L10.4005 13.2542C11.1665 13.9734 11.7887 14.4154 12.4589 14.7158C12.8935 14.9106 13.3572 15.0499 13.9071 15.163C13.6752 14.8811 13.4828 14.605 13.327 14.3123C13.033 13.7598 12.8804 13.1702 12.8087 12.4054L12.7883 12.1881L12.9745 12.0742C14.8333 10.9372 16 9.15332 16 7.17666C16 3.84452 12.6464 1.02666 8.35 1.02666ZM0 7.17666C0 3.3291 3.80984 0.32666 8.35 0.32666C12.8902 0.32666 16.7 3.3291 16.7 7.17666C16.7 9.37642 15.4422 11.3107 13.5284 12.5525C13.6006 13.1439 13.7312 13.5817 13.9449 13.9834C14.187 14.4381 14.5469 14.8684 15.0997 15.4314L15.8218 16.1668L14.8013 16.0233C13.7534 15.8759 12.9346 15.6961 12.1726 15.3545C11.4494 15.0304 10.7964 14.5692 10.0507 13.8847C9.50131 13.9778 8.93245 14.0267 8.35 14.0267C3.80984 14.0267 0 11.0242 0 7.17666Z" fill="#989898"/>
<path d="M5.34998 7.17664C5.34998 7.45278 5.12612 7.67664 4.84998 7.67664C4.57383 7.67664 4.34998 7.45278 4.34998 7.17664C4.34998 6.90049 4.57383 6.67664 4.84998 6.67664C5.12612 6.67664 5.34998 6.90049 5.34998 7.17664Z" fill="#989898"/>
<path d="M8.84998 7.17664C8.84998 7.45278 8.62612 7.67664 8.34998 7.67664C8.07383 7.67664 7.84998 7.45278 7.84998 7.17664C7.84998 6.90049 8.07383 6.67664 8.34998 6.67664C8.62612 6.67664 8.84998 6.90049 8.84998 7.17664Z" fill="#989898"/>
<path d="M12.35 7.17664C12.35 7.45278 12.1261 7.67664 11.85 7.67664C11.5738 7.67664 11.35 7.45278 11.35 7.17664C11.35 6.90049 11.5738 6.67664 11.85 6.67664C12.1261 6.67664 12.35 6.90049 12.35 7.17664Z" fill="#989898"/>
</svg>
