<svg width="20" height="21" viewBox="0 0 20 21" fill="none" xmlns="http://www.w3.org/2000/svg">
<path fill-rule="evenodd" clip-rule="evenodd" d="M4.4 0.777778C4.17909 0.777778 4 0.951889 4 1.16667V4.27778C4 4.49255 4.17909 4.66667 4.4 4.66667C4.62091 4.66667 4.8 4.49256 4.8 4.27778V1.16667C4.8 0.951889 4.62091 0.777778 4.4 0.777778ZM3.2 1.16667C3.2 0.522335 3.73726 0 4.4 0C5.06274 0 5.6 0.522335 5.6 1.16667V2.33333H14.4V1.16667C14.4 0.522335 14.9373 0 15.6 0C16.2627 0 16.8 0.522335 16.8 1.16667V2.33333H18.8C19.4627 2.33333 20 2.85567 20 3.5V19.8333C20 20.4777 19.4627 21 18.8 21H1.2C0.537259 21 0 20.4777 0 19.8333V3.5C0 2.85567 0.537258 2.33333 1.2 2.33333H3.2V1.16667ZM3.2 3.11111H1.2C0.979086 3.11111 0.8 3.28522 0.8 3.5V6.22222H19.2V3.5C19.2 3.28522 19.0209 3.11111 18.8 3.11111H16.8V4.27778C16.8 4.92211 16.2627 5.44444 15.6 5.44444C14.9373 5.44444 14.4 4.92211 14.4 4.27778V3.11111H5.6V4.27778C5.6 4.92211 5.06274 5.44444 4.4 5.44444C3.73726 5.44444 3.2 4.92211 3.2 4.27778V3.11111ZM19.2 7H0.8V19.8333C0.8 20.0481 0.979086 20.2222 1.2 20.2222H18.8C19.0209 20.2222 19.2 20.0481 19.2 19.8333V7ZM15.6 0.777778C15.3791 0.777778 15.2 0.951889 15.2 1.16667V4.27778C15.2 4.49255 15.3791 4.66667 15.6 4.66667C15.8209 4.66667 16 4.49256 16 4.27778V1.16667C16 0.951889 15.8209 0.777778 15.6 0.777778ZM14.212 9.39245C14.3993 9.50628 14.4563 9.7462 14.3392 9.92833L10.8722 15.3215C10.4632 15.9577 9.55174 16.0586 9.00606 15.5281L6.51716 13.1083C6.36095 12.9564 6.36095 12.7102 6.51716 12.5583C6.67337 12.4065 6.92663 12.4065 7.08284 12.5583L9.57175 14.9781C9.75364 15.155 10.0575 15.1213 10.1938 14.9092L13.6608 9.51611C13.7779 9.33398 14.0247 9.27861 14.212 9.39245Z" fill="#3E3F43"/>
</svg>
