<svg width="16" height="17" viewBox="0 0 16 17" fill="none" xmlns="http://www.w3.org/2000/svg">
<path d="M3.4 0C3.02812 0 2.72 0.308125 2.72 0.68V1.36H0.68C0.316094 1.36 0 1.63359 0 2.02539V15.7104C0 15.9056 0.112891 16.0942 0.249687 16.1912C0.386484 16.2868 0.535234 16.32 0.68 16.32H14.96C15.1048 16.32 15.2535 16.2868 15.3903 16.1912C15.5271 16.0942 15.64 15.9056 15.64 15.7104V2.02539C15.64 1.66945 15.3518 1.36 14.9879 1.36H12.92V0.68C12.92 0.308125 12.6119 0 12.24 0H11.56C11.1881 0 10.88 0.308125 10.88 0.68V1.36H4.76V0.68C4.76 0.308125 4.45187 0 4.08 0H3.4ZM3.4 0.68H4.08V2.72H3.4V0.68ZM11.56 0.68H12.24V2.72H11.56V0.68ZM0.68 2.04H2.72V2.72C2.72 3.09187 3.02812 3.4 3.4 3.4H4.08C4.45187 3.4 4.76 3.09187 4.76 2.72V2.04H10.88V2.72C10.88 3.09187 11.1881 3.4 11.56 3.4H12.24C12.6119 3.4 12.92 3.09187 12.92 2.72V2.04H14.96V4.42H0.68V2.04ZM0.68 5.1H14.96V15.64H0.68V5.1ZM10.4391 7.00984L10.2544 7.29539L7.48531 11.5919L5.66844 9.94765L5.41609 9.72054L4.96055 10.2239L5.21156 10.4523L7.62344 12.6331L10.8255 7.66461L11.0102 7.37906L10.4391 7.00984Z" fill="#989898"/>
</svg>
