<svg width="309" height="654" viewBox="0 0 309 654" fill="none" xmlns="http://www.w3.org/2000/svg">
<g opacity="0.4" filter="url(#filter0_f)">
<path d="M152.209 101.341C168.343 101.341 182.684 108.52 191.647 117.494C202.403 128.263 207.781 142.621 207.781 156.98C207.781 173.133 200.61 187.492 191.647 196.466C180.891 207.235 166.55 212.619 152.209 212.619L96.6382 212.619L96.6382 156.98C96.6382 140.827 103.809 126.468 112.772 117.494C121.735 108.52 136.076 101.341 152.209 101.341ZM211.366 97.7511C197.025 83.3926 175.513 72.6237 152.209 72.6237C128.905 72.6237 107.394 81.5978 93.0529 97.7511C78.7119 112.11 67.9562 133.647 67.9562 156.98L67.9562 241.336L152.209 241.336C175.513 241.336 197.025 232.362 211.366 216.209C225.707 201.85 236.462 180.312 236.462 156.98C236.462 135.442 225.707 113.904 211.366 97.7511Z" fill="white"/>
<path d="M207.781 497.02C207.781 513.173 200.61 527.532 191.647 536.506C180.891 547.275 166.55 552.659 152.209 552.659C136.076 552.659 121.735 545.48 112.772 536.506C102.016 525.737 96.6382 511.379 96.6382 497.02L96.6382 441.381L152.209 441.381C168.343 441.381 182.684 448.56 191.647 457.534C202.403 466.508 207.781 480.867 207.781 497.02ZM211.366 556.249C225.707 541.89 236.462 520.353 236.462 497.02C236.462 473.688 227.499 452.15 211.366 437.791C197.025 423.433 175.513 412.664 152.209 412.664L67.9562 412.664L67.9562 497.02C67.9562 520.353 76.9194 541.89 93.0529 556.249C107.394 570.607 128.905 581.376 152.209 581.376C175.513 581.376 195.232 570.607 211.366 556.249Z" fill="white"/>
<path d="M261.917 286.053C272.737 296.906 278.147 311.375 278.147 325.845C278.147 340.315 272.737 354.785 261.917 365.637C251.097 376.489 236.671 381.916 222.244 381.916C207.817 381.916 193.391 376.489 182.571 365.637L142.898 325.845L182.571 286.053C193.391 275.201 207.817 269.775 222.244 269.775C236.671 269.775 251.097 275.201 261.917 286.053ZM281.754 267.966C265.524 249.879 243.884 242.644 222.244 242.644C200.604 242.644 178.964 251.687 162.735 267.966L103.225 327.654L162.735 387.342C178.964 403.62 200.604 412.664 222.244 412.664C243.884 412.664 265.524 403.62 281.754 387.342C297.983 371.063 307 349.359 307 327.654C307 305.949 297.983 284.245 281.754 267.966Z" fill="white"/>
<path d="M-58.7079 47.1381C-47.9208 36.3049 -33.538 30.8883 -19.1552 30.8883C-4.77238 30.8883 9.6104 36.3049 20.3975 47.1381C31.1846 57.9712 36.5781 72.4154 36.5781 86.8596C36.5781 101.304 31.1846 115.748 20.3975 126.581L-19.1552 166.303L-58.7079 126.581C-69.495 115.748 -74.8885 101.304 -74.8885 86.8596C-74.8885 72.4154 -69.495 57.9712 -58.7079 47.1381ZM-76.6864 27.2773C-92.867 43.527 -101.856 65.1934 -101.856 86.8596C-101.856 108.526 -92.867 130.192 -76.6864 146.442L-28.1444 196.997L-19.1552 206.024L40.1739 146.442C56.3545 130.192 65.3437 108.526 65.3437 86.8596C65.3437 65.1933 56.3545 43.527 40.1739 27.2773C23.9932 11.0276 2.41902 2.00001 -19.1552 2.00001C-38.9315 3.80554 -60.5058 11.0276 -76.6864 27.2773Z" fill="white"/>
<path d="M22.7934 606.862C11.9543 617.695 -2.49789 623.112 -16.95 623.112C-31.4021 623.112 -45.8543 617.695 -56.6934 606.862C-67.5325 596.029 -72.952 581.585 -72.952 567.14C-72.952 552.696 -67.5325 538.252 -56.6934 527.419L-16.95 487.697L22.7934 527.419C33.6325 538.252 39.052 552.696 39.052 567.14C39.052 581.585 33.6325 596.029 22.7934 606.862ZM42.665 626.723C58.9237 610.473 67.9562 588.807 67.9562 567.14C67.9562 545.474 58.9237 523.808 42.665 507.558L-16.95 447.976L-76.565 507.558C-92.8237 523.808 -101.856 545.474 -101.856 567.14C-101.856 588.807 -94.6302 610.473 -76.565 626.723C-60.3064 642.972 -38.6282 652 -16.95 652C4.72818 652 26.4064 642.972 42.665 626.723Z" fill="white"/>
<path d="M77.1 328.308C77.1 303.132 66.2481 279.754 49.9702 261.771C33.6923 245.587 10.1798 234.797 -16.95 234.797C-42.2712 234.797 -65.7837 245.587 -83.8702 261.771C-100.148 277.956 -111 301.334 -111 328.308C-111 353.484 -100.148 376.862 -83.8702 394.845C-67.5923 411.029 -44.0798 421.819 -16.95 421.819C8.37113 421.819 31.8836 411.029 49.9702 394.845C66.2481 376.862 77.1 353.484 77.1 328.308ZM28.2663 281.552C31.454 284.722 34.2977 288.119 36.7686 291.716C41.0307 297.92 44.1835 304.717 46.0787 311.96C47.4486 317.195 48.1615 322.663 48.1615 328.308C48.1615 332.558 47.7575 336.707 46.9732 340.732C45.4247 348.681 42.3938 356.145 38.0644 362.942C35.3086 367.268 32.0268 371.324 28.2663 375.063C25.2588 378.054 22.0471 380.74 18.6555 383.097C12.1767 387.6 5.04142 390.904 -2.58125 392.842C-7.76595 394.159 -13.1762 394.845 -18.7586 394.845C-23.0555 394.845 -27.2503 394.439 -31.3187 393.651C-44.3754 391.122 -56.1309 384.661 -65.7837 375.063C-78.4442 362.475 -85.6789 346.291 -85.6789 328.308C-85.6789 310.325 -78.4443 294.14 -65.7837 281.552C-56.4539 272.276 -45.1597 265.929 -32.625 263.232C-28.1501 262.269 -23.5169 261.771 -18.7587 261.771C-13.542 261.771 -8.57415 262.266 -3.88753 263.222C3.97873 264.828 11.0525 267.736 17.1796 271.792C21.3243 274.536 25.0357 277.805 28.2663 281.552Z" fill="white"/>
<path fill-rule="evenodd" clip-rule="evenodd" d="M137.187 326.346C137.187 335.338 130.017 340.732 122.847 340.732L46.9732 340.732C47.7575 336.707 48.1615 332.558 48.1615 328.308C48.1615 322.663 47.4486 317.195 46.0787 311.96L122.847 311.96C131.81 311.96 137.187 319.153 137.187 326.346ZM88.7576 239.115C94.1141 233.696 94.1141 224.663 88.7575 219.244C83.401 213.824 74.4734 213.824 69.1168 219.244L17.1796 271.792C21.3243 274.536 25.0357 277.805 28.2663 281.552C31.454 284.722 34.2977 288.119 36.7686 291.716L88.7576 239.115ZM-3.88753 187.686C-3.88753 180.507 -9.27578 173.328 -18.2562 173.328C-25.4406 173.328 -32.625 178.712 -32.625 187.686L-32.625 263.232C-28.1501 262.269 -23.5169 261.771 -18.7587 261.771C-13.542 261.771 -8.57415 262.266 -3.88753 263.222L-3.88753 187.686ZM71.5739 436.08C76.9657 441.478 85.9519 441.478 91.3437 436.08C96.7354 430.682 96.7354 421.684 91.3437 416.286L38.0644 362.942C35.3086 367.268 32.0268 371.324 28.2663 375.063C25.2588 378.054 22.0471 380.74 18.6555 383.097L71.5739 436.08ZM-31.3187 468.818C-31.3187 476.053 -25.9305 483.288 -16.95 483.288C-9.76565 483.288 -2.58125 477.862 -2.58125 468.818L-2.58125 392.842C-7.76595 394.159 -13.1762 394.845 -18.7586 394.845C-23.0555 394.845 -27.2503 394.439 -31.3187 393.651L-31.3187 468.818Z" fill="white"/>
</g>
<defs>
<filter id="filter0_f" x="-113" y="0" width="422" height="654" filterUnits="userSpaceOnUse" color-interpolation-filters="sRGB">
<feFlood flood-opacity="0" result="BackgroundImageFix"/>
<feBlend mode="normal" in="SourceGraphic" in2="BackgroundImageFix" result="shape"/>
<feGaussianBlur stdDeviation="1" result="effect1_foregroundBlur"/>
</filter>
</defs>
</svg>
