<svg width="654" height="422" viewBox="0 0 654 422" fill="none" xmlns="http://www.w3.org/2000/svg">
<g filter="url(#filter0_f)">
<path d="M101.341 156.791C101.341 140.657 108.52 126.316 117.494 117.353C128.263 106.597 142.621 101.219 156.98 101.219C173.133 101.219 187.492 108.39 196.466 117.353C207.235 128.109 212.619 142.45 212.619 156.791L212.619 212.362L156.98 212.362C140.827 212.362 126.468 205.191 117.494 196.228C108.52 187.265 101.341 172.924 101.341 156.791ZM97.7511 97.6341C83.3926 111.975 72.6237 133.487 72.6237 156.791C72.6237 180.095 81.5978 201.606 97.7511 215.947C112.11 230.288 133.647 241.044 156.98 241.044L241.336 241.044L241.336 156.791C241.336 133.487 232.362 111.975 216.209 97.6341C201.85 83.2932 180.312 72.5375 156.98 72.5375C135.442 72.5375 113.904 83.2932 97.7511 97.6341Z" fill="#EBEBEB"/>
<path d="M497.02 101.219C513.173 101.219 527.532 108.39 536.506 117.353C547.275 128.109 552.659 142.45 552.659 156.791C552.659 172.924 545.48 187.265 536.506 196.228C525.737 206.984 511.379 212.362 497.02 212.362L441.381 212.362L441.381 156.791C441.381 140.657 448.56 126.316 457.534 117.353C466.508 106.597 480.867 101.219 497.02 101.219ZM556.249 97.6342C541.89 83.2932 520.353 72.5375 497.02 72.5375C473.688 72.5375 452.15 81.5006 437.791 97.6342C423.433 111.975 412.664 133.487 412.664 156.791L412.664 241.044L497.02 241.044C520.353 241.044 541.89 232.081 556.249 215.947C570.607 201.606 581.376 180.095 581.376 156.791C581.376 133.487 570.607 113.768 556.249 97.6342Z" fill="#EBEBEB"/>
<path d="M286.053 47.0829C296.906 36.263 311.375 30.8531 325.845 30.8531C340.315 30.8531 354.785 36.263 365.637 47.0829C376.489 57.9029 381.916 72.3294 381.916 86.7559C381.916 101.182 376.489 115.609 365.637 126.429L325.845 166.102L286.053 126.429C275.201 115.609 269.775 101.182 269.775 86.7559C269.775 72.3294 275.201 57.9028 286.053 47.0829ZM267.966 27.2464C249.879 43.4763 242.644 65.1161 242.644 86.7559C242.644 108.396 251.687 130.036 267.966 146.265L327.654 205.775L387.342 146.265C403.62 130.036 412.664 108.396 412.664 86.7559C412.664 65.1161 403.62 43.4763 387.342 27.2464C371.063 11.0166 349.359 1.99997 327.654 1.99997C305.949 1.99997 284.245 11.0166 267.966 27.2464Z" fill="#EBEBEB"/>
<path d="M47.138 367.708C36.3049 356.921 30.8883 342.538 30.8883 328.155C30.8883 313.772 36.3049 299.39 47.138 288.602C57.9712 277.815 72.4154 272.422 86.8596 272.422C101.304 272.422 115.748 277.815 126.581 288.602L166.303 328.155L126.581 367.708C115.748 378.495 101.304 383.888 86.8596 383.888C72.4154 383.888 57.9712 378.495 47.138 367.708ZM27.2772 385.686C43.5269 401.867 65.1933 410.856 86.8596 410.856C108.526 410.856 130.192 401.867 146.442 385.686L196.997 337.144L206.024 328.155L146.442 268.826C130.192 252.645 108.526 243.656 86.8596 243.656C65.1933 243.656 43.527 252.645 27.2773 268.826C11.0276 285.007 1.99997 306.581 1.99997 328.155C3.80551 347.931 11.0276 369.506 27.2772 385.686Z" fill="#EBEBEB"/>
<path d="M606.862 286.207C617.695 297.046 623.112 311.498 623.112 325.95C623.112 340.402 617.695 354.854 606.862 365.693C596.029 376.532 581.585 381.952 567.14 381.952C552.696 381.952 538.252 376.532 527.419 365.693L487.697 325.95L527.419 286.207C538.252 275.368 552.696 269.948 567.14 269.948C581.585 269.948 596.029 275.368 606.862 286.207ZM626.723 266.335C610.473 250.076 588.807 241.044 567.14 241.044C545.474 241.044 523.808 250.076 507.558 266.335L447.976 325.95L507.558 385.565C523.808 401.824 545.474 410.856 567.14 410.856C588.807 410.856 610.473 403.63 626.723 385.565C642.972 369.306 652 347.628 652 325.95C652 304.272 642.972 282.594 626.723 266.335Z" fill="#EBEBEB"/>
<path d="M328.308 231.9C303.132 231.9 279.754 242.752 261.771 259.03C245.586 275.308 234.797 298.82 234.797 325.95C234.797 351.271 245.586 374.784 261.771 392.87C277.956 409.148 301.333 420 328.308 420C353.484 420 376.862 409.148 394.845 392.87C411.029 376.592 421.819 353.08 421.819 325.95C421.819 300.629 411.029 277.116 394.845 259.03C376.862 242.752 353.484 231.9 328.308 231.9ZM281.552 280.734C284.722 277.546 288.119 274.702 291.716 272.231C297.92 267.969 304.717 264.816 311.96 262.921C317.195 261.551 322.663 260.838 328.308 260.838C332.558 260.838 336.707 261.242 340.732 262.027C348.68 263.575 356.145 266.606 362.942 270.936C367.268 273.691 371.324 276.973 375.063 280.734C378.054 283.741 380.74 286.953 383.097 290.344C387.6 296.823 390.904 303.959 392.842 311.581C394.159 316.766 394.845 322.176 394.845 327.759C394.845 332.055 394.439 336.25 393.651 340.319C391.122 353.375 384.661 365.131 375.063 374.784C362.475 387.444 346.291 394.679 328.308 394.679C310.325 394.679 294.14 387.444 281.552 374.784C272.276 365.454 265.929 354.16 263.232 341.625C262.269 337.15 261.771 332.517 261.771 327.759C261.771 322.542 262.266 317.574 263.222 312.887C264.828 305.021 267.736 297.947 271.792 291.82C274.536 287.676 277.805 283.964 281.552 280.734Z" fill="#EBEBEB"/>
<path fill-rule="evenodd" clip-rule="evenodd" d="M326.346 171.812C335.338 171.812 340.732 178.983 340.732 186.153L340.732 262.027C336.707 261.242 332.558 260.838 328.308 260.838C322.663 260.838 317.195 261.551 311.96 262.921L311.96 186.153C311.96 177.19 319.153 171.812 326.346 171.812ZM239.115 220.242C233.696 214.886 224.663 214.886 219.244 220.242C213.824 225.599 213.824 234.527 219.244 239.883L271.792 291.82C274.536 287.676 277.805 283.964 281.552 280.734C284.722 277.546 288.119 274.702 291.716 272.231L239.115 220.242ZM187.686 312.887C180.507 312.887 173.328 318.276 173.328 327.256C173.328 334.441 178.712 341.625 187.686 341.625L263.232 341.625C262.269 337.15 261.771 332.517 261.771 327.759C261.771 322.542 262.266 317.574 263.222 312.887L187.686 312.887ZM436.08 237.426C441.478 232.034 441.478 223.048 436.08 217.656C430.682 212.265 421.684 212.265 416.286 217.656L362.942 270.936C367.268 273.691 371.324 276.973 375.063 280.734C378.054 283.741 380.74 286.953 383.097 290.344L436.08 237.426ZM468.818 340.319C476.053 340.319 483.288 334.93 483.288 325.95C483.288 318.766 477.862 311.581 468.818 311.581L392.842 311.581C394.159 316.766 394.845 322.176 394.845 327.759C394.845 332.055 394.439 336.25 393.651 340.319L468.818 340.319Z" fill="#EBEBEB"/>
</g>
<defs>
<filter id="filter0_f" x="0" y="0" width="654" height="422" filterUnits="userSpaceOnUse" color-interpolation-filters="sRGB">
<feFlood flood-opacity="0" result="BackgroundImageFix"/>
<feBlend mode="normal" in="SourceGraphic" in2="BackgroundImageFix" result="shape"/>
<feGaussianBlur stdDeviation="1" result="effect1_foregroundBlur"/>
</filter>
</defs>
</svg>
