<svg width="9" height="15" viewBox="0 0 9 15" fill="none" xmlns="http://www.w3.org/2000/svg">
<path d="M7.9302 0.891423L6.06467 0.888672C3.9688 0.888672 2.61436 2.16587 2.61436 4.14268V5.64299H0.73865C0.576566 5.64299 0.445312 5.76377 0.445312 5.91274V8.08652C0.445312 8.2355 0.576716 8.35613 0.73865 8.35613H2.61436V13.8413C2.61436 13.9903 2.74562 14.1109 2.9077 14.1109H5.35497C5.51705 14.1109 5.64831 13.9901 5.64831 13.8413V8.35613H7.84145C8.00354 8.35613 8.13479 8.2355 8.13479 8.08652L8.13569 5.91274C8.13569 5.84121 8.10471 5.77271 8.04978 5.72209C7.99486 5.67147 7.92002 5.64299 7.8422 5.64299H5.64831V4.37116C5.64831 3.75986 5.8068 3.44954 6.67319 3.44954L7.9299 3.44913C8.09184 3.44913 8.22309 3.32835 8.22309 3.17952V1.16103C8.22309 1.01233 8.09199 0.891698 7.9302 0.891423Z" fill="white"/>
</svg>
