<svg width="66" height="66" viewBox="0 0 66 66" fill="none" xmlns="http://www.w3.org/2000/svg">
<circle cx="32.9995" cy="33" r="32.5366" fill="white"/>
<path d="M33.5586 15.0488C30.724 15.0488 28.3938 17.3141 28.3938 20.0749H24.5681L24.4986 20.7035L22.4938 37.9334L22.3994 38.7408H44.7177L44.6233 37.9334L42.6185 20.7035L42.549 20.0749H38.7233C38.7233 17.3141 36.3931 15.0488 33.5586 15.0488ZM33.5586 16.4849C35.5907 16.4849 37.2476 18.0974 37.2476 20.0749H29.8695C29.8695 18.0974 31.5265 16.4849 33.5586 16.4849ZM25.8823 21.5109H28.3938V22.4296C27.9541 22.6786 27.656 23.1331 27.656 23.665C27.656 24.4579 28.3168 25.0986 29.1317 25.0986C29.949 25.0986 30.6073 24.4579 30.6073 23.665C30.6073 23.1331 30.3117 22.6786 29.8695 22.4296V21.5109H37.2476V22.4296C36.8054 22.6786 36.5098 23.1331 36.5098 23.665C36.5098 24.4579 37.1681 25.0986 37.9854 25.0986C38.8003 25.0986 39.4611 24.4579 39.4611 23.665C39.4611 23.1331 39.163 22.6786 38.7233 22.4296V21.5109H41.2348L43.0558 37.3048H24.0613L25.8823 21.5109ZM20.9014 34.2756C20.8393 34.2901 20.7747 34.3119 20.7176 34.3433L15.7392 36.5868C15.7143 36.5916 15.692 36.6013 15.6696 36.6085L15.6001 36.6303C15.5255 36.6496 15.456 36.6811 15.3914 36.7198C15.379 36.727 15.3616 36.7343 15.3467 36.7439C15.3467 36.7512 15.3467 36.7584 15.3467 36.7657C15.0659 36.9688 14.9715 37.3314 15.1156 37.6408V40.1768C15.1131 40.4331 15.2547 40.6749 15.4833 40.803L33.1909 50.8552C33.417 50.9833 33.7002 50.9833 33.9262 50.8552L51.6338 40.803C51.8624 40.6749 52.004 40.4331 52.0015 40.1768V37.6626C52.1629 37.3314 52.0437 36.9373 51.7257 36.7439C51.676 36.7077 51.6214 36.6762 51.5642 36.6545L51.5394 36.6303C51.4972 36.611 51.4475 36.5965 51.4028 36.5868L46.3995 34.3433C46.2927 34.2925 46.171 34.2708 46.0542 34.2756C45.6965 34.278 45.3934 34.527 45.3313 34.8679C45.2692 35.2088 45.4655 35.5448 45.8008 35.6657L49.6489 37.3725L33.5586 46.5253L17.4682 37.3725L21.3163 35.6657C21.679 35.5497 21.8926 35.1774 21.8007 34.8171C21.7113 34.4521 21.351 34.2176 20.971 34.2756C20.9486 34.2756 20.9262 34.2756 20.9014 34.2756ZM16.5913 38.5595L33.1909 47.9831C33.417 48.1113 33.7002 48.1113 33.9262 47.9831L50.5258 38.5595V39.7489L33.5586 49.3974L16.5913 39.7489V38.5595Z" fill="#64BC2A"/>
</svg>
