<svg width="21" height="29" viewBox="0 0 21 29" fill="none" xmlns="http://www.w3.org/2000/svg">
<path d="M10.4459 0.563133C10.4207 0.566279 10.3955 0.572573 10.3735 0.578866C10.1029 0.6418 9.91406 0.884096 9.92036 1.16101V18.8864L6.27648 15.2425C6.13487 15.0977 5.93034 15.038 5.7321 15.0789C5.51497 15.1198 5.34191 15.2771 5.27897 15.4879C5.21918 15.7019 5.28212 15.9285 5.4426 16.0764L10.084 20.7178L10.4993 21.1142L10.9147 20.7178L15.5561 16.0764C15.7858 15.8467 15.7858 15.4754 15.5561 15.2425C15.3264 15.0128 14.9551 15.0128 14.7222 15.2425L11.0783 18.8864V1.16101C11.0846 0.991084 11.0186 0.830602 10.899 0.717321C10.7763 0.60404 10.6095 0.547399 10.4459 0.563133ZM0.0585938 9.2795V28.9999H20.9401V9.2795H15.1407C14.9299 9.27635 14.7348 9.38648 14.631 9.56899C14.524 9.74835 14.524 9.97177 14.631 10.1511C14.7348 10.3336 14.9299 10.4406 15.1407 10.4406H19.779V27.8387H1.21973V10.4406H5.85796C6.06879 10.4406 6.26389 10.3336 6.36773 10.1511C6.47472 9.97177 6.47472 9.74835 6.36773 9.56899C6.26389 9.38648 6.06879 9.27635 5.85796 9.2795H0.0585938Z" fill="#64BC2A"/>
</svg>
