<svg width="66" height="66" viewBox="0 0 66 66" fill="none" xmlns="http://www.w3.org/2000/svg">
<circle cx="32.9995" cy="33" r="32.5366" fill="white"/>
<path d="M29.4988 13.9298C28.3791 13.9619 27.2984 14.5212 26.6844 15.5034L26.4677 15.8513C26.1566 16.3438 25.6093 16.6489 25.0092 16.6622L24.5869 16.6703C22.7755 16.7077 21.2975 18.1262 21.2614 19.8738L21.253 20.2779C21.2392 20.856 20.9224 21.3832 20.4112 21.6829L20.0501 21.8944C18.4998 22.7963 17.9581 24.7393 18.8304 26.2701H18.8332L19.036 26.626C19.325 27.1319 19.325 27.742 19.036 28.2479L18.8332 28.6011C17.9609 30.132 18.4998 32.0749 20.0529 32.9768L20.4112 33.1883C20.9252 33.488 21.2419 34.0152 21.253 34.5906V34.5933L21.2642 35.0001C21.2947 36.4105 22.2699 37.5961 23.6006 38.0216L19.3139 46.9711C19.1944 47.2173 19.2166 47.5037 19.3666 47.7312C19.5194 47.9613 19.7806 48.0978 20.064 48.0978H25.4426L28.4931 51.775C28.6736 51.9918 28.9598 52.1015 29.2459 52.0667C29.5321 52.0293 29.7794 51.85 29.8933 51.5957L32.4631 45.9381L35.033 51.5957C35.1496 51.85 35.3941 52.0293 35.6831 52.0667C35.9692 52.1015 36.2526 51.9918 36.4332 51.775L39.4864 48.0978H44.865C45.1456 48.0978 45.4096 47.9613 45.5596 47.7312C45.7124 47.5037 45.7318 47.2173 45.6152 46.9711L41.3228 38.0083C42.6286 37.572 43.5843 36.3945 43.6148 35.0001V34.9974L43.6232 34.5933V34.5906C43.6371 34.0152 43.9538 33.4853 44.465 33.1883L44.8289 32.9768C46.3792 32.0723 46.9181 30.132 46.0458 28.6011H46.043L45.8374 28.2425C45.5485 27.7367 45.5485 27.1292 45.8374 26.626L46.043 26.2701V26.2674C46.9154 24.7393 46.3764 22.799 44.8261 21.8944L44.8234 21.8917L44.465 21.6829C43.951 21.3832 43.6343 20.856 43.6232 20.2779L43.6121 19.8738V19.8711C43.5759 18.1262 42.1007 16.7051 40.2893 16.6676L39.867 16.6596C39.2669 16.6462 38.7196 16.3411 38.4085 15.8487L38.1918 15.5007C37.2527 14.0074 35.2358 13.4882 33.6494 14.3285L33.2771 14.5239C32.752 14.8022 32.1186 14.8022 31.5963 14.5239L31.2268 14.3285C30.8295 14.1198 30.4072 13.994 29.9794 13.9485C29.8183 13.9298 29.6599 13.9244 29.4988 13.9298ZM29.4571 15.5141C29.7821 15.49 30.1211 15.5569 30.4322 15.7229L30.799 15.9182C31.8186 16.4588 33.0577 16.4588 34.0745 15.9182L34.444 15.7202V15.7229C35.2719 15.284 36.2915 15.5462 36.7804 16.325L36.9971 16.6729C37.6 17.6284 38.6696 18.2252 39.8309 18.2493L40.256 18.2573C41.2006 18.276 41.9451 18.9933 41.9646 19.9032V19.9059L41.9729 20.3127C41.9951 21.4314 42.6175 22.4617 43.6093 23.0425L43.9705 23.2539C44.7789 23.7249 45.0512 24.7045 44.5983 25.502L44.3927 25.8579C43.8315 26.8401 43.8315 28.0311 44.3927 29.0133H44.3955V29.016L44.5983 29.3665C45.054 30.1641 44.7789 31.1463 43.9732 31.6173L43.6121 31.8287C42.6175 32.4068 41.9979 33.4398 41.9729 34.5585L41.9674 34.9653C41.9479 35.8779 41.2006 36.5925 40.256 36.6112L39.8337 36.6219C38.6724 36.646 37.6 37.2402 36.9999 38.1956V38.1983L36.7804 38.5462C36.2915 39.325 35.2747 39.5873 34.4468 39.1483V39.151L34.0773 38.953C33.0577 38.4124 31.8186 38.4124 30.8017 38.953L30.4322 39.151V39.1483C29.6043 39.5873 28.5847 39.325 28.0958 38.5462L27.8791 38.1983C27.2762 37.2402 26.2066 36.646 25.0453 36.6219H25.0425L24.6202 36.6112C23.6756 36.5925 22.9311 35.8779 22.9116 34.9653L22.9033 34.5585C22.8811 33.4398 22.2588 32.4068 21.2669 31.8287L20.9058 31.6173C20.0973 31.1463 19.8223 30.1641 20.2779 29.3665L20.4807 29.0133C21.0419 28.0311 21.0419 26.8375 20.4807 25.8579L20.2779 25.502C19.825 24.7045 20.0973 23.7249 20.903 23.2539L21.2642 23.0425C22.2588 22.4644 22.8783 21.4314 22.9033 20.3127L22.9116 19.9059C22.9311 18.996 23.6756 18.276 24.6202 18.2573L25.0425 18.2493C26.2066 18.2279 27.2762 17.6311 27.8791 16.6729L28.0958 16.325C28.3403 15.937 28.7181 15.6747 29.1376 15.5676C29.2404 15.5382 29.3487 15.5221 29.4571 15.5141ZM38.4474 21.9399L31.6491 32.1766L26.1844 27.4396L25.0786 28.6225L31.9908 34.6121L39.8365 22.7963L38.4474 21.9399ZM39.617 38.2464L43.5732 46.5081H39.0891C38.8391 46.5081 38.603 46.6178 38.4446 46.8079L35.997 49.7544L33.366 43.9523L34.7524 40.8933C36.0803 41.094 37.4611 40.532 38.1918 39.3678L38.4113 39.0199C38.678 38.597 39.1197 38.3267 39.617 38.2464ZM25.3092 38.2518C25.7843 38.3428 26.2094 38.6131 26.4677 39.0199L26.6844 39.3678C27.6235 40.8612 29.6405 41.383 31.2268 40.5427V40.54L31.5991 40.3446C32.1019 40.077 32.702 40.0743 33.216 40.3206L28.9292 49.7544L26.4816 46.8079C26.3261 46.6178 26.0899 46.5081 25.8371 46.5081H21.3531L25.3092 38.2518Z" fill="#64BC2A"/>
</svg>
