<svg width="22" height="12" viewBox="0 0 22 12" fill="none" xmlns="http://www.w3.org/2000/svg">
<path opacity="0.7" d="M11.0002 0.279785C5.13408 0.279785 0.550176 5.71103 0.550176 5.71103C0.405801 5.87603 0.405801 6.12353 0.550176 6.28853C0.550176 6.28853 5.13408 11.7198 11.0002 11.7198C16.8663 11.7198 21.4502 6.28853 21.4502 6.28853C21.5946 6.12353 21.5946 5.87603 21.4502 5.71103C21.4502 5.71103 16.8663 0.279785 11.0002 0.279785ZM11.0002 1.15979C12.1569 1.15979 13.2621 1.39869 14.2864 1.76479C14.9739 2.54166 15.4002 3.55744 15.4002 4.67978C15.4002 7.11525 13.4356 9.07978 11.0002 9.07978C8.56471 9.07978 6.60018 7.11525 6.60018 4.67978C6.60018 3.55744 7.01268 2.54166 7.70018 1.76479C8.72799 1.39697 9.84002 1.15979 11.0002 1.15979ZM6.24268 2.41104C5.91268 3.09853 5.72018 3.86853 5.72018 4.67978C5.72018 7.59135 8.08861 9.95978 11.0002 9.95978C13.9117 9.95978 16.2802 7.59135 16.2802 4.67978C16.2802 3.87197 16.0963 3.09853 15.7714 2.41104C18.2567 3.67432 20.0442 5.5065 20.5014 5.99978C19.7864 6.77322 15.8281 10.8398 11.0002 10.8398C6.17221 10.8398 2.21393 6.77322 1.49893 5.99978C1.95611 5.50478 3.75221 3.67432 6.24268 2.41104ZM11.0002 2.47978C9.79018 2.47978 8.80018 3.46978 8.80018 4.67978C8.80018 5.88978 9.79018 6.87978 11.0002 6.87978C12.2102 6.87978 13.2002 5.88978 13.2002 4.67978C13.2002 3.46978 12.2102 2.47978 11.0002 2.47978ZM11.0002 3.35978C11.7341 3.35978 12.3202 3.94588 12.3202 4.67978C12.3202 5.41369 11.7341 5.99978 11.0002 5.99978C10.2663 5.99978 9.68018 5.41369 9.68018 4.67978C9.68018 3.94588 10.2663 3.35978 11.0002 3.35978Z" fill="#3E3F43"/>
</svg>
