<svg width="22" height="25" viewBox="0 0 22 25" fill="none" xmlns="http://www.w3.org/2000/svg">
<path fill-rule="evenodd" clip-rule="evenodd" d="M0 25L1.72549 5.70175H5.82353V5.26316C5.82353 2.3564 8.14111 0 11 0C13.8589 0 16.1765 2.3564 16.1765 5.26316V5.70175H20.2745L22 25H0ZM2.67094 6.75439L1.13368 23.9474H20.8663L19.3291 6.75439H16.1765V8.05078C16.4362 8.22295 16.6078 8.52092 16.6078 8.85965C16.6078 9.39256 16.183 9.82456 15.6588 9.82456C15.1347 9.82456 14.7098 9.39256 14.7098 8.85965C14.7098 8.52092 14.8815 8.22295 15.1412 8.05078V6.75439H6.85882V8.05078C7.11853 8.22295 7.2902 8.52092 7.2902 8.85965C7.2902 9.39256 6.86531 9.82456 6.34118 9.82456C5.81705 9.82456 5.39216 9.39256 5.39216 8.85965C5.39216 8.52092 5.56383 8.22295 5.82353 8.05078V6.75439H2.67094ZM11 1.05263C8.71289 1.05263 6.85882 2.93775 6.85882 5.26316V5.70175H15.1412V5.26316C15.1412 2.93775 13.2871 1.05263 11 1.05263Z" fill="#3E3F43"/>
</svg>
