<svg width="93" height="87" viewBox="0 0 93 87" fill="none" xmlns="http://www.w3.org/2000/svg">
<path fill-rule="evenodd" clip-rule="evenodd" d="M43.8632 4C21.8309 4 4 21.7011 4 43.5C4 65.2989 21.8309 83 43.8632 83C61.9385 83 77.1949 71.0811 82.0841 54.7589C82.4011 53.7008 83.5158 53.1 84.5739 53.4169C85.632 53.7339 86.2328 54.8486 85.9159 55.9067C80.5278 73.8943 63.734 87 43.8632 87C19.6547 87 0 67.5408 0 43.5C0 19.4592 19.6547 0 43.8632 0C59.6216 0 73.4438 8.24357 81.176 20.6208C81.7612 21.5576 81.4762 22.7914 80.5395 23.3766C79.6027 23.9619 78.3688 23.6769 77.7836 22.7401C70.7573 11.493 58.1959 4 43.8632 4ZM92.3351 27.5109C93.1575 28.2482 93.2265 29.5127 92.4891 30.3351L65.0916 60.8939L50.5983 46.6528C49.8104 45.8786 49.7993 44.6123 50.5734 43.8244C51.3476 43.0366 52.6139 43.0255 53.4017 43.7996L64.9084 55.1061L89.5109 27.6649C90.2482 26.8425 91.5127 26.7735 92.3351 27.5109Z" fill="#64BC2A"/>
</svg>
