<svg width="66" height="66" viewBox="0 0 66 66" fill="none" xmlns="http://www.w3.org/2000/svg">
<circle cx="32.9995" cy="33" r="32.5366" fill="white"/>
<path d="M32.9787 13.9303C32.9431 13.9358 32.9103 13.944 32.8775 13.9549C32.4997 14.0396 32.2342 14.3782 32.2424 14.766V18.0106C32.2396 18.3001 32.3929 18.5732 32.6448 18.7234C32.8993 18.8682 33.2114 18.8682 33.466 18.7234C33.7178 18.5732 33.8711 18.3001 33.8684 18.0106V14.766C33.8766 14.5312 33.7835 14.3072 33.6138 14.1488C33.4441 13.9877 33.2114 13.9085 32.9787 13.9303ZM20.8876 18.9228C20.8629 18.9283 20.8355 18.9392 20.8109 18.9474C20.518 19.0075 20.2826 19.226 20.1977 19.5127C20.1129 19.7968 20.1922 20.1081 20.4058 20.3157L22.7161 22.6235C22.9132 22.8638 23.228 22.9731 23.5319 22.9048C23.833 22.8338 24.0712 22.5962 24.1423 22.2957C24.2108 21.9926 24.1013 21.6785 23.8604 21.4819L21.5473 19.1768C21.394 19.0129 21.1859 18.9255 20.9642 18.9228C20.9368 18.9228 20.9122 18.9228 20.8876 18.9228ZM45.0453 18.9228C45.0097 18.9283 44.9768 18.9392 44.944 18.9474C44.7989 18.9856 44.6675 19.0648 44.5635 19.1768L42.2504 21.4819C42.0095 21.6785 41.9 21.9926 41.9684 22.2957C42.0396 22.5962 42.2778 22.8338 42.5789 22.9048C42.8827 22.9731 43.1975 22.8638 43.3946 22.6235L45.705 20.3157C45.9596 20.0753 46.0335 19.6984 45.8829 19.3816C45.7324 19.0621 45.3957 18.8791 45.0453 18.9228ZM33.0554 20.444C26.7812 20.444 21.6759 25.5376 21.6759 31.7973C21.6759 35.7629 23.4553 38.4284 25.1306 40.3894C25.9682 41.3671 26.7785 42.1974 27.3397 42.9239C27.9008 43.6503 28.1773 44.2293 28.1773 44.7728V47.6378C28.0705 47.8617 28.0705 48.1239 28.1773 48.3479V48.8285C28.1773 50.164 29.2805 51.262 30.6163 51.262H31.2514C31.7004 51.7563 32.3382 52.0731 33.0554 52.0731C33.7726 52.0731 34.4104 51.7563 34.8593 51.262H35.4944C36.8303 51.262 37.9335 50.164 37.9335 48.8285V48.1703C37.9554 48.0638 37.9554 47.9491 37.9335 47.8399V44.7728C37.9335 44.2293 38.2099 43.6421 38.7711 42.9239C39.3323 42.2056 40.1426 41.3917 40.9802 40.414C42.6555 38.4639 44.4348 35.7984 44.4348 31.7973C44.4348 25.5376 39.3295 20.444 33.0554 20.444ZM33.0554 22.0663C38.4536 22.0663 42.8115 26.4115 42.8115 31.7973C42.8115 35.3341 41.3388 37.5381 39.7621 39.3761C38.9737 40.2938 38.1579 41.0967 37.501 41.9352C37.0192 42.5524 36.6715 43.227 36.4854 43.9617H29.6254C29.4393 43.227 29.0916 42.5552 28.6098 41.9352C27.9528 41.0885 27.1371 40.2747 26.3487 39.3516C24.7719 37.5026 23.2992 35.2958 23.2992 31.7973C23.2992 26.4115 27.6572 22.0663 33.0554 22.0663ZM15.7549 30.9861C15.3087 31.049 14.9939 31.4641 15.0568 31.912C15.1198 32.3572 15.5359 32.6712 15.9848 32.6084H19.2369C19.5271 32.6112 19.8008 32.4609 19.9514 32.207C20.0964 31.953 20.0964 31.6416 19.9514 31.3876C19.8008 31.1364 19.5271 30.9834 19.2369 30.9861H15.9848C15.9602 30.9861 15.9328 30.9861 15.9082 30.9861C15.8835 30.9861 15.8562 30.9861 15.8315 30.9861C15.8069 30.9861 15.7823 30.9861 15.7549 30.9861ZM46.6467 30.9861C46.1977 31.049 45.8829 31.4641 45.9486 31.912C46.0116 32.3572 46.4277 32.6712 46.8739 32.6084H50.1259C50.4188 32.6112 50.6926 32.4609 50.8404 32.207C50.9882 31.953 50.9882 31.6416 50.8404 31.3876C50.6926 31.1364 50.4188 30.9834 50.1259 30.9861H46.8739C46.8492 30.9861 46.8246 30.9861 46.7972 30.9861C46.7726 30.9861 46.748 30.9861 46.7233 30.9861C46.6959 30.9861 46.6713 30.9861 46.6467 30.9861ZM23.1979 40.7198C23.0145 40.7444 22.8421 40.8373 22.7161 40.9711L20.4058 43.2789C20.1621 43.4755 20.0526 43.7896 20.1211 44.0928C20.1922 44.3932 20.4304 44.6308 20.7315 44.7018C21.0354 44.7701 21.3502 44.6608 21.5473 44.4205L23.8604 42.1127C24.1013 41.8806 24.1725 41.5228 24.0438 41.2169C23.9179 40.9083 23.6085 40.7117 23.2746 40.7198C23.2499 40.7198 23.2253 40.7198 23.1979 40.7198ZM42.6583 40.7198C42.3517 40.7717 42.108 40.9957 42.0232 41.2879C41.9383 41.5856 42.0259 41.9024 42.2504 42.1127L44.5635 44.4205C44.7606 44.6608 45.0754 44.7701 45.3792 44.7018C45.6804 44.6308 45.9185 44.3932 45.9897 44.0928C46.0581 43.7896 45.9486 43.4755 45.705 43.2789L43.3946 40.9711C43.2413 40.81 43.0333 40.7226 42.8115 40.7198C42.7842 40.7198 42.7595 40.7198 42.7349 40.7198C42.7075 40.7198 42.6829 40.7198 42.6583 40.7198ZM29.8033 45.584H36.3074V47.2062H32.2424C32.2177 47.2062 32.1904 47.2062 32.1657 47.2062C32.1411 47.2062 32.1164 47.2062 32.0891 47.2062C31.6429 47.2472 31.3116 47.6487 31.3527 48.0939C31.3938 48.5418 31.7934 48.8695 32.2424 48.8285H36.3074C36.3074 49.2874 35.9543 49.6397 35.4944 49.6397H30.6163C30.1565 49.6397 29.8033 49.2874 29.8033 48.8285C30.0962 48.8313 30.37 48.681 30.5178 48.4271C30.6656 48.1731 30.6656 47.8617 30.5178 47.6105C30.37 47.3565 30.0962 47.2035 29.8033 47.2062V45.584Z" fill="#64BC2A"/>
</svg>
