<svg width="66" height="66" viewBox="0 0 66 66" fill="none" xmlns="http://www.w3.org/2000/svg">
<circle cx="32.9995" cy="33" r="32.5366" fill="white"/>
<path d="M31.351 16.1707C26.5128 16.1707 22.9462 17.7944 20.6399 20.3385C18.3336 22.8848 17.292 26.2945 17.292 29.8357C17.292 32.7041 18.2118 35.3775 19.7607 37.5644C21.1629 39.5454 21.9791 41.8791 21.9791 44.2742V48.7072H23.3182V44.2742C23.3182 41.6162 22.4074 39.0414 20.8901 36.872L20.8496 36.8106C19.4495 34.834 18.6312 32.4346 18.6312 29.8357C18.6312 26.5443 19.5983 23.448 21.6431 21.1931C23.688 18.9383 26.8172 17.4723 31.351 17.4723C35.905 17.4723 38.8584 18.7564 40.8085 20.7264C42.7564 22.6964 43.7123 25.4158 44.0708 28.3522L44.0933 28.4946L44.1542 28.5954L47.315 33.8633H47.2924C47.4615 34.1547 47.3781 34.4374 47.085 34.5952V34.6149L44.0708 36.0787V39.9836C44.0708 42.4182 42.0057 44.318 39.5099 44.0901H39.4896L37.4178 43.9477L36.7076 43.9083V48.7072H38.0468V45.291L39.3859 45.3918C39.3927 45.3918 39.3972 45.3918 39.4062 45.3918C42.6595 45.6745 45.4099 43.1369 45.4099 39.9836V36.872L47.7118 35.7544H47.732L47.7546 35.7325C48.6654 35.2394 48.9675 34.1109 48.4647 33.2322V33.2125L45.3693 28.0059C44.9703 24.9578 43.9423 22.0302 41.7712 19.8301C39.5505 17.5862 36.171 16.1707 31.351 16.1707ZM29.1123 20.0756L29.0085 20.6234L28.6726 22.5561C28.3615 22.6482 28.0617 22.7753 27.7731 22.9221L26.1206 21.7629L25.6606 21.4386L25.2638 21.8242L23.8413 23.1872L23.4422 23.5926L23.7781 24.0397L24.9708 25.6459C24.8287 25.911 24.7025 26.2047 24.5943 26.5224L22.5224 26.9278L21.9791 27.0308V30.0592L22.5427 30.1622L24.5311 30.4865C24.6416 30.8042 24.7656 31.0979 24.9076 31.3608L23.715 32.9671L23.3791 33.4141L23.7781 33.8019L25.1782 35.1847L25.5975 35.5703L26.0574 35.246L27.71 34.0868C27.9828 34.2227 28.2826 34.3454 28.6095 34.4528L28.9454 36.3833L29.0491 36.9333H32.1874L32.2708 36.3833L32.627 34.3914C32.9404 34.2818 33.2425 34.1613 33.5265 34.0255L35.2422 35.1847L35.7021 35.4893L36.1012 35.1036L37.5237 33.7406L37.9205 33.3549L37.5869 32.9057L36.3942 31.2995C36.5318 31.0409 36.6603 30.756 36.7707 30.447L38.7998 30.1622L39.3859 30.0811V27.0089L38.8201 26.9081L36.7707 26.5816C36.6738 26.2879 36.5498 25.9877 36.3942 25.6875L37.5869 24.0199L37.9205 23.5729L37.5237 23.1872L36.1012 21.8242L35.7021 21.4386L35.2422 21.7629L33.5897 22.9221C33.3169 22.784 33.017 22.6635 32.6901 22.5561L32.3565 20.6234L32.2505 20.0756H29.1123ZM30.2418 21.3772H31.121L31.4344 23.104L31.4975 23.5532L31.9371 23.6343C32.4354 23.7394 32.9156 23.9761 33.3597 24.2237L33.7362 24.4275L34.0924 24.1821L35.5781 23.1456L36.162 23.7351L35.0957 25.2405L34.8251 25.5867L35.0754 25.9527C35.3684 26.4063 35.5398 26.8643 35.6615 27.3354L35.7652 27.7408L36.2049 27.8021L38.0468 28.1067V28.9416L35.7449 29.2462L35.6615 29.6932C35.5511 30.1797 35.3076 30.6443 35.0551 31.0759L34.8454 31.4419L35.0957 31.7881L36.162 33.2125L35.5556 33.8019L34.009 32.7435L33.6934 32.52L33.3169 32.7041C32.7826 32.9627 32.2866 33.2081 31.8537 33.3133L31.4344 33.4141L31.351 33.8217L31.0376 35.6317H30.1786L29.8653 33.883L29.8021 33.4557L29.3625 33.3746C28.8643 33.2673 28.3863 33.0306 27.9399 32.7852L27.5634 32.5814L27.2095 32.8246L25.7441 33.8633L25.1376 33.2936L26.204 31.8495L26.4565 31.5033L26.2468 31.1373C25.992 30.7056 25.7486 30.2411 25.6403 29.7546L25.5569 29.3273L25.0948 29.2659L23.3182 28.9613V28.087L25.1782 27.7408L25.6178 27.6597L25.7012 27.2543C25.8117 26.7678 26.0552 26.3033 26.3099 25.8716L26.5173 25.5056L26.2671 25.1594L25.2007 23.7351L25.7869 23.1456L27.2703 24.1821L27.6694 24.4472L28.0662 24.1821C28.4427 23.9213 28.88 23.7504 29.4256 23.6343L29.8653 23.5532L29.9284 23.104L30.2418 21.3772ZM30.6814 25.2799C28.844 25.2799 27.3335 26.7481 27.3335 28.534C27.3335 30.3221 28.844 31.7881 30.6814 31.7881C32.521 31.7881 34.0293 30.3221 34.0293 28.534C34.0293 26.7481 32.521 25.2799 30.6814 25.2799ZM30.6814 26.5816C31.7906 26.5816 32.6901 27.4559 32.6901 28.534C32.6901 29.6122 31.7906 30.4865 30.6814 30.4865C29.5722 30.4865 28.6726 29.6122 28.6726 28.534C28.6726 27.4559 29.5722 26.5816 30.6814 26.5816Z" fill="#64BC2A"/>
</svg>
