<svg width="13" height="14" viewBox="0 0 13 14" fill="none" xmlns="http://www.w3.org/2000/svg">
<path d="M9.01015 0.888672H3.43414C1.54056 0.888672 0 2.4293 0 4.32289V9.8989C0 11.7926 1.54056 13.3331 3.43414 13.3331H9.01015C10.9039 13.3331 12.4444 11.7925 12.4444 9.8989V4.32289C12.4445 2.4293 10.9039 0.888672 9.01015 0.888672ZM11.3404 9.8989C11.3404 11.1837 10.2951 12.229 9.01023 12.229H3.43414C2.14938 12.2291 1.10413 11.1837 1.10413 9.8989V4.32289C1.10413 3.03812 2.14938 1.9928 3.43414 1.9928H9.01015C10.295 1.9928 11.3403 3.03812 11.3403 4.32289L11.3404 9.8989Z" fill="white"/>
<path d="M6.22222 3.90446C4.45406 3.90446 3.0156 5.34292 3.0156 7.11108C3.0156 8.87916 4.45406 10.3175 6.22222 10.3175C7.99037 10.3175 9.42883 8.87916 9.42883 7.11108C9.42883 5.34292 7.99037 3.90446 6.22222 3.90446ZM6.22222 9.21334C5.06295 9.21334 4.11973 8.27027 4.11973 7.111C4.11973 5.95167 5.06288 5.00852 6.22222 5.00852C7.38156 5.00852 8.32471 5.95167 8.32471 7.111C8.32471 8.27027 7.38148 9.21334 6.22222 9.21334Z" fill="white"/>
<path d="M9.5633 2.96832C9.35058 2.96832 9.1416 3.05444 8.99136 3.20534C8.84039 3.3555 8.75361 3.56455 8.75361 3.77801C8.75361 3.99082 8.84047 4.19979 8.99136 4.35069C9.14153 4.50085 9.35058 4.58771 9.5633 4.58771C9.77677 4.58771 9.98508 4.50085 10.136 4.35069C10.2869 4.19979 10.373 3.99074 10.373 3.77801C10.373 3.56455 10.2869 3.3555 10.136 3.20534C9.98582 3.05444 9.77677 2.96832 9.5633 2.96832Z" fill="white"/>
</svg>
