<svg width="280" height="55" viewBox="0 0 280 55" fill="none" xmlns="http://www.w3.org/2000/svg">
<path fill-rule="evenodd" clip-rule="evenodd" d="M46.1393 13.0994C46.1393 9.97684 43.4943 7.56396 40.4085 7.56396C37.1758 7.56396 34.6777 10.1188 34.6777 13.0994V18.6348H40.4085C43.4943 18.6348 46.1393 16.2219 46.1393 13.0994Z" fill="white"/>
<path d="M44.965 13.0991C44.965 11.8217 44.3772 10.6862 43.6425 9.97658C42.7608 9.12497 41.5853 8.69917 40.4097 8.69917C39.0872 8.69917 37.9117 9.2669 37.177 9.97658C36.2953 10.8282 35.8545 11.9637 35.8545 13.0991V17.4991H40.4097C41.7322 17.4991 42.9078 16.9313 43.6425 16.2217C44.3772 15.512 44.965 14.3765 44.965 13.0991ZM45.2588 8.4153C46.4344 9.55077 47.316 11.254 47.316 13.0991C47.316 14.9443 46.5813 16.6475 45.2588 17.783C44.0833 18.9184 42.32 19.77 40.4097 19.77H34.679H33.5034V18.6346V13.0991C33.5034 11.254 34.2381 9.55077 35.5606 8.4153C36.7362 7.27983 38.4995 6.42822 40.4097 6.42822C42.173 6.42822 43.9364 7.27983 45.2588 8.4153Z" fill="#00214A"/>
<path fill-rule="evenodd" clip-rule="evenodd" d="M12.6375 7.56396C9.40477 7.56396 6.90674 10.1188 6.90674 13.0994C6.90674 16.2219 9.55171 18.6348 12.6375 18.6348H18.3683V13.0994C18.3683 10.1188 15.8702 7.56396 12.6375 7.56396Z" fill="white"/>
<path d="M12.6358 8.69917C11.3133 8.69917 10.1378 9.2669 9.40306 9.97658C8.52141 10.8282 8.08058 11.9637 8.08058 13.0991C8.08058 14.3765 8.66835 15.512 9.40306 16.2217C10.2847 17.0733 11.4603 17.4991 12.6358 17.4991H17.191V13.0991C17.191 11.8217 16.6033 10.6862 15.8685 9.97658C15.1338 9.12497 13.9583 8.69917 12.6358 8.69917ZM7.78669 8.4153C8.96223 7.27983 10.7255 6.42822 12.6358 6.42822C14.5461 6.42822 16.3094 7.13789 17.4849 8.4153C18.6605 9.55077 19.5421 11.254 19.5421 13.0991V18.6346V19.77H18.3666H12.6358C10.7255 19.77 8.96223 19.0604 7.78669 17.783C6.61115 16.6475 5.72949 14.9443 5.72949 13.0991C5.72949 11.254 6.61115 9.69271 7.78669 8.4153Z" fill="#00214A"/>
<path fill-rule="evenodd" clip-rule="evenodd" d="M30.5646 3.73152C28.3604 1.60251 24.6868 1.60251 22.4827 3.73152C20.2786 5.86053 20.2786 9.40889 22.4827 11.5379L26.5971 15.5121L30.7115 11.5379C32.7687 9.40889 32.7687 5.86053 30.5646 3.73152Z" fill="white"/>
<path d="M29.829 4.44093C28.9473 3.58933 27.7718 3.16352 26.5962 3.16352C25.4207 3.16352 24.2451 3.58933 23.3635 4.44093C22.4818 5.29254 22.041 6.42801 22.041 7.56348C22.041 8.69896 22.4818 9.83443 23.3635 10.686L26.5962 13.8086L29.829 10.686C30.7106 9.83443 31.1515 8.69896 31.1515 7.56348C31.1515 6.42801 30.7106 5.29254 29.829 4.44093ZM31.2984 2.87966C32.7678 4.15706 33.3556 5.86027 33.3556 7.56348C33.3556 9.26669 32.6209 10.9699 31.2984 12.2473L27.184 16.2215L26.4493 16.9311L25.7146 16.2215L21.6002 12.2473C20.2777 10.9699 19.543 9.26669 19.543 7.56348C19.543 5.86027 20.2777 4.15706 21.6002 2.87966C22.9227 1.60225 24.686 0.892578 26.4493 0.892578C28.2126 0.892578 29.9759 1.60225 31.2984 2.87966Z" fill="#00214A"/>
<path d="M17.6329 19.4861C17.192 19.0603 17.192 18.3506 17.6329 17.9248C18.0737 17.499 18.8084 17.499 19.2492 17.9248L27.3311 25.7312C27.7719 26.157 27.7719 26.8667 27.3311 27.2925C26.8903 27.7183 26.1556 27.7183 25.7147 27.2925L17.6329 19.4861Z" fill="#00214A"/>
<path d="M33.6503 18.0664C34.0911 17.6406 34.8259 17.6406 35.2667 18.0664C35.7075 18.4922 35.7075 19.2019 35.2667 19.6277L27.3318 27.2921C26.8909 27.7179 26.1562 27.7179 25.7154 27.2921C25.2746 26.8663 25.2746 26.1567 25.7154 25.7309L33.6503 18.0664Z" fill="#00214A"/>
<path fill-rule="evenodd" clip-rule="evenodd" d="M50.1079 30.4153C52.312 28.2863 52.312 24.738 50.1079 22.609C47.9037 20.48 44.2302 20.48 42.026 22.609L37.9116 26.5831L42.026 30.5573C44.2302 32.5443 47.9037 32.5443 50.1079 30.4153Z" fill="white"/>
<path d="M49.3739 29.7051C50.2555 28.8535 50.6963 27.718 50.6963 26.5825C50.6963 25.447 50.2555 24.3116 49.3739 23.46C48.4922 22.6084 47.3167 22.1826 46.1411 22.1826C44.9656 22.1826 43.79 22.6084 42.9084 23.46L39.6756 26.5825L42.9084 29.7051C43.79 30.5567 44.9656 30.9825 46.1411 30.9825C47.3167 30.9825 48.4922 30.5567 49.3739 29.7051ZM50.9902 31.1244C49.6677 32.4018 47.9044 33.1115 46.1411 33.1115C44.3778 33.1115 42.6145 32.4018 41.292 31.1244L37.1776 27.2922L36.4429 26.5825L37.1776 25.8728L41.292 21.8987C42.6145 20.6213 44.3778 19.9116 46.1411 19.9116C47.9044 19.9116 49.6677 20.6213 50.9902 21.8987C52.3127 23.1761 53.0474 24.8793 53.0474 26.5825C52.9005 28.1438 52.3127 29.847 50.9902 31.1244Z" fill="#00214A"/>
<path fill-rule="evenodd" clip-rule="evenodd" d="M40.41 45.46C43.6427 45.46 46.1408 42.9052 46.1408 39.9246C46.1408 36.802 43.4958 34.3892 40.41 34.3892H34.6792V39.9246C34.5322 42.9052 37.1772 45.46 40.41 45.46Z" fill="white"/>
<path d="M40.4097 44.3247C41.7322 44.3247 42.9078 43.757 43.6425 43.0473C44.5241 42.1957 44.965 41.0603 44.965 39.9248C44.965 38.6474 44.3772 37.5119 43.6425 36.8023C42.7608 35.9507 41.5853 35.3829 40.4097 35.3829H35.7076V39.7829C35.7076 41.0603 36.2953 42.1957 37.03 42.9054C37.9117 43.757 39.0872 44.3247 40.4097 44.3247ZM45.2588 44.6086C44.0833 45.7441 42.32 46.5957 40.4097 46.5957C38.4995 46.5957 36.7362 45.886 35.5606 44.6086C34.3851 43.4731 33.5034 41.7699 33.5034 39.9248V34.3894V33.2539H34.679H40.4097C42.32 33.2539 44.0833 33.9636 45.2588 35.241C46.4344 36.3765 47.316 38.0797 47.316 39.9248C47.1691 41.628 46.4344 43.3312 45.2588 44.6086Z" fill="#00214A"/>
<path fill-rule="evenodd" clip-rule="evenodd" d="M22.4835 52.1311C24.6877 54.2601 28.3612 54.2601 30.5654 52.1311C32.7695 50.0021 32.7695 46.4538 30.5654 44.3247L26.451 40.3506L22.4835 44.1828C20.1324 46.3118 20.1324 49.8602 22.4835 52.1311Z" fill="#45C4FF"/>
<path d="M23.2165 51.2793C24.0982 52.1309 25.2738 52.5567 26.4493 52.5567C27.6248 52.5567 28.8004 52.1309 29.682 51.2793C30.5637 50.4277 31.0045 49.2922 31.0045 48.1567C31.0045 47.0212 30.5637 45.8858 29.682 45.0342L26.4493 41.9116L23.2165 45.0342C22.3349 45.8858 21.8941 47.0212 21.8941 48.1567C21.8941 49.2922 22.3349 50.4277 23.2165 51.2793ZM21.6002 52.8405C20.2777 51.5631 19.543 49.8599 19.543 48.1567C19.543 46.4535 20.2777 44.7503 21.6002 43.4729L25.7146 39.4987L26.4493 38.7891L27.184 39.4987L31.2984 43.4729C32.6209 44.7503 33.3556 46.4535 33.3556 48.1567C33.3556 49.8599 32.6209 51.5631 31.2984 52.8405C29.9759 54.1179 28.2126 54.8276 26.4493 54.8276C24.686 54.8276 22.9227 54.1179 21.6002 52.8405Z" fill="#00214A"/>
<path fill-rule="evenodd" clip-rule="evenodd" d="M6.90674 39.9244C6.90674 43.0469 9.55171 45.4598 12.6375 45.4598C15.8702 45.4598 18.3683 42.905 18.3683 39.9244V34.3889H12.6375C9.55171 34.247 6.90674 36.8018 6.90674 39.9244Z" fill="white"/>
<path d="M8.08058 39.9248C8.08058 41.2022 8.66835 42.3377 9.40306 43.0473C10.2847 43.899 11.4603 44.3247 12.6358 44.3247C13.9583 44.3247 15.1338 43.757 15.8685 43.0473C16.7502 42.1957 17.191 41.0603 17.191 39.9248V35.3829H12.6358C11.3133 35.3829 10.1378 35.9506 9.40306 36.6603C8.52141 37.5119 8.08058 38.6474 8.08058 39.9248ZM7.78669 44.6086C6.61115 43.4731 5.72949 41.7699 5.72949 39.9248C5.72949 38.0797 6.46421 36.3765 7.78669 35.241C8.96223 34.1055 10.7255 33.2539 12.6358 33.2539H18.3666H19.5421V34.3894V39.9248C19.5421 41.7699 18.8074 43.4731 17.4849 44.6086C16.3094 45.7441 14.5461 46.5957 12.6358 46.5957C10.7255 46.4538 9.10918 45.7441 7.78669 44.6086Z" fill="#00214A"/>
<path fill-rule="evenodd" clip-rule="evenodd" d="M2.93875 22.609C0.734608 24.738 0.734608 28.2863 2.93875 30.4153C5.1429 32.5444 8.81648 32.5444 11.0206 30.4153L15.135 26.4412L11.0206 22.609C8.81648 20.338 5.1429 20.338 2.93875 22.609Z" fill="white"/>
<path d="M3.67358 23.3184C2.79192 24.17 2.35109 25.3054 2.35109 26.4409C2.35109 27.5764 2.79192 28.7119 3.67358 29.5635C4.55523 30.4151 5.73078 30.8409 6.90632 30.8409C8.08187 30.8409 9.25741 30.4151 10.1391 29.5635L13.3718 26.4409L10.1391 23.3184C9.25741 22.4668 8.08187 22.041 6.90632 22.041C5.73078 22.041 4.55523 22.4668 3.67358 23.3184ZM2.0572 21.7571C3.37969 20.4797 5.143 19.77 6.90632 19.77C8.66964 19.77 10.433 20.4797 11.7554 21.7571L15.8698 25.7313L16.6046 26.4409L15.8698 27.1506L11.7554 31.1247C10.433 32.4022 8.66964 33.1118 6.90632 33.1118C5.143 33.1118 3.37969 32.5441 2.0572 31.1247C0.734715 29.8473 0 28.1441 0 26.4409C0 24.7377 0.734715 23.0345 2.0572 21.7571Z" fill="#00214A"/>
<path d="M14.989 27.5761C14.4012 27.5761 13.8135 27.1503 13.8135 26.4407C13.8135 25.8729 14.2543 25.3052 14.989 25.3052H26.4506C27.0384 25.3052 27.6261 25.731 27.6261 26.4407C27.6261 27.0084 27.1853 27.5761 26.4506 27.5761H14.989Z" fill="#00214A"/>
<path d="M18.9553 35.241C18.5145 35.6668 17.7798 35.6668 17.3389 35.241C16.8981 34.8152 16.8981 34.1056 17.3389 33.6798L25.5677 25.7315C26.0086 25.3057 26.7433 25.3057 27.1841 25.7315C27.6249 26.1573 27.6249 26.8669 27.1841 27.2927L18.9553 35.241Z" fill="#00214A"/>
<path d="M35.7075 33.8217C36.1483 34.2475 36.1483 34.9572 35.7075 35.383C35.2667 35.8088 34.532 35.8088 34.0911 35.383L25.7154 27.2927C25.2746 26.8669 25.2746 26.1573 25.7154 25.7315C26.1562 25.3057 26.8909 25.3057 27.3318 25.7315L35.7075 33.8217Z" fill="#00214A"/>
<path d="M37.912 25.4473C38.4998 25.4473 39.0876 25.8731 39.0876 26.5827C39.0876 27.1505 38.6467 27.7182 37.912 27.7182H26.4504C25.8627 27.7182 25.2749 27.2924 25.2749 26.5827C25.2749 26.015 25.7157 25.4473 26.4504 25.4473H37.912Z" fill="#00214A"/>
<path d="M25.4219 15.3698C25.4219 14.8021 25.8627 14.2344 26.5974 14.2344C27.1852 14.2344 27.773 14.6602 27.773 15.3698V26.4407C27.773 27.0084 27.3321 27.5762 26.5974 27.5762C26.0096 27.5762 25.4219 27.1504 25.4219 26.4407V15.3698Z" fill="#00214A"/>
<path fill-rule="evenodd" clip-rule="evenodd" d="M26.4494 20.1958C29.976 20.1958 32.9149 23.0345 32.9149 26.4409C32.9149 29.8473 29.976 32.686 26.4494 32.686C22.9228 32.686 19.9839 29.8473 19.9839 26.4409C19.9839 23.0345 22.9228 20.1958 26.4494 20.1958Z" fill="#FFC300"/>
<path d="M26.4491 19.0601C28.5063 19.0601 30.4166 19.9117 31.886 21.1891C33.2085 22.4665 34.0902 24.3116 34.0902 26.4406C34.0902 28.4277 33.2085 30.2729 31.886 31.6922C30.5635 32.9696 28.6533 33.8212 26.4491 33.8212C24.3919 33.8212 22.4817 32.9696 21.0122 31.6922C19.6898 30.4148 18.8081 28.5696 18.8081 26.4406C18.8081 24.4536 19.6898 22.6084 21.0122 21.1891C22.4817 19.9117 24.3919 19.0601 26.4491 19.0601ZM30.2697 22.8923C29.2411 21.8987 27.9186 21.331 26.4491 21.331C24.9797 21.331 23.6572 21.8987 22.6286 22.8923C21.6 23.8858 21.0122 25.1632 21.0122 26.5826C21.0122 28.0019 21.6 29.2793 22.6286 30.2729C23.6572 31.2664 24.9797 31.8341 26.4491 31.8341C27.9186 31.8341 29.2411 31.2664 30.2697 30.2729C31.2983 29.2793 31.886 28.0019 31.886 26.5826C31.886 25.0213 31.2983 23.7439 30.2697 22.8923Z" fill="#00214A"/>
<path d="M93.249 32.042H90.4797V39.9393H86.163V32.042H83.3394L79.077 39.9393H74L79.7014 29.6896L74.3529 20.3361H78.9955L83.258 28.2614H86.163V20.3361H90.4797V28.2614H93.3033L97.5929 20.3361H102.235L96.9142 29.6896L102.588 39.9393H97.5115L93.249 32.042Z" fill="#3E3F43"/>
<path d="M104.696 20.3361H109.067V33.1062L118.135 20.3361H122.262V39.9393H117.918V27.1972L108.85 39.9393H104.696V20.3361Z" fill="#3E3F43"/>
<path d="M140.161 29.7176C141.32 30.0723 142.207 30.6511 142.822 31.4539C143.437 32.2567 143.745 33.2462 143.745 34.4224C143.745 36.1587 143.103 37.5123 141.818 38.4831C140.551 39.4539 138.732 39.9393 136.36 39.9393H126.994V20.3361H135.845C138.053 20.3361 139.772 20.7748 141.003 21.6523C142.234 22.5298 142.849 23.7806 142.849 25.4049C142.849 26.3757 142.614 27.2345 142.143 27.9813C141.673 28.7095 141.012 29.2882 140.161 29.7176ZM131.365 28.4574H135.465C136.424 28.4574 137.148 28.2614 137.637 27.8693C138.125 27.4586 138.37 26.8611 138.37 26.077C138.37 25.3116 138.116 24.7235 137.609 24.3127C137.121 23.902 136.406 23.6966 135.465 23.6966H131.365V28.4574ZM136.198 36.5788C138.261 36.5788 139.293 35.7386 139.293 34.0583C139.293 32.4341 138.261 31.6219 136.198 31.6219H131.365V36.5788H136.198Z" fill="#3E3F43"/>
<path d="M160.092 35.7386H151.269L149.585 39.9393H145.079L153.549 20.3361H157.893L166.391 39.9393H161.776L160.092 35.7386ZM158.708 32.294L155.694 24.7888L152.681 32.294H158.708Z" fill="#3E3F43"/>
<path d="M183.107 20.3361V39.9393H178.763V34.7305H174.745L171.378 39.9393H166.736L170.7 34.0303C169.414 33.4889 168.428 32.6768 167.74 31.5939C167.052 30.4924 166.709 29.1762 166.709 27.6453C166.709 26.133 167.043 24.8355 167.713 23.7526C168.383 22.6511 169.333 21.811 170.564 21.2322C171.795 20.6348 173.243 20.3361 174.908 20.3361H183.107ZM175.016 24.0327C173.767 24.0327 172.808 24.3314 172.138 24.9288C171.487 25.5263 171.161 26.4131 171.161 27.5893C171.161 28.7281 171.478 29.6056 172.111 30.2217C172.745 30.8378 173.677 31.1459 174.908 31.1459H178.763V24.0327H175.016Z" fill="#3E3F43"/>
<path d="M208.725 29.7176C209.883 30.0723 210.77 30.6511 211.385 31.4539C212.001 32.2567 212.308 33.2462 212.308 34.4224C212.308 36.1587 211.666 37.5123 210.381 38.4831C209.114 39.4539 207.295 39.9393 204.924 39.9393H195.557V20.3361H204.408C206.616 20.3361 208.335 20.7748 209.566 21.6523C210.797 22.5298 211.412 23.7806 211.412 25.4049C211.412 26.3757 211.177 27.2345 210.706 27.9813C210.236 28.7095 209.575 29.2882 208.725 29.7176ZM199.928 28.4574H204.028C204.987 28.4574 205.711 28.2614 206.2 27.8693C206.688 27.4586 206.933 26.8611 206.933 26.077C206.933 25.3116 206.679 24.7235 206.172 24.3127C205.684 23.902 204.969 23.6966 204.028 23.6966H199.928V28.4574ZM204.761 36.5788C206.824 36.5788 207.856 35.7386 207.856 34.0583C207.856 32.4341 206.824 31.6219 204.761 31.6219H199.928V36.5788H204.761Z" fill="#3E3F43"/>
<path d="M224.854 40.2754C222.882 40.2754 221.099 39.8366 219.506 38.9592C217.931 38.0817 216.692 36.8775 215.787 35.3466C214.9 33.797 214.456 32.0607 214.456 30.1377C214.456 28.2147 214.9 26.4877 215.787 24.9568C216.692 23.4072 217.931 22.1937 219.506 21.3162C221.099 20.4387 222.882 20 224.854 20C226.827 20 228.601 20.4387 230.176 21.3162C231.75 22.1937 232.99 23.4072 233.895 24.9568C234.8 26.4877 235.253 28.2147 235.253 30.1377C235.253 32.0607 234.8 33.797 233.895 35.3466C232.99 36.8775 231.75 38.0817 230.176 38.9592C228.601 39.8366 226.827 40.2754 224.854 40.2754ZM224.854 36.4107C225.977 36.4107 226.99 36.1494 227.895 35.6266C228.8 35.0852 229.506 34.3384 230.013 33.3862C230.538 32.4341 230.8 31.3512 230.8 30.1377C230.8 28.9242 230.538 27.8413 230.013 26.8891C229.506 25.937 228.8 25.1995 227.895 24.6768C226.99 24.1354 225.977 23.8646 224.854 23.8646C223.732 23.8646 222.719 24.1354 221.814 24.6768C220.909 25.1995 220.194 25.937 219.669 26.8891C219.162 27.8413 218.909 28.9242 218.909 30.1377C218.909 31.3512 219.162 32.4341 219.669 33.3862C220.194 34.3384 220.909 35.0852 221.814 35.6266C222.719 36.1494 223.732 36.4107 224.854 36.4107Z" fill="#3E3F43"/>
<path d="M257.713 36.2427V44H253.64V39.9393H240.228V44H236.156L236.183 36.2427H236.943C238.084 36.2054 238.889 35.3466 239.36 33.6663C239.83 31.986 240.12 29.5869 240.228 26.4691L240.446 20.3361H255.052V36.2427H257.713ZM244.111 26.8891C244.02 29.2229 243.83 31.1832 243.541 32.7701C243.251 34.3384 242.808 35.4959 242.21 36.2427H250.708V24.0327H244.192L244.111 26.8891Z" fill="#3E3F43"/>
<path d="M273.701 35.7386H264.878L263.194 39.9393H258.688L267.158 20.3361H271.502L280 39.9393H275.385L273.701 35.7386ZM272.317 32.294L269.303 24.7888L266.289 32.294H272.317Z" fill="#3E3F43"/>
</svg>
