<svg width="12" height="18" viewBox="0 0 12 18" fill="none" xmlns="http://www.w3.org/2000/svg">
<path fill-rule="evenodd" clip-rule="evenodd" d="M5.32424 0H5.76735L5.79017 0.00301507C8.06331 0.30333 9.52952 1.31225 10.3322 2.76137C11.1246 4.19187 11.2389 5.9949 10.9406 7.83772C10.3453 11.5169 8.07436 15.5464 5.77834 17.5875L5.5458 17.7942L5.31326 17.5875C3.01724 15.5464 0.746342 11.5169 0.150946 7.83772C-0.14727 5.9949 -0.0330172 4.19187 0.759371 2.76137C1.56207 1.31225 3.02828 0.30333 5.30142 0.00301507L5.32424 0ZM5.3705 0.7C3.29019 0.980149 2.04599 1.88328 1.3717 3.10056C0.684666 4.34087 0.557038 5.96525 0.841956 7.72589C1.39244 11.1276 3.4535 14.8583 5.54579 16.8502C7.63809 14.8583 9.69916 11.1276 10.2496 7.72589C10.5346 5.96525 10.4069 4.34087 9.71989 3.10056C9.04561 1.88328 7.80141 0.980149 5.72109 0.7H5.3705Z" fill="#989898"/>
<path fill-rule="evenodd" clip-rule="evenodd" d="M5.5459 8.12587C6.54001 8.12587 7.3459 7.31998 7.3459 6.32587C7.3459 5.33175 6.54001 4.52587 5.5459 4.52587C4.55179 4.52587 3.7459 5.33175 3.7459 6.32587C3.7459 7.31998 4.55179 8.12587 5.5459 8.12587ZM5.5459 8.82587C6.92661 8.82587 8.0459 7.70658 8.0459 6.32587C8.0459 4.94515 6.92661 3.82587 5.5459 3.82587C4.16519 3.82587 3.0459 4.94515 3.0459 6.32587C3.0459 7.70658 4.16519 8.82587 5.5459 8.82587Z" fill="#989898"/>
</svg>
