<svg width="86" height="86" viewBox="0 0 86 86" fill="none" xmlns="http://www.w3.org/2000/svg">
<path fill-rule="evenodd" clip-rule="evenodd" d="M86 43C86 66.7482 66.7482 86 43 86C19.2518 86 0 66.7482 0 43C0 19.2518 19.2518 0 43 0C66.7482 0 86 19.2518 86 43ZM43 82.8148C64.9891 82.8148 82.8148 64.9891 82.8148 43C82.8148 21.0109 64.9891 3.18519 43 3.18519C21.0109 3.18519 3.18519 21.0109 3.18519 43C3.18519 64.9891 21.0109 82.8148 43 82.8148Z" fill="#64BC2A"/>
<path d="M33.4444 35.037C33.4444 37.6757 31.3054 39.8148 28.6667 39.8148C26.028 39.8148 23.8889 37.6757 23.8889 35.037C23.8889 32.3983 26.028 30.2593 28.6667 30.2593C31.3054 30.2593 33.4444 32.3983 33.4444 35.037Z" fill="#64BC2A"/>
<path d="M62.1111 35.037C62.1111 37.6757 59.972 39.8148 57.3333 39.8148C54.6946 39.8148 52.5556 37.6757 52.5556 35.037C52.5556 32.3983 54.6946 30.2593 57.3333 30.2593C59.972 30.2593 62.1111 32.3983 62.1111 35.037Z" fill="#64BC2A"/>
<path fill-rule="evenodd" clip-rule="evenodd" d="M43 54.1481C36.7108 54.1481 30.9574 56.4246 26.5126 60.2003C25.8422 60.7698 24.8372 60.688 24.2677 60.0176C23.6983 59.3473 23.7801 58.3422 24.4504 57.7728C29.4493 53.5263 35.9274 50.963 43 50.963C50.0727 50.963 56.5507 53.5263 61.5496 57.7728C62.22 58.3422 62.3018 59.3473 61.7323 60.0176C61.1629 60.688 60.1578 60.7698 59.4875 60.2003C55.0427 56.4246 49.2892 54.1481 43 54.1481Z" fill="#64BC2A"/>
</svg>
