<svg width="20" height="14" viewBox="0 0 20 14" fill="none" xmlns="http://www.w3.org/2000/svg">
<path d="M1.68 0C0.756328 0 0 0.756328 0 1.68V11.76C0 12.6837 0.756328 13.44 1.68 13.44H17.64C18.5637 13.44 19.32 12.6837 19.32 11.76V1.68C19.32 0.756328 18.5637 0 17.64 0H1.68ZM1.68 0.84H17.64C18.1092 0.84 18.48 1.21078 18.48 1.68V11.76C18.48 12.2292 18.1092 12.6 17.64 12.6H1.68C1.21078 12.6 0.84 12.2292 0.84 11.76V1.68C0.84 1.21078 1.21078 0.84 1.68 0.84ZM6.26062 2.52C5.32875 2.53641 4.67086 2.97773 4.41 3.59625C4.17867 4.1475 4.22461 4.7693 4.3575 5.36813C4.35422 5.37305 4.36078 5.37633 4.3575 5.38125C4.28367 5.50758 4.21805 5.69461 4.22625 5.91938C4.23773 6.24258 4.3575 6.48539 4.48875 6.64125C4.55766 6.72328 4.58719 6.73148 4.64625 6.7725C4.71352 6.98086 4.78734 7.1925 4.89563 7.33688C4.96781 7.43367 5.04984 7.47961 5.11875 7.54688C5.12367 7.7257 5.12859 7.89141 5.11875 8.05875C5.0843 8.12602 5.02359 8.1982 4.83 8.295C4.61836 8.40164 4.30992 8.50992 3.99 8.64938C3.67008 8.78883 3.33047 8.96274 3.045 9.25313C2.75953 9.54352 2.55117 9.96024 2.52 10.4738C2.51344 10.5902 2.55445 10.7034 2.6332 10.7871C2.71359 10.8724 2.82352 10.92 2.94 10.92H9.66C9.77648 10.92 9.88641 10.8724 9.9668 10.7871C10.0455 10.7034 10.0866 10.5902 10.08 10.4738C10.0488 9.96024 9.84047 9.54352 9.555 9.25313C9.26953 8.96274 8.92992 8.78883 8.61 8.64938C8.29008 8.50992 7.98164 8.40164 7.77 8.295C7.5682 8.19328 7.49766 8.11453 7.46812 8.04563C7.45992 7.8832 7.47633 7.72078 7.48125 7.54688C7.56 7.47141 7.66008 7.42383 7.73062 7.32375C7.83398 7.17445 7.89633 6.96281 7.95375 6.75938C8.09484 6.65438 8.36063 6.42797 8.36063 5.95875C8.36063 5.76188 8.26219 5.64211 8.20312 5.49938C8.30156 5.17617 8.42625 4.69383 8.37375 4.17375C8.34422 3.88992 8.26547 3.59789 8.05875 3.34688C7.88812 3.13852 7.60266 3.02367 7.2975 2.97938C7.05469 2.71359 6.71672 2.52 6.27375 2.52C6.26883 2.52 6.26555 2.52 6.26062 2.52ZM6.27375 3.36C6.28031 3.36 6.28031 3.36 6.28687 3.36C6.55266 3.36656 6.73148 3.52078 6.75938 3.57C6.8332 3.69633 6.96773 3.77672 7.11375 3.78C7.30242 3.78 7.34836 3.81938 7.4025 3.885C7.45664 3.95063 7.5157 4.08352 7.53375 4.26563C7.56984 4.62984 7.45828 5.13352 7.38937 5.34188C7.3418 5.48133 7.37133 5.63719 7.46812 5.74875C7.4632 5.75367 7.52063 5.84883 7.52063 5.95875C7.52063 6.03586 7.38937 6.15563 7.38937 6.15563C7.28437 6.21797 7.21383 6.32461 7.1925 6.44438C7.17281 6.58219 7.11211 6.7282 7.035 6.83813C6.95789 6.94805 6.85453 7.03336 6.8775 7.02188C6.73641 7.09078 6.64453 7.23188 6.64125 7.38938C6.64125 7.63547 6.61008 7.875 6.64125 8.21625C6.64617 8.25234 6.65438 8.2868 6.6675 8.32125C6.80531 8.68875 7.11211 8.89711 7.4025 9.04313C7.69289 9.18914 7.98984 9.30234 8.26875 9.42375C8.54766 9.54516 8.78883 9.67805 8.95125 9.84375C9.00703 9.90117 9.01523 10.0111 9.05625 10.08H3.54375C3.58477 10.0111 3.59297 9.90117 3.64875 9.84375C3.81117 9.67805 4.05234 9.54516 4.33125 9.42375C4.61016 9.30234 4.90711 9.18914 5.1975 9.04313C5.48789 8.89711 5.79633 8.69039 5.9325 8.32125C5.94562 8.2868 5.95383 8.25234 5.95875 8.21625C5.98992 7.87336 5.95875 7.63547 5.95875 7.38938C5.96039 7.23844 5.88 7.09734 5.74875 7.02188C5.75531 7.02844 5.75203 7.03008 5.73562 7.02188C5.71102 6.99891 5.62898 6.92344 5.565 6.83813C5.47477 6.71836 5.39602 6.55594 5.38125 6.44438C5.35992 6.30656 5.27133 6.18844 5.145 6.12938C5.145 6.12938 5.15977 6.13594 5.13188 6.10313C5.10398 6.07031 5.07117 6.01945 5.06625 5.88C5.06461 5.83734 5.10563 5.775 5.10563 5.775C5.21063 5.66836 5.25164 5.5125 5.21062 5.36813C5.06297 4.80047 5.04328 4.25906 5.18437 3.92438C5.32383 3.59297 5.57156 3.37641 6.27375 3.36ZM11.2612 4.2C11.0299 4.22133 10.8593 4.42805 10.8806 4.65938C10.902 4.8907 11.1087 5.06133 11.34 5.04H16.38C16.5309 5.04164 16.672 4.96289 16.7491 4.83164C16.8246 4.70039 16.8246 4.53961 16.7491 4.40836C16.672 4.27711 16.5309 4.19836 16.38 4.2H11.34C11.3269 4.2 11.3138 4.2 11.3006 4.2C11.2875 4.2 11.2744 4.2 11.2612 4.2ZM11.2612 6.3C11.0299 6.32133 10.8593 6.52805 10.8806 6.75938C10.902 6.9907 11.1087 7.16133 11.34 7.14H16.38C16.5309 7.14164 16.672 7.06289 16.7491 6.93164C16.8246 6.80039 16.8246 6.63961 16.7491 6.50836C16.672 6.37711 16.5309 6.29836 16.38 6.3H11.34C11.3269 6.3 11.3138 6.3 11.3006 6.3C11.2875 6.3 11.2744 6.3 11.2612 6.3ZM11.2612 8.4C11.0299 8.42133 10.8593 8.62805 10.8806 8.85938C10.902 9.0907 11.1087 9.26133 11.34 9.24H16.38C16.5309 9.24164 16.672 9.16289 16.7491 9.03164C16.8246 8.90039 16.8246 8.73961 16.7491 8.60836C16.672 8.47711 16.5309 8.39836 16.38 8.4H11.34C11.3269 8.4 11.3138 8.4 11.3006 8.4C11.2875 8.4 11.2744 8.4 11.2612 8.4Z" fill="#989898"/>
</svg>
