<svg width="17" height="17" viewBox="0 0 17 17" fill="none" xmlns="http://www.w3.org/2000/svg">
<path d="M16.5456 0.00295807C16.506 0.0095445 16.4687 0.0227173 16.4336 0.042476L0.241612 6.99759C0.0966682 7.05906 0.00443179 7.20177 3.92821e-05 7.35764C-0.00215669 7.51571 0.0878838 7.66061 0.228435 7.73086L6.26116 10.7408L9.27203 16.7716C9.34231 16.9121 9.48725 17.0022 9.64537 17C9.80129 16.9956 9.94404 16.9034 10.0055 16.7585L16.9628 0.571574C17.0243 0.439848 17.0089 0.283973 16.9211 0.16542C16.8354 0.0468666 16.6927 -0.0146054 16.5456 0.00295807ZM14.826 1.61001L6.47638 9.95483L1.36602 7.40155L14.826 1.61001ZM15.3948 2.17863L9.60145 15.6344L7.04737 10.5256L15.3948 2.17863Z" fill="#3E3F43"/>
</svg>
