<svg width="20" height="11" viewBox="0 0 20 11" fill="none" xmlns="http://www.w3.org/2000/svg">
<path fill-rule="evenodd" clip-rule="evenodd" d="M9.63528 5.50144C10.2397 5.50144 10.7296 4.99184 10.7296 4.36321C10.7296 3.73458 10.2397 3.22498 9.63528 3.22498C9.03091 3.22498 8.54096 3.73458 8.54096 4.36321C8.54096 4.99184 9.03091 5.50144 9.63528 5.50144ZM9.63528 6.26026C10.6426 6.26026 11.4591 5.41092 11.4591 4.36321C11.4591 3.3155 10.6426 2.46616 9.63528 2.46616C8.62799 2.46616 7.81142 3.3155 7.81142 4.36321C7.81142 5.41092 8.62799 6.26026 9.63528 6.26026Z" fill="#3E3F43"/>
<path fill-rule="evenodd" clip-rule="evenodd" d="M20 5.5L19.742 5.23168C17.2268 2.61639 14.7847 0.958089 12.3382 0.310041C11.5601 0.103926 10.7815 7.64028e-06 10 4.21279e-10C8.81027 -1.163e-05 7.62735 0.240792 6.44245 0.716373C4.40182 1.53542 2.35533 3.0508 0.258034 5.23168L0 5.5L0.258034 5.76832C3.57312 9.21553 6.76131 11 10 11C13.2387 11 16.4269 9.21541 19.742 5.76832L20 5.5ZM1.03499 5.5C4.18628 8.69829 7.11705 10.2412 9.99999 10.2412C12.8829 10.2412 15.8137 8.69818 18.965 5.5C17.0782 3.58517 15.2705 2.26369 13.5048 1.51145C14.0543 2.3166 14.3773 3.30067 14.3773 4.36321C14.3773 7.08726 12.2542 9.29554 9.63528 9.29554C7.01633 9.29554 4.89325 7.08726 4.89325 4.36321C4.89325 3.51182 5.10064 2.71082 5.46574 2.01187C4.02729 2.79695 2.55685 3.95543 1.03499 5.5ZM9.63528 8.53672C11.8513 8.53672 13.6478 6.66818 13.6478 4.36321C13.6478 2.9906 13.0107 1.77275 12.0273 1.0121C11.3475 0.842778 10.6724 0.758826 9.99999 0.758819C8.95439 0.758809 7.9025 0.961758 6.83608 1.37303C6.08763 2.13117 5.62279 3.19073 5.62279 4.36321C5.62279 6.66818 7.41924 8.53672 9.63528 8.53672Z" fill="#3E3F43"/>
<path fill-rule="evenodd" clip-rule="evenodd" d="M12.3382 0.310041C11.5601 0.103926 10.7815 7.64028e-06 10 4.21279e-10C8.81027 -1.163e-05 7.62735 0.240792 6.44245 0.716373C4.40182 1.53542 2.35533 3.0508 0.258034 5.23168L0 5.5L0.258034 5.76832C3.57312 9.21553 6.76131 11 10 11C13.2387 11 16.4269 9.21541 19.742 5.76832L20 5.5L19.742 5.23168C17.2268 2.61639 14.7847 0.958089 12.3382 0.310041ZM9.63528 5.50144C10.2397 5.50144 10.7296 4.99184 10.7296 4.36321C10.7296 3.73458 10.2397 3.22498 9.63528 3.22498C9.03091 3.22498 8.54096 3.73458 8.54096 4.36321C8.54096 4.99184 9.03091 5.50144 9.63528 5.50144ZM13.6478 4.36321C13.6478 6.66818 11.8513 8.53672 9.63528 8.53672C7.41924 8.53672 5.62279 6.66818 5.62279 4.36321C5.62279 3.19073 6.08763 2.13117 6.83608 1.37303C7.9025 0.961758 8.95439 0.758809 9.99999 0.758819C10.6724 0.758826 11.3475 0.842778 12.0273 1.0121C13.0107 1.77275 13.6478 2.9906 13.6478 4.36321ZM9.63528 6.26026C10.6426 6.26026 11.4591 5.41092 11.4591 4.36321C11.4591 3.3155 10.6426 2.46616 9.63528 2.46616C8.62799 2.46616 7.81142 3.3155 7.81142 4.36321C7.81142 5.41092 8.62799 6.26026 9.63528 6.26026ZM1.03499 5.5C4.18628 8.69829 7.11705 10.2412 9.99999 10.2412C12.8829 10.2412 15.8137 8.69818 18.965 5.5C17.0782 3.58517 15.2705 2.26369 13.5048 1.51145C14.0543 2.3166 14.3773 3.30067 14.3773 4.36321C14.3773 7.08726 12.2542 9.29554 9.63528 9.29554C7.01633 9.29554 4.89325 7.08726 4.89325 4.36321C4.89325 3.51182 5.10064 2.71082 5.46574 2.01187C4.02729 2.79695 2.55685 3.95543 1.03499 5.5Z" fill="#3E3F43"/>
</svg>
