<svg width="21" height="12" viewBox="0 0 21 12" fill="none" xmlns="http://www.w3.org/2000/svg">
<path d="M4.47894 0.435322H1.84625C1.84625 0.435322 1.69763 0.428244 1.51362 0.449476C1.33315 0.474245 1.06422 0.484861 0.788213 0.796255V0.799794C0.540513 1.07934 0.551129 1.40489 0.582976 1.58536C0.611284 1.76582 0.678517 1.89675 0.682056 1.90029C0.706826 1.96398 2.61765 6.64551 5.02742 9.16144C6.72593 10.9378 8.54122 11.5217 10.1619 11.5217H11.0005C11.2765 11.5217 11.5242 11.511 11.7967 11.3695C12.0692 11.228 12.3063 10.8352 12.3063 10.5309C12.3063 10.2053 12.3133 9.89038 12.3558 9.71345C12.3947 9.54714 12.377 9.58606 12.3947 9.58606C12.4089 9.5896 12.4372 9.59668 12.4938 9.62145C12.607 9.67453 12.7875 9.7913 12.9892 9.947C13.3855 10.2549 13.8562 10.7043 14.3869 11.051C15.1442 11.5535 15.9651 11.5217 15.9651 11.5217H18.6757L18.7075 11.5181C18.7075 11.5181 19.1215 11.511 19.5497 11.2492C19.762 11.1183 20.0168 10.8776 20.1017 10.5167C20.1867 10.1558 20.0805 9.78069 19.8682 9.44806C19.7939 9.32421 19.4223 8.78635 17.9397 7.47C17.554 7.1303 17.2921 6.88967 17.1895 6.76228C17.1541 6.71628 17.1506 6.71982 17.1435 6.71982C17.1506 6.69505 17.239 6.51459 17.4655 6.21735C17.7061 5.90595 18.0671 5.47425 18.5341 4.87977C19.1322 4.12251 19.5497 3.39357 19.8116 2.77785C19.9425 2.47 20.0345 2.19045 20.0911 1.93921C20.1477 1.68444 20.1902 1.47566 20.1088 1.17488C20.0487 0.951953 19.8788 0.753793 19.716 0.647636C19.5532 0.541479 19.4011 0.502554 19.2631 0.477785C18.9906 0.424706 18.7465 0.435322 18.52 0.435322C18.0494 0.435322 15.951 0.449476 15.7776 0.449476C15.5759 0.449476 15.2503 0.534401 15.0982 0.622865C14.7266 0.83518 14.6099 1.12888 14.6099 1.12888L14.5745 1.18904L14.5533 1.25981C14.5533 1.25981 14.0755 2.80616 13.5837 3.60234C13.0069 4.54006 12.5752 4.91515 12.3841 5.01777C12.3664 5.03192 12.377 5.02485 12.3629 5.03192C12.3487 4.98946 12.3275 4.92931 12.3169 4.81961C12.2886 4.57191 12.3063 4.22159 12.3063 3.88543C12.3063 2.94771 12.3735 2.36384 12.2956 1.81182C12.2567 1.53582 12.1576 1.22796 11.9347 0.990877C11.7082 0.757331 11.4145 0.640558 11.1244 0.573325H11.1208C10.8165 0.502554 10.491 0.442398 9.70187 0.435322C8.70046 0.424706 8.04582 0.456553 7.46549 0.714868L7.45842 0.718407L7.45488 0.721946C7.22487 0.828102 7.04441 0.951952 6.88517 1.11826C6.80378 1.19965 6.71178 1.25981 6.64455 1.52166C6.6127 1.65259 6.60916 1.90029 6.75778 2.10199C6.9064 2.30369 7.11518 2.36384 7.23549 2.38153C7.21426 2.378 7.33103 2.40277 7.42303 2.44877C7.51504 2.49477 7.59642 2.562 7.61765 2.58677V2.59031C7.60704 2.57616 7.6955 2.79555 7.72027 2.99725C7.74504 3.19894 7.73797 3.35818 7.73797 3.35818V3.3971L7.7415 3.43957C7.7415 3.43957 7.78043 3.88189 7.76273 4.33836C7.75212 4.56837 7.72027 4.79838 7.68489 4.93992C7.68135 4.947 7.68135 4.94346 7.67781 4.95054C7.51504 4.8373 7.13995 4.43744 6.61978 3.58111C6.13853 2.78847 5.69267 1.36596 5.69267 1.36596L5.68205 1.33412L5.6679 1.30227C5.6679 1.30227 5.58651 0.983799 5.21496 0.721946C4.86819 0.481323 4.5391 0.445937 4.5391 0.445937L4.47894 0.435322ZM4.32678 1.73752C4.36571 1.75167 4.44356 1.77998 4.45771 1.78705L4.44356 1.74105L4.46125 1.78705C4.46479 1.78705 4.46479 1.79059 4.46479 1.79059H4.46833C4.43294 1.76936 4.46125 1.79059 4.46479 1.79767C4.48248 1.85783 4.88234 3.23079 5.50513 4.25698C6.0713 5.1947 6.48885 5.71841 6.94533 6.0298C7.4018 6.34473 8.01751 6.31289 8.32891 6.15011C8.74646 5.93426 8.85969 5.57686 8.94108 5.27962C9.02247 4.98238 9.05077 4.68161 9.06493 4.39852C9.0897 3.85712 9.04724 3.41126 9.0437 3.3688C9.0437 3.34403 9.05077 3.13171 9.01539 2.84509C8.98354 2.55846 8.92339 2.20107 8.66507 1.84013C8.95169 1.79767 9.11093 1.73398 9.69126 1.73752C10.4273 1.74459 10.537 1.77644 10.8271 1.84367C10.9864 1.87906 11.0041 1.91091 10.9899 1.89321C10.9758 1.87906 10.9864 1.86844 11.0041 1.99583C11.043 2.24707 11.0005 2.89817 11.0005 3.88543C11.0005 4.16144 10.9722 4.55422 11.0182 4.96469C11.0642 5.37517 11.1951 5.89887 11.6905 6.20673C11.9736 6.38012 12.5115 6.44028 13.0211 6.15719C13.5306 5.8741 14.0508 5.32916 14.6948 4.28529C15.3282 3.25556 15.7104 1.90383 15.7493 1.76228C15.7493 1.76228 15.7564 1.75521 15.7634 1.75167C15.7741 1.75521 15.7599 1.75521 15.7776 1.75521C16.0182 1.75521 18.0812 1.73752 18.52 1.73752C18.6438 1.73752 18.6969 1.74459 18.7854 1.74813C18.75 1.88967 18.7005 2.05245 18.612 2.26476C18.3997 2.76016 18.0352 3.40418 17.508 4.07651C17.055 4.6533 16.7047 5.07085 16.4322 5.42117C16.1633 5.77149 15.951 6.04749 15.8625 6.44735C15.7741 6.84721 15.9439 7.29661 16.1739 7.58323C16.4039 7.86632 16.6905 8.10694 17.0727 8.44664C18.5058 9.72053 18.7429 10.1062 18.7641 10.1416C18.7889 10.1805 18.7748 10.1416 18.7818 10.1629C18.7005 10.1876 18.6049 10.2159 18.5943 10.2195H15.951C15.951 10.2195 15.4662 10.2018 15.1053 9.96469V9.96115C14.7231 9.71345 14.2631 9.28528 13.7889 8.91727C13.5518 8.73327 13.3112 8.55988 13.0281 8.43249C12.7486 8.3051 12.3947 8.21664 12.0232 8.32987C11.4818 8.48911 11.181 9.00574 11.0855 9.41267C11.0182 9.70638 11.0253 9.96115 11.0253 10.2159C11.0076 10.2159 11.0218 10.2195 11.0005 10.2195H10.1619C8.83492 10.2195 7.45488 9.81253 5.96868 8.2591C4.03308 6.23858 2.3098 2.33199 2.05148 1.74105L4.32678 1.73752ZM15.7033 1.74459C15.6927 1.74813 15.7281 1.74813 15.7564 1.75167C15.7493 1.75521 15.7564 1.74813 15.7493 1.75167C15.7493 1.74105 15.721 1.74105 15.7033 1.74459Z" fill="#A4BDDE"/>
</svg>
