<svg width="36" height="36" viewBox="0 0 36 36" fill="none" xmlns="http://www.w3.org/2000/svg">
<path fill-rule="evenodd" clip-rule="evenodd" d="M18 34.9615C8.6324 34.9615 1.03846 27.3676 1.03846 18C1.03846 8.6324 8.6324 1.03846 18 1.03846C27.3676 1.03846 34.9615 8.6324 34.9615 18C34.9615 27.3676 27.3676 34.9615 18 34.9615ZM18 36C8.05888 36 0 27.9411 0 18C0 8.05887 8.05888 0 18 0C27.9411 0 36 8.05887 36 18C36 27.9411 27.9411 36 18 36Z" fill="#3E3F43"/>
<path fill-rule="evenodd" clip-rule="evenodd" d="M1.03846 18C1.03846 27.3676 8.6324 34.9615 18 34.9615C27.3676 34.9615 34.9615 27.3676 34.9615 18C34.9615 8.6324 27.3676 1.03846 18 1.03846C8.6324 1.03846 1.03846 8.6324 1.03846 18ZM16.3636 10.3636C16.1608 10.1608 15.8321 10.1608 15.6293 10.3636C15.4265 10.5664 15.4265 10.8952 15.6293 11.0979L22.5314 18L15.6293 24.9021C15.4265 25.1049 15.4265 25.4336 15.6293 25.6364C15.8321 25.8392 16.1608 25.8392 16.3636 25.6364L24 18L16.3636 10.3636Z" fill="#3E3F43"/>
</svg>
