<svg width="337" height="654" viewBox="0 0 337 654" fill="none" xmlns="http://www.w3.org/2000/svg">
<g filter="url(#filter0_f)">
<path d="M156.791 552.659C140.657 552.659 126.316 545.48 117.353 536.506C106.597 525.737 101.219 511.379 101.219 497.02C101.219 480.867 108.39 466.508 117.353 457.534C128.109 446.765 142.45 441.381 156.791 441.381L212.362 441.381L212.362 497.02C212.362 513.173 205.191 527.532 196.228 536.506C187.265 545.48 172.924 552.659 156.791 552.659ZM97.6342 556.249C111.975 570.607 133.487 581.376 156.791 581.376C180.095 581.376 201.606 572.402 215.947 556.249C230.288 541.89 241.044 520.353 241.044 497.02L241.044 412.664L156.791 412.664C133.487 412.664 111.975 421.638 97.6342 437.791C83.2932 452.15 72.5375 473.688 72.5375 497.02C72.5375 518.558 83.2932 540.096 97.6342 556.249Z" fill="#EBEBEB"/>
<path d="M101.219 156.98C101.219 140.827 108.39 126.468 117.353 117.494C128.109 106.725 142.45 101.341 156.791 101.341C172.924 101.341 187.265 108.52 196.228 117.494C206.984 128.263 212.362 142.621 212.362 156.98L212.362 212.619L156.791 212.619C140.657 212.619 126.316 205.44 117.353 196.466C106.597 187.492 101.219 173.133 101.219 156.98ZM97.6342 97.7511C83.2932 112.11 72.5375 133.647 72.5375 156.98C72.5375 180.312 81.5006 201.85 97.6342 216.209C111.975 230.567 133.487 241.336 156.791 241.336L241.044 241.336L241.044 156.98C241.044 133.647 232.081 112.11 215.947 97.7511C201.606 83.3926 180.095 72.6237 156.791 72.6237C133.487 72.6237 113.768 83.3926 97.6342 97.7511Z" fill="#EBEBEB"/>
<path d="M47.083 367.947C36.2631 357.094 30.8531 342.625 30.8531 328.155C30.8531 313.685 36.2631 299.215 47.083 288.363C57.9029 277.511 72.3294 272.084 86.756 272.084C101.183 272.084 115.609 277.511 126.429 288.363L166.102 328.155L126.429 367.947C115.609 378.799 101.183 384.225 86.756 384.225C72.3294 384.225 57.9029 378.799 47.083 367.947ZM27.2465 386.034C43.4763 404.121 65.1162 411.356 86.756 411.356C108.396 411.356 130.036 402.313 146.265 386.034L205.775 326.346L146.265 266.658C130.036 250.38 108.396 241.336 86.756 241.336C65.1162 241.336 43.4763 250.38 27.2465 266.658C11.0166 282.937 2.00001 304.641 2.00001 326.346C2.00002 348.051 11.0166 369.755 27.2465 386.034Z" fill="#EBEBEB"/>
<path d="M367.708 606.862C356.921 617.695 342.538 623.112 328.155 623.112C313.772 623.112 299.39 617.695 288.603 606.862C277.815 596.029 272.422 581.585 272.422 567.14C272.422 552.696 277.815 538.252 288.603 527.419L328.155 487.697L367.708 527.419C378.495 538.252 383.889 552.696 383.889 567.14C383.889 581.585 378.495 596.029 367.708 606.862ZM385.686 626.723C401.867 610.473 410.856 588.807 410.856 567.14C410.856 545.474 401.867 523.808 385.686 507.558L337.144 457.003L328.155 447.976L268.826 507.558C252.645 523.808 243.656 545.474 243.656 567.14C243.656 588.807 252.645 610.473 268.826 626.723C285.007 642.972 306.581 652 328.155 652C347.932 650.194 369.506 642.972 385.686 626.723Z" fill="#EBEBEB"/>
<path d="M286.207 47.1381C297.046 36.3049 311.498 30.8884 325.95 30.8884C340.402 30.8884 354.854 36.3049 365.693 47.1381C376.532 57.9712 381.952 72.4154 381.952 86.8596C381.952 101.304 376.532 115.748 365.693 126.581L325.95 166.303L286.207 126.581C275.368 115.748 269.948 101.304 269.948 86.8596C269.948 72.4154 275.368 57.9712 286.207 47.1381ZM266.335 27.2773C250.076 43.527 241.044 65.1933 241.044 86.8596C241.044 108.526 250.076 130.192 266.335 146.442L325.95 206.024L385.565 146.442C401.824 130.192 410.856 108.526 410.856 86.8596C410.856 65.1933 403.63 43.527 385.565 27.2773C369.306 11.0276 347.628 1.99998 325.95 1.99999C304.272 1.99999 282.594 11.0276 266.335 27.2773Z" fill="#EBEBEB"/>
<path d="M231.9 325.692C231.9 350.868 242.752 374.246 259.03 392.229C275.308 408.413 298.82 419.203 325.95 419.203C351.271 419.203 374.784 408.413 392.87 392.229C409.148 376.044 420 352.666 420 325.692C420 300.516 409.148 277.138 392.87 259.155C376.592 242.971 353.08 232.181 325.95 232.181C300.629 232.181 277.116 242.971 259.03 259.155C242.752 277.138 231.9 300.516 231.9 325.692ZM280.734 372.448C277.546 369.278 274.702 365.881 272.231 362.284C267.969 356.08 264.817 349.283 262.921 342.04C261.551 336.805 260.838 331.337 260.838 325.692C260.838 321.442 261.243 317.293 262.027 313.268C263.575 305.319 266.606 297.855 270.936 291.058C273.691 286.732 276.973 282.676 280.734 278.937C283.741 275.946 286.953 273.26 290.344 270.903C296.823 266.4 303.959 263.096 311.581 261.158C316.766 259.841 322.176 259.155 327.759 259.155C332.056 259.155 336.25 259.561 340.319 260.349C353.375 262.878 365.131 269.339 374.784 278.937C387.444 291.525 394.679 307.709 394.679 325.692C394.679 343.675 387.444 359.86 374.784 372.448C365.454 381.724 354.16 388.071 341.625 390.768C337.15 391.731 332.517 392.229 327.759 392.229C322.542 392.229 317.574 391.734 312.888 390.778C305.021 389.172 297.947 386.264 291.82 382.208C287.676 379.464 283.964 376.195 280.734 372.448Z" fill="#EBEBEB"/>
<path fill-rule="evenodd" clip-rule="evenodd" d="M171.813 327.654C171.813 318.662 178.983 313.268 186.153 313.268L262.027 313.268C261.243 317.293 260.838 321.442 260.838 325.692C260.838 331.337 261.551 336.805 262.921 342.04L186.153 342.04C177.19 342.04 171.813 334.847 171.813 327.654ZM220.242 414.885C214.886 420.304 214.886 429.337 220.242 434.756C225.599 440.176 234.527 440.176 239.883 434.756L291.82 382.208C287.676 379.464 283.964 376.195 280.734 372.448C277.546 369.278 274.702 365.881 272.231 362.284L220.242 414.885ZM312.888 466.314C312.888 473.493 318.276 480.672 327.256 480.672C334.441 480.672 341.625 475.288 341.625 466.314L341.625 390.768C337.15 391.731 332.517 392.229 327.759 392.229C322.542 392.229 317.574 391.734 312.888 390.778L312.888 466.314ZM237.426 217.92C232.034 212.522 223.048 212.522 217.656 217.92C212.265 223.318 212.265 232.316 217.656 237.714L270.936 291.058C273.691 286.732 276.973 282.676 280.734 278.937C283.741 275.946 286.953 273.26 290.344 270.903L237.426 217.92ZM340.319 185.182C340.319 177.947 334.93 170.712 325.95 170.712C318.766 170.712 311.581 176.138 311.581 185.182L311.581 261.158C316.766 259.841 322.176 259.155 327.759 259.155C332.056 259.155 336.25 259.561 340.319 260.349L340.319 185.182Z" fill="#EBEBEB"/>
</g>
<defs>
<filter id="filter0_f" x="0" y="0" width="422" height="654" filterUnits="userSpaceOnUse" color-interpolation-filters="sRGB">
<feFlood flood-opacity="0" result="BackgroundImageFix"/>
<feBlend mode="normal" in="SourceGraphic" in2="BackgroundImageFix" result="shape"/>
<feGaussianBlur stdDeviation="1" result="effect1_foregroundBlur"/>
</filter>
</defs>
</svg>
