<svg width="168" height="33" viewBox="0 0 168 33" fill="none" xmlns="http://www.w3.org/2000/svg">
<path d="M26.2772 7.38465C26.2772 6.61179 25.9337 5.92481 25.5043 5.49545C24.9891 4.98021 24.3021 4.72259 23.6151 4.72259C22.8423 4.72259 22.1553 5.06609 21.7259 5.49545C21.2107 6.01069 20.9531 6.69767 20.9531 7.38465V10.0467H23.6151C24.388 10.0467 25.075 9.70321 25.5043 9.27385C25.9337 8.84448 26.2772 8.1575 26.2772 7.38465ZM26.4489 4.55085C27.1359 5.23783 27.6511 6.2683 27.6511 7.38465C27.6511 8.50099 27.2218 9.53146 26.4489 10.2184C25.7619 10.9054 24.7315 11.4207 23.6151 11.4207H20.2661H19.5791V10.7337V7.38465C19.5791 6.2683 20.0085 5.23783 20.7813 4.55085C21.4683 3.86387 22.4988 3.34863 23.6151 3.34863C24.6456 3.34863 25.6761 3.86387 26.4489 4.55085Z" fill="#A4BDDE"/>
<path d="M7.38514 4.72259C6.61228 4.72259 5.9253 5.06609 5.49594 5.49545C4.9807 6.01069 4.72308 6.69767 4.72308 7.38465C4.72308 8.1575 5.06657 8.84448 5.49594 9.27385C6.01117 9.78908 6.69815 10.0467 7.38514 10.0467H10.0472V7.38465C10.0472 6.61179 9.7037 5.92481 9.27433 5.49545C8.84497 4.98021 8.15799 4.72259 7.38514 4.72259ZM4.55134 4.55085C5.23832 3.86387 6.26879 3.34863 7.38514 3.34863C8.50148 3.34863 9.53195 3.778 10.2189 4.55085C10.9059 5.23783 11.4212 6.2683 11.4212 7.38465V10.7337V11.4207H10.7342H7.38514C6.26879 11.4207 5.23832 10.9913 4.55134 10.2184C3.86436 9.53146 3.34912 8.50099 3.34912 7.38465C3.34912 6.2683 3.86436 5.3237 4.55134 4.55085Z" fill="#A4BDDE"/>
<path d="M17.432 2.14682C16.9167 1.63158 16.2298 1.37396 15.5428 1.37396C14.8558 1.37396 14.1688 1.63158 13.6536 2.14682C13.1384 2.66205 12.8807 3.34903 12.8807 4.03602C12.8807 4.723 13.1384 5.40998 13.6536 5.92521L15.5428 7.81441L17.432 5.92521C17.9472 5.40998 18.2048 4.723 18.2048 4.03602C18.2048 3.34903 17.9472 2.66205 17.432 2.14682ZM18.2907 1.20222C19.1494 1.97507 19.4929 3.00554 19.4929 4.03602C19.4929 5.06649 19.0636 6.09696 18.2907 6.86981L15.8863 9.27425L15.4569 9.70361L15.0276 9.27425L12.6231 6.86981C11.8503 6.09696 11.4209 5.06649 11.4209 4.03602C11.4209 3.00554 11.8503 1.97507 12.6231 1.20222C13.396 0.429363 14.4264 0 15.4569 0C16.4874 0 17.5179 0.429363 18.2907 1.20222Z" fill="#A4BDDE"/>
<path d="M10.3045 11.2491C10.0469 10.9915 10.0469 10.5622 10.3045 10.3045C10.5622 10.0469 10.9915 10.0469 11.2491 10.3045L15.9721 15.0275C16.2298 15.2852 16.2298 15.7145 15.9721 15.9721C15.7145 16.2298 15.2852 16.2298 15.0275 15.9721L10.3045 11.2491Z" fill="#A4BDDE"/>
<path d="M19.6648 10.3905C19.9224 10.1329 20.3518 10.1329 20.6094 10.3905C20.867 10.6481 20.867 11.0775 20.6094 11.3351L15.9723 15.9722C15.7147 16.2298 15.2853 16.2298 15.0277 15.9722C14.7701 15.7146 14.7701 15.2852 15.0277 15.0276L19.6648 10.3905Z" fill="#A4BDDE"/>
<path d="M28.8532 17.432C29.3684 16.9168 29.626 16.2298 29.626 15.5429C29.626 14.8559 29.3684 14.1689 28.8532 13.6537C28.3379 13.1384 27.651 12.8808 26.964 12.8808C26.277 12.8808 25.59 13.1384 25.0748 13.6537L23.1856 15.5429L25.0748 17.432C25.59 17.9473 26.277 18.2049 26.964 18.2049C27.651 18.2049 28.3379 17.9473 28.8532 17.432ZM29.7978 18.2908C29.0249 19.0636 27.9945 19.493 26.964 19.493C25.9335 19.493 24.903 19.0636 24.1302 18.2908L21.7258 15.9722L21.2964 15.5429L21.7258 15.1135L24.1302 12.7091C24.903 11.9362 25.9335 11.5068 26.964 11.5068C27.9945 11.5068 29.0249 11.9362 29.7978 12.7091C30.5706 13.4819 31 14.5124 31 15.5429C30.9141 16.4874 30.5706 17.5179 29.7978 18.2908Z" fill="#A4BDDE"/>
<path d="M23.6151 26.2772C24.388 26.2772 25.075 25.9337 25.5043 25.5043C26.0196 24.9891 26.2772 24.3021 26.2772 23.6151C26.2772 22.8423 25.9337 22.1553 25.5043 21.7259C24.9891 21.2107 24.3021 20.8672 23.6151 20.8672H20.8672V23.5292C20.8672 24.3021 21.2107 24.9891 21.64 25.4184C22.1553 25.9337 22.8423 26.2772 23.6151 26.2772ZM26.4489 26.4489C25.7619 27.1359 24.7315 27.6511 23.6151 27.6511C22.4988 27.6511 21.4683 27.2218 20.7813 26.4489C20.0943 25.7619 19.5791 24.7315 19.5791 23.6151V20.2661V19.5791H20.2661H23.6151C24.7315 19.5791 25.7619 20.0085 26.4489 20.7813C27.1359 21.4683 27.6511 22.4988 27.6511 23.6151C27.5653 24.6456 27.1359 25.6761 26.4489 26.4489Z" fill="#A4BDDE"/>
<path fill-rule="evenodd" clip-rule="evenodd" d="M13.1384 31.0005C14.4265 32.2886 16.5733 32.2886 17.8614 31.0005C19.1495 29.7124 19.1495 27.5656 17.8614 26.2775L15.4569 23.873L13.1384 26.1916C11.7644 27.4797 11.7644 29.6265 13.1384 31.0005Z" fill="#A4BDDE"/>
<path d="M13.5677 30.4845C14.083 30.9998 14.7699 31.2574 15.4569 31.2574C16.1439 31.2574 16.8309 30.9998 17.3461 30.4845C17.8613 29.9693 18.119 29.2823 18.119 28.5953C18.119 27.9083 17.8613 27.2214 17.3461 26.7061L15.4569 24.8169L13.5677 26.7061C13.0525 27.2214 12.7949 27.9083 12.7949 28.5953C12.7949 29.2823 13.0525 29.9693 13.5677 30.4845ZM12.6231 31.4291C11.8503 30.6563 11.4209 29.6258 11.4209 28.5953C11.4209 27.5649 11.8503 26.5344 12.6231 25.7615L15.0276 23.3571L15.4569 22.9277L15.8863 23.3571L18.2907 25.7615C19.0636 26.5344 19.4929 27.5649 19.4929 28.5953C19.4929 29.6258 19.0636 30.6563 18.2907 31.4291C17.5179 32.202 16.4874 32.6313 15.4569 32.6313C14.4264 32.6313 13.396 32.202 12.6231 31.4291Z" fill="#A4BDDE"/>
<path d="M4.72308 23.6151C4.72308 24.388 5.06657 25.075 5.49594 25.5043C6.01117 26.0196 6.69815 26.2772 7.38514 26.2772C8.15799 26.2772 8.84497 25.9337 9.27433 25.5043C9.78957 24.9891 10.0472 24.3021 10.0472 23.6151V20.8672H7.38514C6.61228 20.8672 5.9253 21.2107 5.49594 21.64C4.9807 22.1553 4.72308 22.8423 4.72308 23.6151ZM4.55134 26.4489C3.86436 25.7619 3.34912 24.7315 3.34912 23.6151C3.34912 22.4988 3.77848 21.4683 4.55134 20.7813C5.23832 20.0943 6.26879 19.5791 7.38514 19.5791H10.7342H11.4212V20.2661V23.6151C11.4212 24.7315 10.9918 25.7619 10.2189 26.4489C9.53195 27.1359 8.50148 27.6511 7.38514 27.6511C6.26879 27.5653 5.32419 27.1359 4.55134 26.4489Z" fill="#A4BDDE"/>
<path d="M2.14682 13.5677C1.63158 14.083 1.37396 14.7699 1.37396 15.4569C1.37396 16.1439 1.63158 16.8309 2.14682 17.3461C2.66205 17.8613 3.34903 18.119 4.03602 18.119C4.723 18.119 5.40998 17.8613 5.92521 17.3461L7.81441 15.4569L5.92521 13.5677C5.40998 13.0525 4.723 12.7949 4.03602 12.7949C3.34903 12.7949 2.66205 13.0525 2.14682 13.5677ZM1.20222 12.6231C1.97507 11.8503 3.00554 11.4209 4.03602 11.4209C5.06649 11.4209 6.09696 11.8503 6.86981 12.6231L9.27425 15.0276L9.70361 15.4569L9.27425 15.8863L6.86981 18.2907C6.09696 19.0636 5.06649 19.4929 4.03602 19.4929C3.00554 19.4929 1.97507 19.1494 1.20222 18.2907C0.429363 17.5179 0 16.4874 0 15.4569C0 14.4264 0.429363 13.396 1.20222 12.6231Z" fill="#A4BDDE"/>
<path d="M8.75876 16.1445C8.41527 16.1445 8.07178 15.8869 8.07178 15.4575C8.07178 15.114 8.32939 14.7705 8.75876 14.7705H15.4568C15.8003 14.7705 16.1438 15.0281 16.1438 15.4575C16.1438 15.801 15.8862 16.1445 15.4568 16.1445H8.75876Z" fill="#A4BDDE"/>
<path d="M11.0778 20.7816C10.8201 21.0393 10.3908 21.0393 10.1332 20.7816C9.87554 20.524 9.87554 20.0947 10.1332 19.837L14.942 15.0282C15.1996 14.7706 15.629 14.7706 15.8866 15.0282C16.1442 15.2858 16.1442 15.7152 15.8866 15.9728L11.0778 20.7816Z" fill="#A4BDDE"/>
<path d="M20.867 19.9229C21.1246 20.1805 21.1246 20.6099 20.867 20.8675C20.6094 21.1251 20.18 21.1251 19.9224 20.8675L15.0277 15.9728C14.7701 15.7152 14.7701 15.2858 15.0277 15.0282C15.2853 14.7706 15.7147 14.7706 15.9723 15.0282L20.867 19.9229Z" fill="#A4BDDE"/>
<path d="M22.1551 14.8564C22.4986 14.8564 22.842 15.1141 22.842 15.5434C22.842 15.8869 22.5844 16.2304 22.1551 16.2304H15.457C15.1135 16.2304 14.77 15.9728 14.77 15.5434C14.77 15.1999 15.0276 14.8564 15.457 14.8564H22.1551Z" fill="#A4BDDE"/>
<path d="M14.856 8.75925C14.856 8.41576 15.1136 8.07227 15.5429 8.07227C15.8864 8.07227 16.2299 8.32988 16.2299 8.75925V15.4573C16.2299 15.8008 15.9723 16.1443 15.5429 16.1443C15.1994 16.1443 14.856 15.8867 14.856 15.4573V8.75925Z" fill="#A4BDDE"/>
<path fill-rule="evenodd" clip-rule="evenodd" d="M15.4571 11.6787C17.5181 11.6787 19.2355 13.3962 19.2355 15.4571C19.2355 17.5181 17.5181 19.2355 15.4571 19.2355C13.3962 19.2355 11.6787 17.5181 11.6787 15.4571C11.6787 13.3962 13.3962 11.6787 15.4571 11.6787Z" fill="#4A5C76"/>
<path d="M15.4571 10.9922C16.6593 10.9922 17.7756 11.5074 18.6344 12.2803C19.4072 13.0531 19.9225 14.1695 19.9225 15.4576C19.9225 16.6598 19.4072 17.7761 18.6344 18.6349C17.8615 19.4077 16.7452 19.9229 15.4571 19.9229C14.2549 19.9229 13.1385 19.4077 12.2798 18.6349C11.5069 17.862 10.9917 16.7457 10.9917 15.4576C10.9917 14.2553 11.5069 13.139 12.2798 12.2803C13.1385 11.5074 14.2549 10.9922 15.4571 10.9922ZM17.6898 13.3108C17.0887 12.7096 16.3158 12.3662 15.4571 12.3662C14.5984 12.3662 13.8255 12.7096 13.2244 13.3108C12.6233 13.9119 12.2798 14.6847 12.2798 15.5434C12.2798 16.4022 12.6233 17.175 13.2244 17.7761C13.8255 18.3772 14.5984 18.7207 15.4571 18.7207C16.3158 18.7207 17.0887 18.3772 17.6898 17.7761C18.2909 17.175 18.6344 16.4022 18.6344 15.5434C18.6344 14.5988 18.2909 13.826 17.6898 13.3108Z" fill="#A4BDDE"/>
<path d="M56.8333 17.488H55.2013V22H52.6573V17.488H50.9933L48.4813 22H45.4893L48.8493 16.144L45.6973 10.8H48.4333L50.9453 15.328H52.6573V10.8H55.2013V15.328H56.8653L59.3933 10.8H62.1293L58.9933 16.144L62.3373 22H59.3453L56.8333 17.488ZM63.5795 10.8H66.1555V18.096L71.4995 10.8H73.9315V22H71.3715V14.72L66.0275 22H63.5795V10.8ZM84.4801 16.16C85.1628 16.3627 85.6855 16.6933 86.0481 17.152C86.4108 17.6107 86.5921 18.176 86.5921 18.848C86.5921 19.84 86.2135 20.6133 85.4561 21.168C84.7095 21.7227 83.6375 22 82.2401 22H76.7201V10.8H81.9361C83.2375 10.8 84.2508 11.0507 84.9761 11.552C85.7015 12.0533 86.0641 12.768 86.0641 13.696C86.0641 14.2507 85.9255 14.7413 85.6481 15.168C85.3708 15.584 84.9815 15.9147 84.4801 16.16ZM79.2961 15.44H81.7121C82.2775 15.44 82.7041 15.328 82.9921 15.104C83.2801 14.8693 83.4241 14.528 83.4241 14.08C83.4241 13.6427 83.2748 13.3067 82.9761 13.072C82.6881 12.8373 82.2668 12.72 81.7121 12.72H79.2961V15.44ZM82.1441 20.08C83.3601 20.08 83.9681 19.6 83.9681 18.64C83.9681 17.712 83.3601 17.248 82.1441 17.248H79.2961V20.08H82.1441ZM96.226 19.6H91.026L90.034 22H87.378L92.37 10.8H94.93L99.938 22H97.218L96.226 19.6ZM95.41 17.632L93.634 13.344L91.858 17.632H95.41ZM109.789 10.8V22H107.229V19.024H104.861L102.877 22H100.141L102.477 18.624C101.72 18.3147 101.138 17.8507 100.733 17.232C100.328 16.6027 100.125 15.8507 100.125 14.976C100.125 14.112 100.322 13.3707 100.717 12.752C101.112 12.1227 101.672 11.6427 102.397 11.312C103.122 10.9707 103.976 10.8 104.957 10.8H109.789ZM105.021 12.912C104.285 12.912 103.72 13.0827 103.325 13.424C102.941 13.7653 102.749 14.272 102.749 14.944C102.749 15.5947 102.936 16.096 103.309 16.448C103.682 16.8 104.232 16.976 104.957 16.976H107.229V12.912H105.021ZM124.886 16.16C125.569 16.3627 126.092 16.6933 126.454 17.152C126.817 17.6107 126.998 18.176 126.998 18.848C126.998 19.84 126.62 20.6133 125.862 21.168C125.116 21.7227 124.044 22 122.646 22H117.126V10.8H122.342C123.644 10.8 124.657 11.0507 125.382 11.552C126.108 12.0533 126.47 12.768 126.47 13.696C126.47 14.2507 126.332 14.7413 126.054 15.168C125.777 15.584 125.388 15.9147 124.886 16.16ZM119.702 15.44H122.118C122.684 15.44 123.11 15.328 123.398 15.104C123.686 14.8693 123.83 14.528 123.83 14.08C123.83 13.6427 123.681 13.3067 123.382 13.072C123.094 12.8373 122.673 12.72 122.118 12.72H119.702V15.44ZM122.55 20.08C123.766 20.08 124.374 19.6 124.374 18.64C124.374 17.712 123.766 17.248 122.55 17.248H119.702V20.08H122.55ZM134.392 22.192C133.23 22.192 132.179 21.9413 131.24 21.44C130.312 20.9387 129.582 20.2507 129.048 19.376C128.526 18.4907 128.264 17.4987 128.264 16.4C128.264 15.3013 128.526 14.3147 129.048 13.44C129.582 12.5547 130.312 11.8613 131.24 11.36C132.179 10.8587 133.23 10.608 134.392 10.608C135.555 10.608 136.6 10.8587 137.528 11.36C138.456 11.8613 139.187 12.5547 139.72 13.44C140.254 14.3147 140.52 15.3013 140.52 16.4C140.52 17.4987 140.254 18.4907 139.72 19.376C139.187 20.2507 138.456 20.9387 137.528 21.44C136.6 21.9413 135.555 22.192 134.392 22.192ZM134.392 19.984C135.054 19.984 135.651 19.8347 136.184 19.536C136.718 19.2267 137.134 18.8 137.432 18.256C137.742 17.712 137.896 17.0933 137.896 16.4C137.896 15.7067 137.742 15.088 137.432 14.544C137.134 14 136.718 13.5787 136.184 13.28C135.651 12.9707 135.054 12.816 134.392 12.816C133.731 12.816 133.134 12.9707 132.6 13.28C132.067 13.5787 131.646 14 131.336 14.544C131.038 15.088 130.888 15.7067 130.888 16.4C130.888 17.0933 131.038 17.712 131.336 18.256C131.646 18.8 132.067 19.2267 132.6 19.536C133.134 19.8347 133.731 19.984 134.392 19.984ZM153.757 19.888V24.32H151.357V22H143.453V24.32H141.053L141.069 19.888H141.517C142.189 19.8667 142.663 19.376 142.941 18.416C143.218 17.456 143.389 16.0853 143.453 14.304L143.581 10.8H152.189V19.888H153.757ZM145.741 14.544C145.687 15.8773 145.575 16.9973 145.405 17.904C145.234 18.8 144.973 19.4613 144.621 19.888H149.628V12.912H145.789L145.741 14.544ZM163.179 19.6H157.979L156.987 22H154.331L159.323 10.8H161.883L166.891 22H164.171L163.179 19.6ZM162.363 17.632L160.587 13.344L158.811 17.632H162.363Z" fill="#A4BDDE"/>
</svg>
