<svg width="10" height="13" viewBox="0 0 10 13" fill="none" xmlns="http://www.w3.org/2000/svg">
<path d="M2.20042 0.416504C1.43023 0.416504 0.799805 1.02397 0.799805 1.7679V11.505C0.799805 12.2489 1.43023 12.8564 2.20042 12.8564H7.79983C8.57001 12.8564 9.20044 12.2489 9.20044 11.505V1.7679C9.20044 1.02397 8.57001 0.416504 7.79983 0.416504H2.20042ZM2.82021 0.956476H7.18003C7.11319 1.06652 7.06458 1.18831 7.0418 1.32037L6.95673 1.81192C6.95673 1.81339 6.95673 1.81339 6.95673 1.81339C6.93394 1.94545 6.81849 2.03935 6.68025 2.03935H3.32C3.18176 2.03935 3.0663 1.94545 3.04352 1.81192L2.95845 1.32037C2.93566 1.18831 2.88705 1.06652 2.82021 0.956476ZM2.01205 0.978486C2.01509 0.979953 2.01964 0.98142 2.02268 0.982888C2.21865 1.04305 2.37056 1.20298 2.40701 1.40841L2.49208 1.90143C2.55892 2.29173 2.91136 2.57933 3.32 2.57933H6.68025C7.08889 2.57933 7.44132 2.29173 7.50816 1.90143L7.59323 1.40841C7.62969 1.19858 7.78919 1.03571 7.98972 0.978486C8.36341 1.06212 8.63989 1.38053 8.63989 1.7679V11.505C8.63989 11.9555 8.26771 12.3164 7.79983 12.3164H2.20042C1.73253 12.3164 1.36035 11.9555 1.36035 11.505V1.7679C1.36035 1.38053 1.63683 1.06066 2.01205 0.978486ZM4.16006 1.22793C4.0598 1.22646 3.96561 1.27782 3.91396 1.36145C3.86383 1.44509 3.86383 1.54927 3.91396 1.63438C3.96561 1.71801 4.0598 1.76937 4.16006 1.7679H5.00012C5.10038 1.76937 5.19457 1.71801 5.24622 1.63438C5.29635 1.54927 5.29635 1.44509 5.24622 1.36145C5.19457 1.27782 5.10038 1.22646 5.00012 1.22793H4.16006ZM5.84019 1.22793C5.68524 1.22793 5.56067 1.34825 5.56067 1.49792C5.56067 1.64758 5.68524 1.7679 5.84019 1.7679C5.99513 1.7679 6.1197 1.64758 6.1197 1.49792C6.1197 1.34825 5.99513 1.22793 5.84019 1.22793Z" fill="#3E3F43"/>
</svg>
