<svg width="66" height="66" viewBox="0 0 66 66" fill="none" xmlns="http://www.w3.org/2000/svg">
<path d="M31.351 16.1704C26.5128 16.1704 22.9462 17.7942 20.6399 20.3383C18.3336 22.8846 17.292 26.2943 17.292 29.8354C17.292 32.7038 18.2118 35.3772 19.7607 37.5642C21.1629 39.5451 21.9791 41.8789 21.9791 44.274V48.707H23.3182V44.274C23.3182 41.6159 22.4074 39.0411 20.8901 36.8717L20.8496 36.8104C19.4495 34.8338 18.6312 32.4343 18.6312 29.8354C18.6312 26.5441 19.5983 23.4478 21.6431 21.1929C23.688 18.938 26.8172 17.472 31.351 17.472C35.905 17.472 38.8584 18.7562 40.8085 20.7261C42.7564 22.6961 43.7123 25.4156 44.0708 28.3519L44.0933 28.4943L44.1542 28.5951L47.315 33.8631H47.2924C47.4615 34.1545 47.3781 34.4372 47.085 34.595V34.6147L44.0708 36.0785V39.9834C44.0708 42.4179 42.0057 44.3178 39.5099 44.0899H39.4896L37.4178 43.9475L36.7076 43.908V48.707H38.0468V45.2907L39.3859 45.3915C39.3927 45.3915 39.3972 45.3915 39.4062 45.3915C42.6595 45.6742 45.4099 43.1367 45.4099 39.9834V36.8717L47.7118 35.7542H47.732L47.7546 35.7322C48.6654 35.2392 48.9675 34.1107 48.4647 33.232V33.2122L45.3693 28.0057C44.9703 24.9576 43.9423 22.03 41.7712 19.8299C39.5505 17.586 36.171 16.1704 31.351 16.1704ZM29.1123 20.0753L29.0085 20.6232L28.6726 22.5559C28.3615 22.6479 28.0617 22.775 27.7731 22.9218L26.1206 21.7626L25.6606 21.4383L25.2638 21.824L23.8413 23.187L23.4422 23.5924L23.7781 24.0394L24.9708 25.6456C24.8287 25.9108 24.7025 26.2044 24.5943 26.5222L22.5224 26.9276L21.9791 27.0305V30.0589L22.5427 30.1619L24.5311 30.4862C24.6416 30.804 24.7656 31.0976 24.9076 31.3606L23.715 32.9668L23.3791 33.4138L23.7781 33.8017L25.1782 35.1844L25.5975 35.5701L26.0574 35.2458L27.71 34.0866C27.9828 34.2224 28.2826 34.3451 28.6095 34.4525L28.9454 36.3831L29.0491 36.9331H32.1874L32.2708 36.3831L32.627 34.3912C32.9404 34.2816 33.2425 34.1611 33.5265 34.0252L35.2422 35.1844L35.7021 35.489L36.1012 35.1033L37.5237 33.7403L37.9205 33.3547L37.5869 32.9055L36.3942 31.2992C36.5318 31.0406 36.6603 30.7558 36.7707 30.4468L38.7998 30.1619L39.3859 30.0809V27.0086L38.8201 26.9078L36.7707 26.5813C36.6738 26.2877 36.5498 25.9875 36.3942 25.6873L37.5869 24.0197L37.9205 23.5727L37.5237 23.187L36.1012 21.824L35.7021 21.4383L35.2422 21.7626L33.5897 22.9218C33.3169 22.7838 33.017 22.6633 32.6901 22.5559L32.3565 20.6232L32.2505 20.0753H29.1123ZM30.2418 21.377H31.121L31.4344 23.1037L31.4975 23.5529L31.9371 23.634C32.4354 23.7392 32.9156 23.9759 33.3597 24.2235L33.7362 24.4273L34.0924 24.1818L35.5781 23.1454L36.162 23.7348L35.0957 25.2402L34.8251 25.5865L35.0754 25.9524C35.3684 26.406 35.5398 26.864 35.6615 27.3351L35.7652 27.7405L36.2049 27.8019L38.0468 28.1065V28.9414L35.7449 29.246L35.6615 29.693C35.5511 30.1795 35.3076 30.644 35.0551 31.0757L34.8454 31.4417L35.0957 31.7879L36.162 33.2122L35.5556 33.8017L34.009 32.7433L33.6934 32.5198L33.3169 32.7038C32.7826 32.9624 32.2866 33.2079 31.8537 33.313L31.4344 33.4138L31.351 33.8214L31.0376 35.6314H30.1786L29.8653 33.8828L29.8021 33.4555L29.3625 33.3744C28.8643 33.267 28.3863 33.0304 27.9399 32.7849L27.5634 32.5811L27.2095 32.8244L25.7441 33.8631L25.1376 33.2933L26.204 31.8492L26.4565 31.503L26.2468 31.1371C25.992 30.7054 25.7486 30.2408 25.6403 29.7543L25.5569 29.327L25.0948 29.2657L23.3182 28.9611V28.0868L25.1782 27.7405L25.6178 27.6595L25.7012 27.2541C25.8117 26.7676 26.0552 26.303 26.3099 25.8713L26.5173 25.5054L26.2671 25.1592L25.2007 23.7348L25.7869 23.1454L27.2703 24.1818L27.6694 24.447L28.0662 24.1818C28.4427 23.9211 28.88 23.7502 29.4256 23.634L29.8653 23.5529L29.9284 23.1037L30.2418 21.377ZM30.6814 25.2797C28.844 25.2797 27.3335 26.7479 27.3335 28.5338C27.3335 30.3219 28.844 31.7879 30.6814 31.7879C32.521 31.7879 34.0293 30.3219 34.0293 28.5338C34.0293 26.7479 32.521 25.2797 30.6814 25.2797ZM30.6814 26.5813C31.7906 26.5813 32.6901 27.4557 32.6901 28.5338C32.6901 29.6119 31.7906 30.4862 30.6814 30.4862C29.5722 30.4862 28.6726 29.6119 28.6726 28.5338C28.6726 27.4557 29.5722 26.5813 30.6814 26.5813Z" fill="white"/>
<circle cx="32.9995" cy="33" r="32.5366" fill="white"/>
<path d="M33 13.9268C31.2085 13.9268 29.7412 15.418 29.7357 17.2359L20.7092 22.4776C20.1102 21.8157 19.2612 21.3913 18.3132 21.3913C16.5189 21.3913 15.0488 22.8853 15.0488 24.706C15.0488 26.2419 16.0957 27.5321 17.4971 27.9035V38.0963C16.0957 38.4678 15.0488 39.7579 15.0488 41.2938C15.0488 43.1146 16.5189 44.6086 18.3132 44.6086C19.2612 44.6086 20.1102 44.1841 20.7092 43.5223L29.7357 48.7639C29.7412 50.5819 31.2085 52.0731 33 52.0731C34.7916 52.0731 36.2589 50.5819 36.2644 48.7639L45.2908 43.5223C45.8899 44.1841 46.7389 44.6086 47.6869 44.6086C49.4812 44.6086 50.9513 43.1146 50.9513 41.2938C50.9513 39.7579 49.9044 38.4678 48.503 38.0963V27.9035C49.9044 27.5321 50.9513 26.2419 50.9513 24.706C50.9513 22.8853 49.4812 21.3913 47.6869 21.3913C46.7389 21.3913 45.8899 21.8157 45.2908 22.4776L36.2644 17.2359C36.2589 15.418 34.7916 13.9268 33 13.9268ZM33 15.5855C33.9123 15.5855 34.6322 16.3172 34.6322 17.2443C34.6322 18.1687 33.9123 18.9031 33 18.9031C32.0878 18.9031 31.3679 18.1687 31.3679 17.2443C31.3679 16.3172 32.0878 15.5855 33 15.5855ZM30.1836 18.8863C30.7496 19.8805 31.7965 20.5619 33 20.5619C34.2036 20.5619 35.2505 19.8805 35.8165 18.8863L44.5215 23.9437C44.4638 24.1894 44.4226 24.4435 44.4226 24.706C44.4226 26.2419 45.4722 27.5321 46.8708 27.9035V38.0963C45.4722 38.4678 44.4226 39.7579 44.4226 41.2938C44.4226 41.5563 44.4638 41.8104 44.5215 42.0562L35.8165 47.1135C35.2505 46.1194 34.2036 45.438 33 45.438C31.7965 45.438 30.7496 46.1194 30.1836 47.1135L21.4786 42.0562C21.5363 41.8104 21.5775 41.5563 21.5775 41.2938C21.5775 39.7579 20.5279 38.4678 19.1293 38.0963V27.9035C20.5279 27.5321 21.5775 26.2419 21.5775 24.706C21.5775 24.4435 21.5363 24.1894 21.4786 23.9437L30.1836 18.8863ZM18.3132 23.0473C19.2227 23.0473 19.9454 23.7817 19.9454 24.706C19.9454 25.608 19.2612 26.3173 18.3846 26.3564C18.3572 26.3536 18.3297 26.3536 18.2994 26.3536C18.2802 26.3536 18.2582 26.3564 18.2362 26.3564C17.3625 26.3173 16.681 25.608 16.681 24.706C16.681 23.7817 17.4009 23.0473 18.3132 23.0473ZM47.6869 23.0473C48.5992 23.0473 49.3191 23.7817 49.3191 24.706C49.3191 25.608 48.6349 26.3173 47.7611 26.3564C47.7336 26.3536 47.7034 26.3536 47.6759 26.3536C47.6539 26.3536 47.6347 26.3564 47.6127 26.3564C46.7389 26.3173 46.0547 25.608 46.0547 24.706C46.0547 23.7817 46.7774 23.0473 47.6869 23.0473ZM33.5194 24.706C31.6564 24.706 30.2385 25.3651 29.5021 26.5379C28.8427 27.5935 28.8317 28.9228 29.1394 30.2856C28.9828 30.562 28.8866 30.8888 28.9306 31.2965C28.9801 31.7684 29.0955 32.1454 29.3125 32.4498C29.3922 32.5615 29.5351 32.5671 29.6423 32.6509C29.7522 33.0921 29.8676 33.5473 30.0847 33.8433C30.2358 34.0527 30.3897 34.2259 30.5325 34.3683C30.538 34.3739 30.5463 34.3767 30.5518 34.3822V35.206C30.4968 35.3317 30.4089 35.4462 30.1231 35.611C29.8099 35.7925 29.34 35.9768 28.8317 36.2281C28.3206 36.4795 27.76 36.809 27.3012 37.3563C26.8423 37.9009 26.5235 38.6604 26.4741 39.5876C26.4603 39.8166 26.5428 40.04 26.6966 40.2047C26.8505 40.3695 27.0649 40.4644 27.2874 40.4644H38.7127C38.9352 40.4644 39.1496 40.3695 39.3034 40.2047C39.4573 40.04 39.5398 39.8166 39.526 39.5876C39.4766 38.6604 39.1578 37.9009 38.6989 37.3563C38.2401 36.809 37.6795 36.4795 37.1684 36.2281C36.6601 35.9768 36.1902 35.7897 35.877 35.6082C35.5912 35.4462 35.5033 35.3317 35.4483 35.206V34.3739C35.4566 34.3655 35.4648 34.3599 35.473 34.3515C35.6159 34.2091 35.7671 34.0332 35.9154 33.8237C36.1243 33.5305 36.2342 33.0893 36.3441 32.662C36.4513 32.581 36.5941 32.5755 36.6738 32.461C36.8909 32.1566 37.0063 31.7824 37.0585 31.3076C37.0915 30.9921 37.064 30.6961 36.9568 30.4224C36.9404 30.3861 36.8772 30.3665 36.8607 30.3302C37.0887 29.3808 37.1629 28.3671 36.8002 27.4372C36.4567 26.5519 35.5665 25.9431 34.4536 25.7225L34.286 25.2534C34.1679 24.9266 33.8629 24.706 33.5194 24.706ZM32.9808 26.457L33.0495 26.6497C33.1677 26.9764 33.4727 27.1942 33.8161 27.1942C34.7888 27.1942 35.0719 27.5042 35.2834 28.0459C35.4923 28.5905 35.4703 29.4729 35.2285 30.2688C35.1378 30.5648 35.2202 30.886 35.4373 31.1038C35.4373 31.1177 35.4373 31.1038 35.4346 31.1289C35.4098 31.3607 35.3741 31.4082 35.3659 31.4277C35.0774 31.5646 34.8905 31.8578 34.8905 32.1817C34.8905 32.2822 34.7779 32.5922 34.5938 32.8519C34.5003 32.9832 34.3987 33.1005 34.3162 33.1842C34.2338 33.268 34.1321 33.3322 34.2283 33.2764C33.9728 33.4216 33.8161 33.6981 33.8161 33.9941V35.4322C33.8161 35.5244 33.8326 35.6138 33.8601 35.7003C34.0854 36.365 34.5965 36.781 35.0719 37.0547C35.5472 37.3284 36.0308 37.5099 36.454 37.7193C36.8744 37.926 37.2206 38.1522 37.4597 38.4342C37.5311 38.518 37.5339 38.7051 37.5888 38.8057H28.4113C28.4662 38.7051 28.469 38.518 28.5404 38.4342C28.7795 38.1522 29.1257 37.9288 29.5461 37.7193C29.9692 37.5099 30.4529 37.3284 30.9282 37.0547C31.4036 36.781 31.9147 36.365 32.14 35.7003C32.1675 35.6138 32.184 35.5244 32.184 35.4322V33.9941C32.184 33.6953 32.0246 33.4216 31.769 33.2736C31.8515 33.3211 31.7526 33.2596 31.6701 33.1786C31.5877 33.0977 31.486 32.9832 31.3953 32.8575C31.2112 32.6034 31.0958 32.3046 31.0958 32.1677C31.0958 31.8438 30.9117 31.5506 30.6232 31.4165C30.6122 31.3942 30.5765 31.3495 30.5518 31.115C30.5463 31.0814 30.5545 31.0926 30.5573 31.0814C30.7661 30.8692 30.843 30.5592 30.7634 30.2716C30.4144 29.0317 30.4941 28.0459 30.8815 27.4288C31.2085 26.9066 31.8954 26.5687 32.9808 26.457ZM18.239 39.6434C18.2885 39.6462 18.3379 39.6462 18.3874 39.6434C19.2612 39.6825 19.9454 40.3918 19.9454 41.2938C19.9454 42.2182 19.2227 42.9526 18.3132 42.9526C17.4009 42.9526 16.681 42.2182 16.681 41.2938C16.681 40.3918 17.3652 39.6825 18.239 39.6434ZM47.6155 39.6434C47.6649 39.6462 47.7144 39.6462 47.7638 39.6434C48.6376 39.6825 49.3191 40.3918 49.3191 41.2938C49.3191 42.2182 48.5992 42.9526 47.6869 42.9526C46.7774 42.9526 46.0547 42.2182 46.0547 41.2938C46.0547 40.3918 46.7389 39.6825 47.6155 39.6434ZM33 47.0968C33.9123 47.0968 34.6322 47.8312 34.6322 48.7555C34.6322 49.6827 33.9123 50.4143 33 50.4143C32.0878 50.4143 31.3679 49.6827 31.3679 48.7555C31.3679 47.8312 32.0878 47.0968 33 47.0968Z" fill="#64BC2A"/>
</svg>
