<svg width="69" height="25" viewBox="0 0 69 25" fill="none" xmlns="http://www.w3.org/2000/svg">
<path d="M42.7502 0.192383C36.2954 0.192383 33.0002 3.41059 33.0002 7.51065C33.0002 14.932 41.4525 13.9241 41.4525 17.7379C41.4525 18.3792 40.9672 19.9139 37.4238 19.9139C33.8691 19.9139 31.5671 18.5281 31.5671 18.5281L30.4612 23.5444C30.4612 23.5444 32.7632 24.8615 37.1643 24.8615C41.554 24.8615 47.6252 21.4486 47.6252 16.4896C47.6252 10.5113 39.173 10.0417 39.173 7.38467C39.173 6.0218 40.2112 5.00251 43.2693 5.00251C45.2554 5.00251 47.4898 6.52572 47.4898 6.52572L48.5393 1.38346C48.5393 1.38346 45.5827 0.192383 42.7502 0.192383ZM15.2606 0.650492L9.66341 17.4058C9.66341 17.4058 9.27973 15.9856 9.14432 15.1038C5.95074 7.83132 0.759766 5.13994 0.759766 5.13994L5.70247 24.1399H12.462L21.8171 0.650492H15.2606ZM24.2207 0.650492L20.587 24.1399H26.7598L30.4612 0.650492H24.2207ZM57.5671 0.650492L47.4898 24.1399H53.6061L54.8362 20.7729H62.5098L63.1643 24.1399H68.7502L64.0106 0.650492H57.5671ZM59.9143 7.45338L61.5957 16.2834H56.5289L59.9143 7.45338Z" fill="#A4BDDE"/>
</svg>
