<svg width="44" height="34" viewBox="0 0 44 34" fill="none" xmlns="http://www.w3.org/2000/svg">
<path d="M8.00401 33.7751V31.5283C8.00401 30.6678 7.4736 30.1061 6.5695 30.1061C6.11143 30.1061 5.62924 30.2615 5.27966 30.7395C5.01445 30.3332 4.64076 30.1061 4.07419 30.1061C3.7005 30.1061 3.31475 30.2137 3.01338 30.632V30.1778H2.21777V33.7751H3.01338V31.7912C3.01338 31.1578 3.35091 30.859 3.88132 30.859C4.41172 30.859 4.67692 31.1937 4.67692 31.7912V33.7751H5.47253V31.7912C5.47253 31.1578 5.84622 30.859 6.34046 30.859C6.87087 30.859 7.13607 31.1937 7.13607 31.7912V33.7751H8.00401ZM19.7573 30.1778H18.4674V29.0903H17.6718V30.1778H16.9486V30.8949H17.6718V32.5442C17.6718 33.3688 18.0094 33.8588 18.9135 33.8588C19.251 33.8588 19.6367 33.7512 19.8899 33.5959L19.6609 32.9266C19.4318 33.082 19.1666 33.1178 18.9858 33.1178C18.6121 33.1178 18.4554 32.8907 18.4554 32.5203V30.9068H19.7452V30.1778H19.7573ZM26.4717 30.1061C26.0137 30.1061 25.7123 30.3332 25.5315 30.632V30.1778H24.7359V33.7751H25.5315V31.7554C25.5315 31.1578 25.7967 30.8232 26.2909 30.8232C26.4476 30.8232 26.6284 30.859 26.7852 30.8949L27.0142 30.142C26.8575 30.1061 26.6285 30.1061 26.4717 30.1061ZM16.3097 30.4766C15.936 30.2137 15.4056 30.1061 14.839 30.1061C13.9349 30.1061 13.3322 30.5603 13.3322 31.2654C13.3322 31.8629 13.7902 32.1976 14.5738 32.3171L14.9475 32.3529C15.3573 32.4246 15.5864 32.5442 15.5864 32.7234C15.5864 32.9864 15.285 33.1776 14.7546 33.1776C14.2242 33.1776 13.8144 32.9864 13.5491 32.8071L13.1755 33.4046C13.5853 33.7034 14.1519 33.8588 14.7184 33.8588C15.7793 33.8588 16.382 33.3688 16.382 32.6995C16.382 32.0661 15.8878 31.7315 15.1404 31.612L14.7667 31.5761C14.4291 31.5403 14.1639 31.4686 14.1639 31.2415C14.1639 30.9786 14.4291 30.8351 14.839 30.8351C15.2971 30.8351 15.7431 31.0264 15.9721 31.1339L16.3097 30.4766ZM37.3933 30.1061C36.9352 30.1061 36.6338 30.3332 36.453 30.632V30.1778H35.6574V33.7751H36.453V31.7554C36.453 31.1578 36.7182 30.8232 37.2124 30.8232C37.3691 30.8232 37.55 30.859 37.7067 30.8949L37.9357 30.142C37.767 30.1061 37.5379 30.1061 37.3933 30.1061ZM27.2673 31.9825C27.2673 33.07 28.0268 33.8588 29.1961 33.8588C29.7265 33.8588 30.1002 33.7512 30.4859 33.4525L30.1122 32.819C29.8109 33.0461 29.5095 33.1537 29.172 33.1537C28.5331 33.1537 28.075 32.6995 28.075 31.9944C28.075 31.3251 28.5331 30.871 29.172 30.8351C29.5095 30.8351 29.8109 30.9427 30.1122 31.1698L30.4859 30.5364C30.1122 30.2376 29.7265 30.13 29.1961 30.13C28.0268 30.1061 27.2673 30.8949 27.2673 31.9825ZM34.5966 31.9825V30.1898H33.801V30.6439C33.5358 30.3093 33.1621 30.1181 32.6678 30.1181C31.6432 30.1181 30.8596 30.9068 30.8596 31.9944C30.8596 33.082 31.6552 33.8707 32.6678 33.8707C33.1982 33.8707 33.5719 33.6795 33.801 33.3449V33.799H34.5966V31.9825ZM31.6914 31.9825C31.6914 31.349 32.1013 30.8232 32.7884 30.8232C33.4273 30.8232 33.8854 31.3132 33.8854 31.9825C33.8854 32.6159 33.4273 33.1417 32.7884 33.1417C32.1013 33.1059 31.6914 32.6159 31.6914 31.9825ZM22.2044 30.1061C21.1436 30.1061 20.3962 30.859 20.3962 31.9825C20.3962 33.1059 21.1556 33.8588 22.2526 33.8588C22.783 33.8588 23.3134 33.7034 23.7233 33.3688L23.3496 32.8071C23.0482 33.0342 22.6745 33.1776 22.2888 33.1776C21.7945 33.1776 21.3123 32.9505 21.1918 32.3171H23.8679V32.0183C23.9041 30.859 23.229 30.1061 22.2044 30.1061ZM22.2044 30.7754C22.6986 30.7754 23.0362 31.0742 23.1085 31.6359H21.2159C21.3003 31.1578 21.6378 30.7754 22.2044 30.7754ZM41.8896 31.9825V28.7676H41.094V30.6439C40.8288 30.3093 40.4551 30.1181 39.9609 30.1181C38.9363 30.1181 38.1527 30.9068 38.1527 31.9944C38.1527 33.082 38.9483 33.8707 39.9609 33.8707C40.4913 33.8707 40.865 33.6795 41.094 33.3449V33.799H41.8896V31.9825ZM38.9724 31.9825C38.9724 31.349 39.3823 30.8232 40.0694 30.8232C40.7083 30.8232 41.1664 31.3132 41.1664 31.9825C41.1664 32.6159 40.7083 33.1417 40.0694 33.1417C39.3943 33.1059 38.9724 32.6159 38.9724 31.9825ZM12.4642 31.9825V30.1898H11.6686V30.6439C11.4034 30.3093 11.0297 30.1181 10.5355 30.1181C9.51084 30.1181 8.72729 30.9068 8.72729 31.9944C8.72729 33.082 9.52289 33.8707 10.5355 33.8707C11.0659 33.8707 11.4396 33.6795 11.6686 33.3449V33.799H12.4642V31.9825ZM9.52289 31.9825C9.52289 31.349 9.93275 30.8232 10.6199 30.8232C11.2588 30.8232 11.7168 31.3132 11.7168 31.9825C11.7168 32.6159 11.2588 33.1417 10.6199 33.1417C9.93275 33.1059 9.52289 32.6159 9.52289 31.9825Z" fill="#A4BDDE"/>
<path opacity="0.3" d="M16.8042 13.4809C16.8042 9.17851 18.8414 5.35413 21.9756 2.88024C19.6732 1.08756 16.768 0 13.5977 0C6.07555 0 0 6.0234 0 13.4809C0 20.9265 6.07555 26.9619 13.5977 26.9619C16.768 26.9619 19.6732 25.8743 21.9877 24.0816C18.8414 21.6436 16.8042 17.7834 16.8042 13.4809Z" fill="#A4BDDE"/>
<path d="M44.0001 13.4809C44.0001 20.9265 37.9246 26.9619 30.4025 26.9619C27.2321 26.9619 24.3269 25.8743 22.0125 24.0816C25.1828 21.6077 27.1839 17.7953 27.1839 13.4809C27.1839 9.17851 25.1467 5.35413 22.0125 2.88024C24.3269 1.08756 27.2321 0 30.4025 0C37.9246 0 44.0001 6.0712 44.0001 13.4809Z" fill="#88A6D3"/>
<path d="M44 13.4809C44 20.9265 37.9245 26.9619 30.4024 26.9619C27.232 26.9619 24.3268 25.8743 22.0123 24.0816C25.1827 21.6077 27.1838 17.7953 27.1838 13.4809C27.1838 9.17851 25.1465 5.35413 22.0123 2.88024C24.3268 1.08756 27.232 0 30.4024 0C37.9245 0 44 6.0712 44 13.4809Z" fill="#A4BDDE"/>
<path d="M30.4024 26.9619C27.232 26.9619 24.3268 25.8743 22.0123 24.0816C25.1827 21.6077 27.1838 17.7953 27.1838 13.4809C27.1838 9.17851 25.1465 5.35413 22.0123 2.88024C24.3268 1.08756 27.232 0 30.4024 0C22.8803 0 16.8047 6.0712 16.8047 13.4809C16.8047 20.9265 22.8803 26.9619 30.4024 26.9619Z" fill="#A4BDDE"/>
<path opacity="0.3" d="M22.0123 24.0823C25.1827 21.6084 27.1838 17.796 27.1838 13.4816C27.1838 9.17916 25.1465 5.35478 22.0123 2.88088C18.8781 5.35478 16.8408 9.17911 16.8408 13.4815C16.8408 17.7959 18.842 21.6084 22.0123 24.0823Z" fill="#5A7191"/>
</svg>
