<svg width="66" height="66" viewBox="0 0 66 66" fill="none" xmlns="http://www.w3.org/2000/svg">
<circle cx="32.9995" cy="33" r="32.5366" fill="white"/>
<path d="M19.2243 16.1707C18.88 16.235 18.6314 16.5437 18.6378 16.8975V20.519H17.0887C15.9668 20.519 15.0488 21.4453 15.0488 22.5774V46.7186C15.0488 47.8507 15.9668 48.777 17.0887 48.777H29.0732C29.4111 49.3044 30.5713 50.9511 33 50.9511C35.4288 50.9511 36.589 49.3044 36.9269 48.777H48.9114C50.0333 48.777 50.9513 47.8507 50.9513 46.7186V22.5774C50.9513 21.4453 50.0333 20.519 48.9114 20.519H47.3623V16.8975C47.3623 16.4987 47.0372 16.1707 46.642 16.1707C41.1597 16.1707 37.6217 17.2899 35.4479 18.4349C34.3579 19.0138 33.6184 19.5734 33.1339 20.0237C33.0765 20.0752 33.051 20.1073 33 20.1588C32.949 20.1073 32.9235 20.0752 32.8662 20.0237C32.3817 19.5734 31.6422 19.0138 30.5522 18.4349C28.3784 17.2899 24.8404 16.1707 19.3581 16.1707C19.3326 16.1707 19.3135 16.1707 19.288 16.1707C19.2689 16.1707 19.2434 16.1707 19.2243 16.1707ZM20.0721 17.6694C24.9105 17.7659 28.0278 18.7308 29.8828 19.7021C30.8581 20.2167 31.5084 20.7442 31.9036 21.1108C32.2096 21.3938 32.2351 21.4775 32.2797 21.5418V44.6087C31.808 44.345 31.2852 44.0555 30.4183 43.7532C28.372 43.0327 25.0125 42.3702 20.0721 42.2994V17.6694ZM45.928 17.6694V42.2994C40.9876 42.3702 37.6281 43.0327 35.5818 43.7532C34.7148 44.0555 34.1921 44.345 33.7204 44.6087V21.5418C33.765 21.4775 33.7905 21.3938 34.0965 21.1108C34.4917 20.7442 35.142 20.2167 36.1173 19.7021C37.9723 18.7308 41.0896 17.7659 45.928 17.6694ZM17.0887 21.9663H18.6378V42.9813C18.6378 43.3801 18.9629 43.7082 19.3581 43.7082C24.6492 43.7082 27.9895 44.4157 29.9721 45.1104C30.9601 45.4578 31.5976 45.7923 31.9928 46.0367C32.2988 46.2297 32.4136 46.3133 32.4646 46.3519C32.6239 46.532 32.8598 46.6156 33.0893 46.5835C33.0957 46.5835 33.102 46.5835 33.1148 46.5835C33.2295 46.5642 33.3315 46.5192 33.4272 46.4484C33.4845 46.4098 33.5355 46.3648 33.5865 46.3069C33.6566 46.249 33.7905 46.1718 34.0073 46.0367C34.4025 45.7923 35.04 45.4578 36.028 45.1104C38.0106 44.4157 41.3509 43.7082 46.642 43.7082C47.0372 43.7082 47.3623 43.3801 47.3623 42.9813V21.9663H48.9114C49.2492 21.9663 49.517 22.2301 49.517 22.5774V46.7186C49.517 47.0659 49.2492 47.3296 48.9114 47.3296H36.589C36.334 47.3232 36.0918 47.4647 35.9643 47.6899C35.9643 47.6899 34.9635 49.5038 33 49.5038C31.0366 49.5038 30.0358 47.6899 30.0358 47.6899C29.9083 47.4647 29.6661 47.3232 29.4111 47.3296H17.0887C16.7509 47.3296 16.4831 47.0659 16.4831 46.7186V22.5774C16.4831 22.2301 16.7509 21.9663 17.0887 21.9663Z" fill="#64BC2A"/>
</svg>
