<svg width="9" height="13" viewBox="0 0 9 13" fill="none" xmlns="http://www.w3.org/2000/svg">
<path d="M1.40061 0C0.630427 0 0 0.607469 0 1.3514V11.0885C0 11.8324 0.630427 12.4399 1.40061 12.4399H7.00002C7.77021 12.4399 8.40063 11.8324 8.40063 11.0885V1.3514C8.40063 0.607469 7.77021 0 7.00002 0H1.40061ZM2.02041 0.539972H6.38023C6.31339 0.650021 6.26478 0.771808 6.24199 0.903866L6.15692 1.39542C6.15692 1.39688 6.15692 1.39688 6.15692 1.39688C6.13413 1.52894 6.01868 1.62285 5.88044 1.62285H2.52019C2.38195 1.62285 2.2665 1.52894 2.24371 1.39542L2.15864 0.903866C2.13586 0.771808 2.08725 0.650021 2.02041 0.539972ZM1.21224 0.561982C1.21528 0.563449 1.21984 0.564916 1.22288 0.566384C1.41884 0.626544 1.57075 0.786481 1.60721 0.991905L1.69228 1.48492C1.75912 1.87523 2.11155 2.16282 2.52019 2.16282H5.88044C6.28908 2.16282 6.64151 1.87523 6.70835 1.48492L6.79342 0.991905C6.82988 0.782079 6.98939 0.619207 7.18991 0.561982C7.56361 0.645619 7.84009 0.964026 7.84009 1.3514V11.0885C7.84009 11.539 7.46791 11.8999 7.00002 11.8999H1.40061C0.932729 11.8999 0.560548 11.539 0.560548 11.0885V1.3514C0.560548 0.964026 0.837025 0.644151 1.21224 0.561982ZM3.36025 0.811425C3.25999 0.809958 3.16581 0.861314 3.11416 0.944951C3.06403 1.02859 3.06403 1.13277 3.11416 1.21787C3.16581 1.30151 3.25999 1.35286 3.36025 1.3514H4.20032C4.30058 1.35286 4.39476 1.30151 4.44641 1.21787C4.49654 1.13277 4.49654 1.02859 4.44641 0.944951C4.39476 0.861314 4.30058 0.809958 4.20032 0.811425H3.36025ZM5.04038 0.811425C4.88543 0.811425 4.76087 0.931745 4.76087 1.08141C4.76087 1.23108 4.88543 1.3514 5.04038 1.3514C5.19533 1.3514 5.3199 1.23108 5.3199 1.08141C5.3199 0.931745 5.19533 0.811425 5.04038 0.811425Z" fill="white"/>
</svg>
