<svg width="75" height="25" viewBox="0 0 75 25" fill="none" xmlns="http://www.w3.org/2000/svg">
<path d="M48.7502 0.192383C42.2954 0.192383 39.0002 3.41059 39.0002 7.51065C39.0002 14.932 47.4525 13.9241 47.4525 17.7379C47.4525 18.3792 46.9672 19.9139 43.4238 19.9139C39.8691 19.9139 37.5671 18.5281 37.5671 18.5281L36.4612 23.5444C36.4612 23.5444 38.7632 24.8615 43.1643 24.8615C47.554 24.8615 53.6252 21.4486 53.6252 16.4896C53.6252 10.5113 45.173 10.0417 45.173 7.38467C45.173 6.0218 46.2112 5.00251 49.2693 5.00251C51.2554 5.00251 53.4898 6.52572 53.4898 6.52572L54.5393 1.38346C54.5393 1.38346 51.5827 0.192383 48.7502 0.192383ZM21.2606 0.650492L15.6634 17.4058C15.6634 17.4058 15.2797 15.9856 15.1443 15.1038C11.9507 7.83132 6.75977 5.13994 6.75977 5.13994L11.7025 24.1399H18.462L27.8171 0.650492H21.2606ZM30.2207 0.650492L26.587 24.1399H32.7598L36.4612 0.650492H30.2207ZM63.5671 0.650492L53.4898 24.1399H59.6061L60.8362 20.7729H68.5098L69.1643 24.1399H74.7502L70.0106 0.650492H63.5671ZM65.9143 7.45338L67.5957 16.2834H62.5289L65.9143 7.45338Z" fill="#A4BDDE"/>
<path d="M14.8845 13.7175C12.0747 4.50959 0 0.71875 0 0.71875H9.49045C11.9167 0.71875 12.8082 3.03219 12.8082 3.03219L14.8845 13.7175Z" fill="#8EA6C7"/>
</svg>
