<svg width="66" height="66" viewBox="0 0 66 66" fill="none" xmlns="http://www.w3.org/2000/svg">
<circle cx="32.9995" cy="33" r="32.5366" fill="white"/>
<path d="M23.7385 16.1707C23.3385 16.1754 23.0191 16.494 23.0264 16.881V18.9837H24.4725V16.881C24.4773 16.6923 24.3993 16.5082 24.2603 16.376C24.1213 16.2415 23.9335 16.1683 23.7385 16.1707ZM28.0839 16.1707C27.684 16.1754 27.3645 16.494 27.3694 16.881V18.9837H28.8179V16.881C28.8203 16.6923 28.7447 16.5082 28.6057 16.376C28.4667 16.2415 28.279 16.1683 28.0839 16.1707ZM32.4269 16.1707C32.0294 16.1754 31.71 16.494 31.7148 16.881V18.9837H33.1633V16.881C33.1657 16.6923 33.0902 16.5082 32.9512 16.376C32.8122 16.2415 32.6244 16.1683 32.4269 16.1707ZM36.7723 16.1707C36.3724 16.1754 36.0554 16.494 36.0603 16.881V18.9837H37.5087V16.881C37.5112 16.6923 37.4331 16.5082 37.2966 16.376C37.1576 16.2415 36.9674 16.1683 36.7723 16.1707ZM41.1177 16.1707C40.7178 16.1754 40.3984 16.494 40.4057 16.881V18.9837H41.8517V16.881C41.8566 16.6923 41.7786 16.5082 41.6396 16.376C41.503 16.2415 41.3128 16.1683 41.1177 16.1707ZM20.8537 19.6846C19.6613 19.6846 18.681 20.6333 18.681 21.7873V44.2114C18.681 45.3654 19.6613 46.3141 20.8537 46.3141H44.0244C45.2169 46.3141 46.1972 45.3654 46.1972 44.2114V21.7873C46.1972 20.6333 45.2169 19.6846 44.0244 19.6846H20.8537ZM20.8537 21.0864H44.0244C44.4341 21.0864 44.7487 21.3909 44.7487 21.7873V44.2114C44.7487 44.6079 44.4341 44.9123 44.0244 44.9123H20.8537C20.444 44.9123 20.1295 44.6079 20.1295 44.2114V21.7873C20.1295 21.3909 20.444 21.0864 20.8537 21.0864ZM15.784 23.89C15.5231 23.8853 15.2793 24.0175 15.1476 24.2369C15.0159 24.4541 15.0159 24.7255 15.1476 24.9426C15.2793 25.162 15.5231 25.2942 15.784 25.2895H17.9568V23.89H15.784ZM46.9214 23.89V25.2895H49.0941C49.355 25.2942 49.5989 25.162 49.7306 24.9426C49.8622 24.7255 49.8622 24.4541 49.7306 24.2369C49.5989 24.0175 49.355 23.8853 49.0941 23.89H46.9214ZM25.9209 27.3922C25.521 27.3922 25.1967 27.706 25.1967 28.0931V37.9057C25.1967 38.2927 25.521 38.6066 25.9209 38.6066H38.9572C39.3571 38.6066 39.6814 38.2927 39.6814 37.9057V28.0931C39.6814 27.706 39.3571 27.3922 38.9572 27.3922H25.9209ZM15.784 28.0931C15.5231 28.0907 15.2793 28.2229 15.1476 28.4423C15.0159 28.6595 15.0159 28.9285 15.1476 29.148C15.2793 29.3651 15.5231 29.4996 15.784 29.4949H17.9568V28.0931H15.784ZM46.9214 28.0931V29.4949H49.0941C49.355 29.4996 49.5989 29.3651 49.7306 29.148C49.8622 28.9285 49.8622 28.6595 49.7306 28.4423C49.5989 28.2229 49.355 28.0907 49.0941 28.0931H46.9214ZM26.6452 28.794H38.233V37.2048H26.6452V28.794ZM15.784 32.2985C15.5231 32.2961 15.2793 32.4283 15.1476 32.6454C15.0159 32.8648 15.0159 33.1339 15.1476 33.3534C15.2793 33.5705 15.5231 33.7026 15.784 33.7003H17.9568V32.2985H15.784ZM46.9214 32.2985V33.7003H49.0941C49.355 33.7026 49.5989 33.5705 49.7306 33.3534C49.8622 33.1339 49.8622 32.8648 49.7306 32.6454C49.5989 32.4283 49.355 32.2961 49.0941 32.2985H46.9214ZM15.784 36.5039C15.5231 36.4991 15.2793 36.6337 15.1476 36.8508C15.0159 37.0702 15.0159 37.3393 15.1476 37.5564C15.2793 37.7759 15.5231 37.908 15.784 37.9057H17.9568V36.5039H15.784ZM46.9214 36.5039V37.9057H49.0941C49.355 37.908 49.5989 37.7759 49.7306 37.5564C49.8622 37.3393 49.8622 37.0702 49.7306 36.8508C49.5989 36.6337 49.355 36.4991 49.0941 36.5039H46.9214ZM15.784 40.7092C15.5231 40.7045 15.2793 40.8367 15.1476 41.0562C15.0159 41.2733 15.0159 41.5447 15.1476 41.7618C15.2793 41.9813 15.5231 42.1134 15.784 42.1087H17.9568V40.7092H15.784ZM46.9214 40.7092V42.1087H49.0941C49.355 42.1134 49.5989 41.9813 49.7306 41.7618C49.8622 41.5447 49.8622 41.2733 49.7306 41.0562C49.5989 40.8367 49.355 40.7045 49.0941 40.7092H46.9214ZM23.0264 47.015V49.1177C23.0215 49.3702 23.1581 49.6062 23.3849 49.7336C23.6092 49.8611 23.8897 49.8611 24.114 49.7336C24.3408 49.6062 24.4773 49.3702 24.4725 49.1177V47.015H23.0264ZM27.3694 47.015V49.1177C27.367 49.3702 27.5035 49.6062 27.7303 49.7336C27.9546 49.8611 28.2326 49.8611 28.4594 49.7336C28.6838 49.6062 28.8228 49.3702 28.8179 49.1177V47.015H27.3694ZM31.7148 47.015V49.1177C31.7124 49.3702 31.849 49.6062 32.0733 49.7336C32.3001 49.8611 32.5781 49.8611 32.8048 49.7336C33.0292 49.6062 33.1657 49.3702 33.1633 49.1177V47.015H31.7148ZM36.0603 47.015V49.1177C36.0554 49.3702 36.1944 49.6062 36.4187 49.7336C36.6455 49.8611 36.9235 49.8611 37.1478 49.7336C37.3746 49.6062 37.5112 49.3702 37.5087 49.1177V47.015H36.0603ZM40.4057 47.015V49.1177C40.4008 49.3702 40.5374 49.6062 40.7641 49.7336C40.9885 49.8611 41.2689 49.8611 41.4933 49.7336C41.72 49.6062 41.8566 49.3702 41.8517 49.1177V47.015H40.4057Z" fill="#64BC2A"/>
</svg>
