<svg width="66" height="66" viewBox="0 0 66 66" fill="none" xmlns="http://www.w3.org/2000/svg">
<circle cx="32.9995" cy="33" r="32.5366" fill="white"/>
<path d="M35.0166 18.4146C31.8589 18.4146 29.4357 19.7121 28.0884 21.6211C27.7771 22.0611 27.5256 22.5383 27.3338 23.0305L26.8806 22.1058H26.4199C23.8423 22.1058 21.9322 23.1449 20.9311 24.691C20.0146 26.1029 19.9574 27.8727 20.5252 29.5232C20.2811 29.8613 20.0993 30.2813 20.169 30.8729C20.2462 31.5391 20.4231 32.0313 20.6995 32.3967C20.8215 32.5583 21.0008 32.5632 21.1527 32.6602C21.2523 33.1996 21.3968 33.739 21.6159 34.1864C21.7479 34.4573 21.8899 34.6985 22.0393 34.9097C22.0891 34.9769 22.1738 35.0216 22.2186 35.0813C22.2236 35.6679 22.2311 36.1799 22.1837 36.7865C22.0493 37.1195 21.7156 37.4278 21.0979 37.7385C20.4579 38.0616 19.5963 38.3574 18.7246 38.7427C17.8505 39.1255 16.949 39.5953 16.2392 40.351C15.5245 41.1091 15.0488 42.173 15.0488 43.5103V44.2486H20.3982C20.2911 44.7084 20.2263 45.1981 20.2263 45.7251V46.4633H46.8484V45.7251C46.8484 45.1981 46.7862 44.7084 46.6766 44.2486H52.0732L52.0259 43.468C51.9462 42.1282 51.4083 41.0768 50.6612 40.3311C49.9166 39.5879 48.9951 39.1205 48.1085 38.7452C47.2195 38.3674 46.3553 38.0765 45.7103 37.7559C45.0927 37.4501 44.7665 37.1494 44.6295 36.8237V35.1608C44.6818 35.1036 44.7565 35.0639 44.8113 34.9992C44.9806 34.7979 45.15 34.5593 45.3119 34.2883C45.5684 33.8558 45.7427 33.3114 45.8672 32.7646C45.9917 32.685 46.049 32.6801 46.2009 32.5135C46.4998 32.1904 46.7961 31.6609 46.8833 30.9401C46.9555 30.3161 46.7488 29.8985 46.5496 29.6127C46.699 29.2473 46.8833 28.9067 46.9281 28.4618C46.9904 27.7782 46.9505 27.0151 46.7563 26.2644C46.5595 25.5162 46.2134 24.7755 45.6231 24.1963C45.1475 23.729 44.4726 23.4506 43.7155 23.3387L43.1627 22.1058H42.6845C41.6087 22.1058 40.5204 22.2425 39.4993 22.5756C39.2503 22.0188 38.9315 21.4968 38.5032 21.0544C37.9403 20.4777 37.1509 20.1197 36.2668 19.9979L35.4724 18.4146H35.0166ZM34.5808 19.9358L35.3006 21.3676H35.7563C36.4835 21.3676 36.9965 21.6286 37.4398 22.0835C37.8856 22.5408 38.2317 23.212 38.4409 23.9527C38.6501 24.6935 38.7298 25.4963 38.6875 26.165C38.6451 26.8337 38.4509 27.3731 38.3288 27.5297L37.9229 28.0541L38.3961 28.5115C38.3961 28.5115 38.7373 28.8943 38.6899 29.2821C38.6227 29.8737 38.411 30.1794 38.2367 30.3659C38.0649 30.5523 37.9802 30.5771 37.9802 30.5771L37.5743 30.7437L37.5269 31.1812C37.4722 31.7057 37.1907 32.434 36.862 33.0156C36.6976 33.3065 36.5233 33.5675 36.3764 33.7514C36.2295 33.9329 36.0676 34.0447 36.1498 34.0025L35.7563 34.2088V36.5429C35.6143 36.6622 35.4126 36.8237 35.1611 36.9928C34.6705 37.3184 34.0305 37.6067 33.5374 37.6067C33.0443 37.6067 32.4042 37.3184 31.9136 36.9928C31.6621 36.8237 31.4604 36.6622 31.3184 36.5429V34.2088L30.925 34.0025C31.0071 34.0447 30.8428 33.9329 30.6958 33.7514C30.5514 33.5675 30.3771 33.3065 30.2127 33.0156C29.884 32.434 29.6026 31.7057 29.5478 31.1812L29.5005 30.7437L29.0945 30.5771C29.0945 30.5771 29.0099 30.5523 28.838 30.3659C28.6637 30.1794 28.452 29.8737 28.3848 29.2821V29.2796C28.3375 28.8918 28.6762 28.5115 28.6762 28.5115L29.0472 28.1536L28.838 27.6838C28.0336 25.8791 28.2453 23.9627 29.2963 22.4712C30.2899 21.0643 32.0705 20.0477 34.5808 19.9358ZM42.2387 23.6594L42.7094 24.7133H43.1901C43.8425 24.7133 44.2485 24.9172 44.5872 25.2503C44.9283 25.5833 45.1799 26.0755 45.3243 26.6348C45.4687 27.1941 45.5036 27.8081 45.4538 28.3226C45.404 28.8322 45.2371 29.2473 45.1699 29.3343L44.7739 29.8513L45.2396 30.3062C45.2396 30.3062 45.4389 30.5523 45.414 30.7661C45.3642 31.1936 45.2222 31.3949 45.1126 31.5167C45.0006 31.6385 44.9781 31.6336 44.9781 31.6336L44.5747 31.8051L44.5299 32.2401C44.4925 32.603 44.2833 33.1225 44.0418 33.5351C43.9172 33.739 43.7877 33.9204 43.6807 34.0497C43.5736 34.1765 43.454 34.2485 43.5412 34.2038L43.1502 34.4101V36.2769C42.8912 36.4832 42.3284 36.8685 41.6734 36.8685H40.9338V39.0112C40.1667 38.6855 39.4346 38.3723 38.8294 38.0616C37.9752 37.6167 37.4448 37.1618 37.2356 36.6746V34.9445C37.3252 34.8501 37.4448 34.7805 37.5344 34.6686C37.7436 34.4076 37.9503 34.0944 38.152 33.7415C38.4882 33.1424 38.7248 32.4215 38.8668 31.7007C39.0212 31.6112 39.1058 31.5963 39.3175 31.3726C39.6811 30.9823 40.0522 30.3485 40.1593 29.4536C40.2464 28.7303 39.9999 28.2381 39.7633 27.8926C39.9825 27.4079 40.1244 26.8709 40.1618 26.257C40.2066 25.5386 40.1418 24.7556 39.965 23.9801C40.6623 23.7737 41.4468 23.6942 42.2387 23.6594ZM26.0015 23.6644L26.4647 24.6164H26.9279C26.9354 24.6164 26.9429 24.6164 26.9503 24.6164C26.8283 25.6753 26.9603 26.7765 27.3513 27.8379C27.1047 28.171 26.8233 28.6731 26.9155 29.4536C27.0225 30.3485 27.3936 30.9823 27.7572 31.3726C27.9639 31.5963 28.0511 31.6112 28.2055 31.7007C28.3449 32.4215 28.5865 33.1424 28.9227 33.7415C29.1194 34.0944 29.3311 34.4076 29.5403 34.6686C29.63 34.7805 29.7495 34.8501 29.8392 34.9445V36.6746C29.63 37.1643 29.097 37.6217 28.2428 38.0666C27.6402 38.3798 26.9055 38.6905 26.141 39.0161V36.8685H25.4013C24.4799 36.8685 23.917 36.4757 23.6929 36.2769C23.7079 35.7748 23.7029 35.3075 23.7029 34.8128V34.3679L23.3169 34.1615C23.4264 34.2212 23.3243 34.1665 23.2422 34.0447C23.155 33.9279 23.0454 33.7439 22.9433 33.5376C22.7441 33.125 22.5673 32.598 22.5249 32.1854L22.4627 31.5739L21.8974 31.5267C21.8924 31.5217 21.8949 31.5242 21.8774 31.5018C21.8177 31.4248 21.6956 31.1911 21.6384 30.7039C21.606 30.4404 21.7056 30.3311 21.7181 30.3161L22.2286 29.9955L21.9746 29.4163C21.3694 28.0392 21.4615 26.5925 22.1738 25.4963C22.8288 24.4847 24.1013 23.7812 26.0015 23.6644ZM23.3418 37.7882C23.7328 38.0069 24.2408 38.2207 24.8634 38.3003L24.7439 39.645C24.3852 39.8141 24.0341 40.0054 23.683 40.2068L22.754 38.4221C22.9757 38.2381 23.1774 38.0293 23.3418 37.7882ZM43.4839 37.8429C43.596 38.0094 43.728 38.1586 43.8774 38.2953L43.2523 40.1173C42.946 39.9433 42.6397 39.7842 42.3309 39.6351L42.2113 38.2978C42.7094 38.2182 43.1402 38.0368 43.4839 37.8429ZM30.7755 37.9771C30.8876 38.0616 30.9623 38.1337 31.0943 38.2207C31.5202 38.5066 32.0606 38.7974 32.6732 38.959L32.1278 44.9868H31.824C31.4405 44.005 30.2874 40.8754 30.1853 38.5588C30.402 38.3823 30.6062 38.1934 30.7755 37.9771ZM36.2992 37.9771C36.4685 38.1934 36.6727 38.3823 36.8894 38.5588C36.7873 40.8754 35.6343 44.005 35.2507 44.9868H34.9469L34.4015 38.959C35.0142 38.7974 35.5546 38.5066 35.9804 38.2207C36.1124 38.1337 36.1871 38.0616 36.2992 37.9771ZM45.1525 39.123C45.912 39.4859 46.7463 39.7718 47.5283 40.1024C48.3426 40.4479 49.0873 40.8506 49.6127 41.3776C49.9813 41.7405 50.2154 42.2128 50.3698 42.772H46.1038C45.8797 42.3718 45.6157 42.004 45.3119 41.6808C45.0703 41.4148 44.8038 41.1787 44.5274 40.96L45.1525 39.123ZM21.479 39.1802L22.4527 41.047C22.2111 41.2458 21.977 41.4546 21.7629 41.6883C21.4615 42.0114 21.2001 42.3743 20.9759 42.772C20.9709 42.772 20.9684 42.772 20.966 42.772H16.6526C16.7697 42.2028 16.9739 41.7305 17.3176 41.3626C17.8057 40.8431 18.5179 40.4429 19.3173 40.0949C20.0246 39.7842 20.7742 39.5083 21.479 39.1802ZM38.3114 39.4511C39.2951 39.9433 40.3934 40.3534 41.4294 40.8357C42.5226 41.3428 43.5263 41.9244 44.2285 42.6801C44.7839 43.2816 45.1002 44.0447 45.2421 44.9868H36.8521C37.3277 43.7365 38.0798 41.5366 38.3114 39.4511ZM28.7633 39.4536C28.9949 41.5366 29.747 43.7365 30.2227 44.9868H21.8351C21.9746 44.0497 22.2908 43.2891 22.8462 42.6925C23.551 41.9344 24.5571 41.3527 25.6479 40.8431C26.6814 40.3634 27.7796 39.9483 28.7633 39.4536Z" fill="#64BC2A"/>
</svg>
