<svg width="32" height="32" viewBox="0 0 32 32" fill="none" xmlns="http://www.w3.org/2000/svg">
<path fill-rule="evenodd" clip-rule="evenodd" d="M12.1556 0C18.869 0 24.3112 5.51634 24.3112 12.3211C24.3112 15.0567 23.4317 17.5841 21.9436 19.6286L32 29.8219L29.8512 32L19.8486 21.8612C17.7531 23.5994 15.0745 24.6422 12.1556 24.6422C5.44225 24.6422 0 19.1259 0 12.3211C0 5.51634 5.44225 0 12.1556 0ZM12.1556 23.1637C18.0634 23.1637 22.8525 18.3093 22.8525 12.3211C22.8525 6.33291 18.0634 1.47853 12.1556 1.47853C6.24786 1.47853 1.45867 6.33291 1.45867 12.3211C1.45867 18.3093 6.24786 23.1637 12.1556 23.1637Z" fill="white"/>
<path d="M12.9 7.07H11.4V11.57H6.90002V13.07H11.4V17.57H12.9V13.07H17.4V11.57H12.9V7.07Z" fill="white"/>
</svg>
