<svg width="11" height="19" viewBox="0 0 11 19" fill="none" xmlns="http://www.w3.org/2000/svg">
<path fill-rule="evenodd" clip-rule="evenodd" d="M0 2.09137C0 1.11675 0.735055 0.32666 1.64179 0.32666H9.35821C10.2649 0.32666 11 1.11675 11 2.09137V16.562C11 17.5366 10.2649 18.3267 9.35821 18.3267H1.64179C0.735055 18.3267 0 17.5366 0 16.562V2.09137ZM1.64179 1.20901C1.18842 1.20901 0.820896 1.60406 0.820896 2.09137V16.562C0.820896 17.0493 1.18842 17.4443 1.64179 17.4443H9.35821C9.81158 17.4443 10.1791 17.0493 10.1791 16.562V2.09137C10.1791 1.60406 9.81158 1.20901 9.35821 1.20901H9.0709C8.78972 1.45852 8.65124 1.97344 8.5732 2.55387C8.51161 3.01189 8.16277 3.37078 7.73223 3.37078H3.26777C2.83723 3.37078 2.48839 3.01189 2.4268 2.55387C2.34876 1.97344 2.21028 1.45852 1.9291 1.20901H1.64179ZM3.0246 1.45285C3.13192 1.76661 3.19627 2.10792 3.23926 2.42766C3.24307 2.45603 3.25516 2.47529 3.26452 2.48453C3.26653 2.48652 3.26909 2.48842 3.26909 2.48842H7.73091C7.73091 2.48842 7.73347 2.48652 7.73548 2.48453C7.74484 2.47529 7.75693 2.45603 7.76074 2.42766C7.80373 2.10792 7.86808 1.76661 7.97541 1.45285C8.00238 1.37399 8.03373 1.29192 8.0705 1.20901H2.9295C2.96627 1.29192 2.99762 1.37399 3.0246 1.45285Z" fill="#989898"/>
<path d="M4.02239 1.87078C4.02239 1.70022 4.15102 1.56195 4.3097 1.56195H5.62313C5.78181 1.56195 5.91045 1.70022 5.91045 1.87078C5.91045 2.04134 5.78181 2.1796 5.62313 2.1796H4.3097C4.15102 2.1796 4.02239 2.04134 4.02239 1.87078Z" fill="#989898"/>
<path d="M6.23881 1.87078C6.23881 1.70022 6.36744 1.56195 6.52612 1.56195C6.6848 1.56195 6.81343 1.70022 6.81343 1.87078C6.81343 2.04134 6.6848 2.1796 6.52612 2.1796C6.36744 2.1796 6.23881 2.04134 6.23881 1.87078Z" fill="#989898"/>
</svg>
