<svg width="21" height="21" viewBox="0 0 21 21" fill="none" xmlns="http://www.w3.org/2000/svg">
<path fill-rule="evenodd" clip-rule="evenodd" d="M7.97712 0C12.3828 0 15.9542 3.6201 15.9542 8.08572C15.9542 9.88097 15.377 11.5396 14.4005 12.8812L21 19.5706L19.5898 21L13.0256 14.3464C11.6505 15.4871 9.89265 16.1714 7.97712 16.1714C3.57148 16.1714 0 12.5513 0 8.08572C0 3.6201 3.57148 0 7.97712 0ZM7.97712 15.2012C11.8541 15.2012 14.997 12.0155 14.997 8.08572C14.997 4.15598 11.8541 0.970287 7.97712 0.970287C4.10015 0.970287 0.957254 4.15598 0.957254 8.08572C0.957254 12.0155 4.10015 15.2012 7.97712 15.2012Z" fill="white"/>
</svg>
