<svg width="36" height="36" viewBox="0 0 36 36" fill="none" xmlns="http://www.w3.org/2000/svg">
<path fill-rule="evenodd" clip-rule="evenodd" d="M0 18C0 27.9411 8.05888 36 18 36C27.9411 36 36 27.9411 36 18C36 8.05887 27.9411 0 18 0C8.05888 0 0 8.05887 0 18ZM16.3636 10.3636C16.1608 10.1608 15.8321 10.1608 15.6293 10.3636C15.4265 10.5664 15.4265 10.8952 15.6293 11.0979L22.5314 18L15.6293 24.9021C15.4265 25.1049 15.4265 25.4336 15.6293 25.6364C15.8321 25.8392 16.1608 25.8392 16.3636 25.6364L24 18L20.1818 14.1818L16.3636 10.3636Z" fill="#3E3F43"/>
</svg>
