<svg width="14" height="15" viewBox="0 0 14 15" fill="none" xmlns="http://www.w3.org/2000/svg">
<path d="M13.6461 0.890973C13.6154 0.896095 13.5863 0.906341 13.559 0.921709L0.965264 6.33124C0.85253 6.37905 0.780791 6.49005 0.777374 6.61128C0.775666 6.73423 0.845698 6.84692 0.955015 6.90157L5.64713 9.24262L7.98892 13.9333C8.04358 14.0426 8.15632 14.1126 8.2793 14.1109C8.40057 14.1074 8.5116 14.0357 8.55942 13.923L13.9706 1.33323C14.0185 1.23078 14.0065 1.10954 13.9382 1.01733C13.8716 0.925124 13.7606 0.877312 13.6461 0.890973ZM12.3087 2.1409L5.81453 8.63132L1.83981 6.64543L12.3087 2.1409ZM12.7511 2.58316L8.24514 13.0488L6.25863 9.07528L12.7511 2.58316Z" fill="white"/>
</svg>
