<svg width="16" height="15" viewBox="0 0 16 15" fill="none" xmlns="http://www.w3.org/2000/svg">
<path fill-rule="evenodd" clip-rule="evenodd" d="M8 1.15834C6.19455 1.15834 4.75078 2.52588 4.75078 4.18959C4.75078 5.85331 6.19455 7.22085 8 7.22085C9.80545 7.22085 11.2492 5.85331 11.2492 4.18959C11.2492 2.52588 9.80545 1.15834 8 1.15834ZM3.88592 4.18959C3.88592 2.04575 5.73882 0.32666 8 0.32666C10.2612 0.32666 12.1141 2.04575 12.1141 4.18959C12.1141 6.33343 10.2612 8.05253 8 8.05253C5.73882 8.05253 3.88592 6.33343 3.88592 4.18959ZM8 10.4965C4.86643 10.4965 2.16725 11.9805 0.801379 14.1278C0.676758 14.3237 0.410576 14.3853 0.206845 14.2655C0.00311314 14.1457 -0.0610185 13.8897 0.0636026 13.6938C1.59875 11.2804 4.58928 9.66482 8 9.66482C11.4107 9.66482 14.4012 11.2804 15.9364 13.6938C16.061 13.8897 15.9969 14.1457 15.7932 14.2655C15.5894 14.3853 15.3232 14.3237 15.1986 14.1278C13.8328 11.9805 11.1336 10.4965 8 10.4965Z" fill="#989898"/>
</svg>
