<svg width="17" height="10" viewBox="0 0 17 10" fill="none" xmlns="http://www.w3.org/2000/svg">
<path d="M3.81652 0.560914H1.76887C1.76887 0.560914 1.65328 0.55541 1.51016 0.571923C1.3698 0.591188 1.16063 0.599445 0.945954 0.84164V0.844393C0.753298 1.06182 0.761555 1.31502 0.786325 1.45539C0.808342 1.59575 0.860635 1.69758 0.863387 1.70033C0.882653 1.74987 2.36885 5.39106 4.24311 7.34789C5.56418 8.72951 6.97607 9.18362 8.23659 9.18362H8.88887C9.10354 9.18362 9.29619 9.17537 9.50811 9.06528C9.72004 8.95519 9.90444 8.64969 9.90444 8.413C9.90444 8.1598 9.90994 7.91485 9.94297 7.77724C9.97324 7.64788 9.95948 7.67816 9.97324 7.67816C9.98425 7.68091 10.0063 7.68641 10.0503 7.70568C10.1384 7.74696 10.2787 7.83779 10.4356 7.95888C10.7439 8.19833 11.1099 8.54786 11.5227 8.81758C12.1117 9.20839 12.7502 9.18362 12.7502 9.18362H14.8584L14.8832 9.18087C14.8832 9.18087 15.2052 9.17537 15.5382 8.9717C15.7034 8.86987 15.9015 8.68272 15.9676 8.40199C16.0336 8.12127 15.9511 7.82953 15.7859 7.57082C15.7281 7.47449 15.4392 7.05616 14.286 6.03233C13.986 5.76812 13.7823 5.58097 13.7025 5.48189C13.675 5.44611 13.6722 5.44886 13.6667 5.44886C13.6722 5.42959 13.741 5.28923 13.9172 5.05804C14.1043 4.81585 14.3851 4.48008 14.7483 4.0177C15.2135 3.42873 15.5382 2.86177 15.7419 2.38288C15.8437 2.14344 15.9153 1.92602 15.9593 1.73061C16.0034 1.53245 16.0364 1.37007 15.9731 1.13613C15.9263 0.962738 15.7942 0.808614 15.6676 0.726048C15.541 0.643481 15.4226 0.613206 15.3153 0.593941C15.1034 0.552658 14.9135 0.560914 14.7373 0.560914C14.3713 0.560914 12.7392 0.571923 12.6044 0.571923C12.4475 0.571923 12.1943 0.637976 12.0759 0.706782C11.787 0.871915 11.6961 1.10035 11.6961 1.10035L11.6686 1.14714L11.6521 1.20218C11.6521 1.20218 11.2805 2.4049 10.898 3.02415C10.4494 3.75349 10.1136 4.04523 9.96498 4.12504C9.95122 4.13605 9.95948 4.13055 9.94847 4.13605C9.93746 4.10302 9.92095 4.05624 9.91269 3.97092C9.89067 3.77826 9.90444 3.50579 9.90444 3.24433C9.90444 2.51499 9.95673 2.06087 9.89618 1.63153C9.8659 1.41685 9.78884 1.17741 9.61545 0.993013C9.43931 0.811366 9.21087 0.720543 8.98519 0.66825H8.98244C8.74575 0.613206 8.49255 0.566418 7.8788 0.560914C7.09992 0.552657 6.59076 0.577427 6.1394 0.778339L6.13389 0.781092L6.13114 0.783844C5.95224 0.86641 5.81188 0.962738 5.68803 1.09209C5.62473 1.15539 5.55317 1.20218 5.50088 1.40585C5.47611 1.50768 5.47336 1.70033 5.58895 1.85721C5.70454 2.01409 5.86693 2.06087 5.9605 2.07464C5.94399 2.07188 6.03481 2.09115 6.10637 2.12693C6.17793 2.16271 6.24123 2.215 6.25774 2.23427V2.23702C6.24948 2.22601 6.31829 2.39665 6.33755 2.55352C6.35682 2.7104 6.35132 2.83425 6.35132 2.83425V2.86452L6.35407 2.89755C6.35407 2.89755 6.38434 3.24158 6.37058 3.59661C6.36233 3.77551 6.33756 3.9544 6.31003 4.06449C6.30728 4.07 6.30728 4.06724 6.30453 4.07275C6.17793 3.98468 5.88619 3.67368 5.48162 3.00764C5.10731 2.39114 4.76053 1.28475 4.76053 1.28475L4.75228 1.25998L4.74127 1.23521C4.74127 1.23521 4.67797 0.987508 4.38898 0.783844C4.11927 0.596693 3.86331 0.569171 3.86331 0.569171L3.81652 0.560914ZM3.69818 1.57373C3.72845 1.58474 3.789 1.60676 3.80001 1.61226L3.789 1.57648L3.80276 1.61226C3.80551 1.61226 3.80551 1.61501 3.80551 1.61501H3.80826C3.78074 1.5985 3.80276 1.61501 3.80551 1.62052C3.81927 1.66731 4.13027 2.73517 4.61466 3.53331C5.05502 4.26265 5.37978 4.66998 5.73482 4.91218C6.08986 5.15712 6.56874 5.13235 6.81094 5.00575C7.1357 4.83787 7.22377 4.55989 7.28707 4.32871C7.35037 4.09752 7.37239 3.86358 7.3834 3.6434C7.40267 3.22231 7.36964 2.87553 7.36689 2.84251C7.36689 2.82324 7.37239 2.65811 7.34487 2.43518C7.3201 2.21225 7.27331 1.93427 7.0724 1.65355C7.29533 1.62052 7.41918 1.57098 7.87054 1.57373C8.44301 1.57924 8.52832 1.60401 8.75401 1.6563C8.87786 1.68382 8.89162 1.70859 8.88061 1.69483C8.8696 1.68382 8.87786 1.67556 8.89162 1.77464C8.92189 1.97005 8.88887 2.47646 8.88887 3.24433C8.88887 3.459 8.86685 3.7645 8.90263 4.08376C8.93841 4.40301 9.04024 4.81034 9.42555 5.04979C9.64573 5.18465 10.0641 5.23143 10.4604 5.01126C10.8567 4.79108 11.2613 4.36724 11.7622 3.55533C12.2548 2.75443 12.5521 1.70309 12.5823 1.593C12.5823 1.593 12.5878 1.58749 12.5934 1.58474C12.6016 1.58749 12.5906 1.58749 12.6044 1.58749C12.7915 1.58749 14.3961 1.57373 14.7373 1.57373C14.8337 1.57373 14.8749 1.57924 14.9438 1.58199C14.9162 1.69208 14.8777 1.81868 14.8089 1.98381C14.6438 2.36912 14.3603 2.87003 13.9502 3.39295C13.5979 3.84156 13.3254 4.16632 13.1135 4.43879C12.9044 4.71126 12.7392 4.92594 12.6704 5.23694C12.6016 5.54794 12.7337 5.89747 12.9126 6.1204C13.0915 6.34058 13.3144 6.52773 13.6117 6.79194C14.7263 7.78274 14.9107 8.08274 14.9272 8.11026C14.9465 8.14053 14.9355 8.11026 14.941 8.12677C14.8777 8.14604 14.8034 8.16805 14.7951 8.17081H12.7392C12.7392 8.17081 12.3622 8.15705 12.0814 7.97265V7.96989C11.7842 7.77724 11.4264 7.44422 11.0576 7.15799C10.8732 7.01487 10.6861 6.88001 10.4659 6.78093C10.2485 6.68185 9.97324 6.61305 9.68426 6.70112C9.26317 6.82497 9.02923 7.22679 8.95492 7.5433C8.90263 7.77173 8.90813 7.96989 8.90813 8.16805C8.89437 8.16805 8.90538 8.17081 8.88887 8.17081H8.23659C7.20451 8.17081 6.13114 7.8543 4.97521 6.64608C3.46974 5.07456 2.12941 2.0361 1.9285 1.57648L3.69818 1.57373ZM12.5466 1.57924C12.5383 1.58199 12.5658 1.58199 12.5879 1.58474C12.5823 1.58749 12.5879 1.58199 12.5823 1.58474C12.5823 1.57648 12.5603 1.57648 12.5466 1.57924Z" fill="white"/>
</svg>
